<svg xmlns="http://www.w3.org/2000/svg" width="100" height="100" viewBox="0 0 100 100">
    <g fill="none" fill-rule="evenodd" stroke-width="2">
        <circle cx="50" cy="50" r="49" fill="currentColor" stroke="currentColor"/>
        <path stroke="#FFF" d="M55.5 29c-5.94 0-11.318 2.352-15.21 6.159C36.404 38.957 34 44.204 34 50c0 5.796 2.405 11.043 6.29 14.841C44.181 68.648 49.56 71 55.5 71c3.183 0 6.204-.675 8.922-1.888-2.941-1.932-5.412-4.496-7.208-7.494C55.171 58.208 54 54.238 54 50s1.171-8.208 3.214-11.618c1.796-2.997 4.266-5.562 7.208-7.494C61.705 29.675 58.683 29 55.5 29z"/>
    </g>
</svg>
