<svg xmlns="http://www.w3.org/2000/svg" width="108" height="35" viewBox="0 0 108 35">
    <g fill="#9FA7B7" fill-rule="evenodd">
        <path d="M0 11.648V.192h4.325c.76 0 1.342.037 1.744.11.563.093 1.035.271 1.416.533.382.264.688.632.92 1.104.232.472.347.992.347 1.56 0 .97-.31 1.794-.93 2.466-.62.675-1.742 1.01-3.363 1.01h-2.94v4.673H0zm1.52-6.016h2.96c.981 0 1.675-.181 2.088-.547.41-.365.616-.877.616-1.541 0-.478-.12-.888-.363-1.23-.242-.34-.562-.567-.957-.677-.256-.066-.728-.101-1.413-.101H1.52v4.096zm8.688.44c0-1.899.512-3.387 1.533-4.461C12.763.536 14.08 0 15.696 0c1.058 0 2.01.253 2.861.757.848.504 1.496 1.208 1.941 2.112.446.902.67 1.926.67 3.07 0 1.16-.235 2.2-.704 3.114-.47.918-1.133 1.611-1.992 2.08-.861.472-1.79.707-2.784.707-1.08 0-2.043-.262-2.893-.781-.848-.52-1.494-1.23-1.93-2.131-.438-.899-.657-1.85-.657-2.856zm1.568.026c0 1.38.37 2.465 1.112 3.257.741.792 1.672 1.189 2.792 1.189 1.141 0 2.077-.4 2.816-1.2.736-.8 1.104-1.936 1.104-3.408 0-.93-.158-1.744-.472-2.437-.315-.694-.776-1.232-1.381-1.614-.608-.381-1.288-.573-2.043-.573-1.072 0-1.995.368-2.768 1.104-.773.736-1.16 1.963-1.16 3.682zm13.317 5.55L22.077.192h1.574l1.717 7.512c.186.787.352 1.568.493 2.341.301-1.221.477-1.925.528-2.112L28.554.192h1.827l1.643 5.8c.402 1.44.701 2.792.893 4.053.152-.722.347-1.552.584-2.488l1.79-7.365h1.522l-3.136 11.456h-1.475L29.8 2.92c-.203-.73-.326-1.179-.371-1.344-.13.523-.248.97-.35 1.341l-2.402 8.73h-1.584zm13.157 0V.192h8.272v1.344H39.77v3.52h6.32V6.4h-6.32v3.904h7.024v1.344H38.25zm10.672 0V.192H54c1.021 0 1.797.104 2.327.31.531.205.955.567 1.273 1.087.317.52.474 1.096.474 1.726 0 .813-.264 1.498-.79 2.056-.525.557-1.335.909-2.434 1.06.403.193.707.385.915.571.443.406.861.915 1.253 1.526L59 11.648h-1.893l-1.514-2.384c-.44-.69-.806-1.216-1.091-1.582-.288-.365-.544-.618-.77-.765-.225-.144-.457-.245-.691-.304-.171-.034-.451-.053-.843-.053h-1.755v5.088h-1.52zm1.52-6.4h3.253c.694 0 1.232-.072 1.622-.216.39-.141.685-.37.885-.688.203-.315.304-.656.304-1.027 0-.541-.194-.99-.586-1.338-.392-.35-1.01-.523-1.857-.523h-3.62v3.792zm10.035 6.4V.192h8.272v1.344h-6.752v3.52h6.32V6.4h-6.32v3.904h7.024v1.344h-8.544zm10.64 0V.192h3.946c.891 0 1.571.053 2.04.163.656.152 1.216.426 1.68.82.606.513 1.056 1.164 1.355 1.958.301.795.45 1.704.45 2.726 0 .869-.1 1.64-.303 2.312-.203.671-.464 1.229-.782 1.669-.32.44-.666.787-1.045 1.037-.376.254-.832.445-1.365.576-.536.13-1.15.195-1.843.195h-4.133zm1.52-1.344h2.442c.755 0 1.347-.07 1.776-.21.43-.142.77-.34 1.027-.595.357-.36.637-.846.837-1.454.2-.608.302-1.344.302-2.21 0-1.2-.198-2.123-.59-2.769-.392-.645-.869-1.077-1.432-1.295-.405-.158-1.058-.235-1.96-.235h-2.402v8.768zm14.45 1.344V.192h4.299c.875 0 1.576.115 2.106.347.528.231.942.589 1.24 1.072.302.48.451.984.451 1.512 0 .488-.133.949-.397 1.381-.264.432-.664.781-1.2 1.048.693.203 1.226.55 1.597 1.04.373.488.56 1.067.56 1.733 0 .539-.115 1.038-.341 1.499-.227.461-.507.816-.84 1.066-.334.249-.752.438-1.254.566-.504.128-1.12.192-1.85.192h-4.371zm1.52-6.64h2.477c.673 0 1.155-.045 1.446-.134.386-.114.677-.306.872-.573.194-.266.293-.6.293-1.002 0-.382-.09-.718-.275-1.006-.181-.29-.442-.49-.781-.597-.338-.107-.92-.16-1.741-.16h-2.29v3.472zm0 5.296h2.853c.49 0 .835-.019 1.035-.056.347-.061.64-.165.875-.312.234-.147.426-.36.578-.64.152-.28.227-.603.227-.968 0-.43-.11-.8-.33-1.118-.22-.317-.523-.538-.913-.666-.386-.128-.946-.192-1.674-.192h-2.65v3.952zm12.445 1.344V6.795L96.636.192h1.824l2.264 3.467c.422.642.814 1.285 1.17 1.928.35-.6.774-1.272 1.268-2.019L105.38.192h1.768l-4.576 6.603v4.853h-1.52z"/>
        <g>
            <path fill-rule="nonzero" d="M0 .415h7.383c4.922 0 7.027 2.55 7.027 9.902 0 7.68-.978 11.268-7.532 11.268H0V.415zm4.98 17.492h1.335c2.312 0 3.113-.919 3.113-7.263 0-5.16-.415-6.554-3.053-6.554H4.98v13.817zM20.342 14.35v.979c0 2.491.356 3.705 1.75 3.705 1.245 0 1.63-.919 1.75-2.934h4.447c-.09 3.972-2.254 5.9-6.227 5.9-6.049 0-6.523-4.24-6.523-9.014 0-4.507 1.305-7.857 6.523-7.857 5.96 0 6.375 3.766 6.375 9.22h-8.095zm3.469-2.786c0-2.254-.296-3.47-1.63-3.47-1.572 0-1.839 1.304-1.839 3.47h3.469z" transform="translate(.262 13.345)"/>
            <path d="M28.587 5.545L33.568 5.545 35.435 17.374 35.495 17.374 37.393 5.545 42.196 5.545 38.223 21.585 32.53 21.585z" transform="translate(.262 13.345)"/>
            <path fill-rule="nonzero" d="M43.235.178h4.803v3.675h-4.803V.178zm0 5.367h4.803v16.04h-4.803V5.545z" transform="translate(.262 13.345)"/>
            <path d="M57.973 11.593c0-2.343-.534-3.322-1.809-3.322-1.6 0-1.809 2.017-1.809 5.307 0 3.618.208 5.278 1.81 5.278 1.423 0 1.748-.978 1.808-3.795h4.447C62.39 20.012 60.433 22 56.075 22c-6.049 0-6.523-4.24-6.523-9.014 0-4.507 1.304-7.857 6.523-7.857 5.04 0 6.345 2.639 6.345 6.464h-4.447z" transform="translate(.262 13.345)"/>
            <path fill-rule="nonzero" d="M67.877 14.35v.979c0 2.491.355 3.705 1.75 3.705 1.244 0 1.63-.919 1.749-2.934h4.447c-.089 3.972-2.253 5.9-6.226 5.9-6.048 0-6.523-4.24-6.523-9.014 0-4.507 1.305-7.857 6.523-7.857 5.96 0 6.375 3.766 6.375 9.22h-8.095zm3.469-2.786c0-2.254-.297-3.47-1.63-3.47-1.572 0-1.838 1.304-1.838 3.47h3.468zM84.304 22c-6.553 0-7.442-4.27-7.442-11 0-6.731.89-11 7.442-11 7.057 0 7.443 5.13 7.443 11-.001 5.87-.386 11-7.443 11zm-.03-3.321c2.016 0 2.313-1.868 2.313-7.679 0-5.812-.297-7.68-2.313-7.68-1.957 0-2.254 1.868-2.254 7.68.001 5.81.297 7.679 2.254 7.679z" transform="translate(.262 13.345)"/>
            <path d="M93.41 5.545h4.625v1.898h.059c.683-1.424 2.075-2.314 3.855-2.314 2.728 0 4.18 1.364 4.18 4.447v12.009h-4.803v-10.94c0-1.157-.503-1.84-1.392-1.84-.92 0-1.72.713-1.72 2.283v10.497H93.41V5.545z" transform="translate(.262 13.345)"/>
        </g>
    </g>
</svg>
