<svg xmlns="http://www.w3.org/2000/svg" width="100" height="100" viewBox="0 0 100 100">
    <g fill="none" fill-rule="evenodd">
        <circle cx="50" cy="50" r="49" fill="currentColor" stroke="currentColor" stroke-width="2"/>
        <path fill="#FFF" fill-rule="nonzero" d="M50.5 28.5v11.528c2.578.178 5.636 1.217 9.193 3.106l8.55-8.548L69.657 36l-8.147 8.147a74.496 74.496 0 0 1 4.881 3.132c1.601 1.11 4.02 2.95 7.265 5.527l.41.326L77 55.482l-1.696 1.413C63.957 66.286 55.493 71 49.714 71c-5.793 0-14.11-4.731-25.146-14.153l-.52-.445L23 55.5l1.62-1.392c4.89-4.173 9.247-7.423 13.086-9.747L29.343 36l1.414-1.414 8.74 8.738c3.45-1.904 6.446-2.992 9.004-3.259L48.5 28.5h2zm0 13.92v.08h-2v-.036c-4.877.617-12.022 4.804-21.3 12.59l-.49.412-.04.033.582.49c9.712 8.142 17.082 12.334 21.953 12.612l.246.01.263.004c4.875 0 12.6-4.215 23.003-12.687l.506-.414-1.532-1.218a199.664 199.664 0 0 0-5.229-4.028l-.267-.195-.965-.693-.74-.51a68.073 68.073 0 0 0-4.73-2.974l-.003.003-.01-.011c-3.715-2.108-6.805-3.26-9.246-3.469zm-.901 2.074c5.95 0 10.775 4.804 10.775 10.73 0 5.927-4.824 10.731-10.775 10.731-5.951 0-10.775-4.804-10.775-10.73 0-5.927 4.824-10.731 10.775-10.731zm0 2.384c-4.629 0-8.38 3.737-8.38 8.347 0 4.61 3.751 8.346 8.38 8.346 4.628 0 8.38-3.737 8.38-8.346 0-4.61-3.752-8.347-8.38-8.347z"/>
    </g>
</svg>
