<svg xmlns="http://www.w3.org/2000/svg" width="100" height="100" viewBox="0 0 100 100">
    <g fill="none" fill-rule="evenodd">
        <circle cx="50" cy="50" r="49" fill="#FFF" stroke="#9E3398" stroke-width="2"/>
        <path fill="#9E3398" fill-rule="nonzero" d="M49.714 40c4.174 0 9.7 2.441 16.677 7.279 1.668 1.156 4.223 3.105 7.675 5.853L77 55.482l-1.696 1.413C63.957 66.286 55.493 71 49.714 71c-5.884 0-14.371-4.88-25.666-14.598L23 55.5l1.62-1.392C35.625 44.717 43.926 40 49.714 40zm0 2.385c-4.951 0-12.68 4.347-23.004 13.081l-.04.033.582.49c9.877 8.28 17.331 12.475 22.199 12.622l.263.004c4.954 0 12.85-4.353 23.509-13.1l-1.532-1.22c-2.267-1.794-4.1-3.202-5.496-4.222l-.965-.693-.74-.51c-6.353-4.338-11.308-6.485-14.776-6.485zm-.115 2.109c5.95 0 10.775 4.804 10.775 10.73 0 5.927-4.824 10.731-10.775 10.731-5.951 0-10.775-4.804-10.775-10.73 0-5.927 4.824-10.731 10.775-10.731zm0 2.384c-4.629 0-8.38 3.737-8.38 8.347 0 4.61 3.751 8.346 8.38 8.346 4.628 0 8.38-3.737 8.38-8.346 0-4.61-3.752-8.347-8.38-8.347z"/>
        <path fill="#9E3398" fill-rule="nonzero" d="M68.243 34.586L69.657 36l-9.9 9.9-1.414-1.415zM50.5 28.5v14h-2v-14zM29.343 36l1.414-1.414 9.9 9.9-1.414 1.413z"/>
    </g>
</svg>
