<svg xmlns="http://www.w3.org/2000/svg" width="100" height="100" viewBox="0 0 100 100">
    <g fill="none" fill-rule="evenodd">
        <circle cx="50" cy="50" r="49" fill="#FFF" stroke="#9E3398" stroke-width="2"/>
        <path fill="#9E3398" fill-rule="nonzero" d="M65.113 31.173v2.173H62.62C67.864 37.315 71 43.382 71 49.823c0 11.443-9.661 20.973-21.338 21.173L49.29 71v-2.173c10.656 0 19.538-8.652 19.538-19.003 0-6.066-3.128-11.78-8.319-15.323l.002 3.448h-2.173v-6.776h6.776zM50.71 29v2.173c-10.656 0-19.538 8.652-19.538 19.003 0 5.938 3.016 11.669 7.862 15.273v-2.766h2.174v6.776h-6.776v-2.173h3.431c-5.46-4-8.864-10.42-8.864-17.11 0-11.443 9.661-20.973 21.338-21.173L50.71 29zm2.329 7.606l6.06 3.168-1.708 3.57.248.272c.757.839 1.253 1.5 1.623 2.23l.12.247.093.216h3.484v7.119h-3.481l-.118.284c-.395.911-.919 1.81-1.51 2.611l-.257.337-.173.213 1.7 2.961-6.028 3.939-1.838-3.201h-3.472l-1.836 3.2-6.15-4.017 2.177-2.844-.14-.14c-.677-.71-1.131-1.565-1.6-2.846l-.107-.304-.067-.193h-3.454v-7.12h3.483l.094-.215c.344-.75.8-1.402 1.5-2.204l.243-.273.178-.197-2.285-3.582 6.065-3.17 2.332 3.046h3.039l1.785-3.107zm-7.77 2.832l-2.346 1.227 1.925 3.018-.825.865c-1.215 1.287-1.73 1.989-2.079 2.986l-.063.191-.242.757h-2.862v2.773h2.862l.338 1.055c.632 1.935 1.069 2.756 1.978 3.435l.14.101.932.65-2.082 2.72 2.261 1.477 1.318-2.294h5.99l1.316 2.294 2.383-1.557-1.47-2.562.561-.587a11.072 11.072 0 0 0 2.276-3.673l.103-.303.241-.756h2.861v-2.773h-2.861l-.241-.757c-.353-1.106-.855-1.814-2.154-3.19l-.225-.236-.518-.542 1.448-3.029-2.35-1.23-1.37 2.389h-5.372l-1.874-2.449zm4.513 6.774a3.931 3.931 0 1 1 0 7.862 3.931 3.931 0 0 1 0-7.862zm0 2.173a1.758 1.758 0 1 0 0 3.516 1.758 1.758 0 0 0 0-3.516z"/>
    </g>
</svg>
