<svg xmlns="http://www.w3.org/2000/svg" width="32" height="32" viewBox="0 0 32 32">
    <g fill="none" fill-rule="evenodd">
        <!-- <circle cx="16" cy="16" r="15.5" stroke="currentColor"/> -->
        <path fill="currentColor" fill-rule="nonzero" d="M16.476 22.706V26h-.941v-3.294h.941zm4.54-2.297l2.302 2.33-.658.665-2.302-2.33.658-.665zm-10.032 0l.658.666-2.302 2.329-.658-.666 2.302-2.329zM16 10c3.211 0 5.814 2.634 5.814 5.882 0 3.25-2.603 5.883-5.814 5.883s-5.814-2.634-5.814-5.883C10.186 12.634 12.789 10 16 10zm0 .941c-2.697 0-4.884 2.212-4.884 4.941 0 2.73 2.187 4.942 4.884 4.942 2.697 0 4.884-2.213 4.884-4.942s-2.187-4.94-4.884-4.94zm10 4.706v.941h-3.256v-.94H26zm-16.744 0v.941H6v-.94h3.256zm9.767 0v.941h-6.046v-.94h6.046zM9.34 8.597l2.302 2.328-.658.666-2.302-2.33.658-.665zm13.32 0l.658.665-2.302 2.329-.658-.666 2.302-2.329zM16.476 6v3.294h-.941V6h.941z"/>
    </g>
</svg>
