<svg xmlns="http://www.w3.org/2000/svg" width="32" height="32" viewBox="0 0 32 32">
    <g fill="none" fill-rule="evenodd">
        <circle cx="16" cy="16" r="15.5" fill="currentColor" stroke="currentColor"/>
        <path fill="#FFF" fill-rule="nonzero" d="M22.8 9a1.2 1.2 0 0 1 1.2 1.2V13c0 .308-.116.589-.307.801.191.211.307.492.307.799v2.8c0 .307-.116.588-.306.8.19.211.306.492.306.8v2.8a1.2 1.2 0 0 1-1.2 1.2H9.2A1.2 1.2 0 0 1 8 21.8V19c0-.307.116-.588.306-.8A1.192 1.192 0 0 1 8 17.4v-2.8c0-.307.116-.588.306-.8A1.192 1.192 0 0 1 8 13v-2.8A1.2 1.2 0 0 1 9.2 9h13.6zm.008 9.6H9.193l-.068.007a.4.4 0 0 0-.322.346L8.8 19v2.8a.4.4 0 0 0 .353.397l.047.003h13.6a.4.4 0 0 0 .397-.353l.003-.047V19a.4.4 0 0 0-.353-.397l-.039-.003zM17 19.8v.823H9.8V19.8H17zm4.6 0a.4.4 0 1 1 0 .8.4.4 0 0 1 0-.8zm-1.2 0a.4.4 0 1 1 0 .8.4.4 0 0 1 0-.8zm-1.2 0a.4.4 0 1 1 0 .8.4.4 0 0 1 0-.8zm3.6-5.6H9.2a.4.4 0 0 0-.397.353L8.8 14.6v2.8a.4.4 0 0 0 .353.397l.038.003 13.615-.001.069-.006a.4.4 0 0 0 .322-.346l.003-.047v-2.8a.4.4 0 0 0-.353-.397L22.8 14.2zM17 15.4v.823H9.8V15.4H17zm4.6 0a.4.4 0 1 1 0 .8.4.4 0 0 1 0-.8zm-1.2 0a.4.4 0 1 1 0 .8.4.4 0 0 1 0-.8zm-1.2 0a.4.4 0 1 1 0 .8.4.4 0 0 1 0-.8zm3.6-5.6H9.2a.4.4 0 0 0-.397.353L8.8 10.2V13a.4.4 0 0 0 .353.397l.047.003h13.6a.4.4 0 0 0 .397-.353L23.2 13v-2.8a.4.4 0 0 0-.353-.397L22.8 9.8zM17 11v.823H9.8V11H17zm4.6 0a.4.4 0 1 1 0 .8.4.4 0 0 1 0-.8zm-1.2 0a.4.4 0 1 1 0 .8.4.4 0 0 1 0-.8zm-1.2 0a.4.4 0 1 1 0 .8.4.4 0 0 1 0-.8z"/>
    </g>
</svg>
