<svg xmlns="http://www.w3.org/2000/svg" width="100" height="100" viewBox="0 0 100 100">
    <g fill="none" fill-rule="evenodd">
        <circle cx="50" cy="50" r="49" fill="currentColor" stroke="currentColor" stroke-width="2"/>
        <path fill="#FFF" fill-rule="nonzero" d="M69.752 26.442l.496 1.938-2.343.604c-11.269 2.928-19.852 5.493-25.742 7.69l-.398.149c-5.826 2.202-8.799 4.061-8.766 4.912.039.998 5.66 1.388 17.131 1.105l5.527-.152c9.835-.25 13.39-.109 15.424.847 1.435.675 2.072 1.816 1.033 2.909-.597.627-1.81 1.132-3.752 1.642l-.517.132c-1.05.259-2.301.52-3.752.782H74v22H25V49h24.44l2.345-.269c7.368-.868 12.649-1.709 15.823-2.516l.246-.063c1.025-.27 1.795-.534 2.28-.76l.096-.047-.083-.038c-1.6-.7-5.122-.837-13.558-.64l-8.32.221c-4.533.105-7.347.099-9.866-.047l-.251-.015c-4.673-.29-7.074-1.017-7.151-3.014-.149-3.862 11.994-8.491 37.96-15.167l.791-.203zM72 51H27v18h45V51zM31 63v2h-2v-2h2zm3 0v2h-2v-2h2zm3 0v2h-2v-2h2zm3 0v2h-2v-2h2zm18 0v2H41v-2h17zm3 0v2h-2v-2h2zm3 0v2h-2v-2h2zm3 0v2h-2v-2h2zm3 0v2h-2v-2h2zm-6-4v2H29v-2h35zm6-4v6h-5v-2h3v-4h2zm-3 0v2H29v-2h38z"/>
    </g>
</svg>
