<svg xmlns="http://www.w3.org/2000/svg" width="100" height="100" viewBox="0 0 100 100">
    <g fill="none" fill-rule="evenodd">
        <circle cx="50" cy="50" r="49" fill="currentColor" stroke="currentColor" stroke-width="2"/>
        <path fill="#FFF" fill-rule="nonzero" d="M51 30v3.112c5.924.339 8.967 3.774 9.912 9.336.266 1.567.345 2.897.352 5.03v1.975c.003.153.006.279.01.393l.023.354c.006.07.013.132.02.184l.014.083.073.067c2.183 2.123 3.342 5.816 3.558 11.06l.017.482.031 1.03h-9.35C54.84 65.406 52.616 67 50 67a6.002 6.002 0 0 1-5.62-3.894h-9.227l-.144-1.31c-.535-5.443.591-9.315 3.478-11.505l-.133.104.036-.168.015-.098.025-.208c.02-.197.036-.421.05-.728l.077-2.42c.063-1.634.152-2.682.352-3.861l.086-.481C40.039 36.872 43.1 33.458 49 33.114L49 30h2zm2.398 33.105h-6.8l.031.05a4 4 0 0 0 3.17 1.84L50 65a3.996 3.996 0 0 0 3.34-1.797l.058-.098zm-3.385-28.02c-5.496 0-8.114 2.715-9.053 7.715-.254 1.354-.35 2.431-.417 4.405l-.047 1.576c-.067 2.163-.16 2.618-.8 3.104l-.195.154c-1.972 1.63-2.854 4.513-2.57 8.732l.024.334h25.98l-.02-.336c-.281-4.266-1.265-7.187-2.883-8.779l-.28-.263c-.395-.393-.477-.75-.489-2.258l.001-1.57c.002-2.277-.065-3.59-.324-5.116-.846-4.978-3.43-7.698-8.927-7.698z"/>
    </g>
</svg>
