<svg xmlns="http://www.w3.org/2000/svg" width="32" height="32" viewBox="0 0 32 32">
    <g fill="none" fill-rule="evenodd">
        <!-- <circle cx="16" cy="16" r="15.5" stroke="#9E3398"/> -->
        <g fill="currentColor" fill-rule="nonzero">
            <path d="M14.678 12.4v8.322l-2.293-1.366H10l4.371 6.555h5.576l1.43-5.136-4.038-2.147-.124-4.21-2.537-2.018zm.649 1.352l1.249.994.127 4.286 3.907 2.077-1.154 4.144h-4.74l-3.494-5.239h.986l3.119 1.858v-8.12zM15.689 6c.897 0 1.392.567 1.42 1.553l.002.091v.327h1.067v3.911H13.2v-3.91l1.115-.001v-.313C14.277 6.61 14.76 6 15.69 6zm1.778 2.682H13.91v2.49h3.556v-2.49zm-1.778 1.423a.356.356 0 1 1 0 .71.356.356 0 0 1 0-.71zm0-3.394c-.474 0-.673.23-.664.859l.002.074-.001.327h1.373l.001-.327c0-.676-.213-.933-.711-.933z"/>
        </g>
    </g>
</svg>
