<svg xmlns="http://www.w3.org/2000/svg" width="100" height="100" viewBox="0 0 100 100">
    <g fill="none" fill-rule="evenodd">
        <circle cx="50" cy="50" r="49" fill="#FFF" stroke="#9E3398" stroke-width="2"/>
        <path fill="#9E3398" fill-rule="nonzero" d="M67 33a3 3 0 0 1 3 3v7c0 .769-.29 1.47-.765 2 .476.53.765 1.232.765 2v7c0 .769-.29 1.47-.765 2 .476.53.765 1.232.765 2v7a3 3 0 0 1-3 3H33a3 3 0 0 1-3-3v-7c0-.768.289-1.47.764-2A2.989 2.989 0 0 1 30 54v-7c0-.768.289-1.47.764-2A2.989 2.989 0 0 1 30 43v-7a3 3 0 0 1 3-3h34zm0 24H33a1 1 0 0 0-.993.883L32 58v7a1 1 0 0 0 .883.993L33 66h34a1 1 0 0 0 .993-.883L68 65v-7a1 1 0 0 0-.883-.993L67 57zm-14.5 3v2h-18v-2h18zM64 60a1 1 0 1 1 0 2 1 1 0 0 1 0-2zm-3 0a1 1 0 1 1 0 2 1 1 0 0 1 0-2zm-3 0a1 1 0 1 1 0 2 1 1 0 0 1 0-2zm9-14H33a1 1 0 0 0-.993.883L32 47v7a1 1 0 0 0 .883.993L33 55h34a1 1 0 0 0 .993-.883L68 54v-7a1 1 0 0 0-.883-.993L67 46zm-14.5 3v2h-18v-2h18zM64 49a1 1 0 1 1 0 2 1 1 0 0 1 0-2zm-3 0a1 1 0 1 1 0 2 1 1 0 0 1 0-2zm-3 0a1 1 0 1 1 0 2 1 1 0 0 1 0-2zm9-14H33a1 1 0 0 0-.993.883L32 36v7a1 1 0 0 0 .883.993L33 44h34a1 1 0 0 0 .993-.883L68 43v-7a1 1 0 0 0-.883-.993L67 35zm-14.5 3v2h-18v-2h18zM64 38a1 1 0 1 1 0 2 1 1 0 0 1 0-2zm-3 0a1 1 0 1 1 0 2 1 1 0 0 1 0-2zm-3 0a1 1 0 1 1 0 2 1 1 0 0 1 0-2z"/>
    </g>
</svg>
