<svg xmlns="http://www.w3.org/2000/svg" width="100" height="100" viewBox="0 0 100 100">
    <g fill="none" fill-rule="evenodd">
        <circle cx="50" cy="50" r="49" fill="currentColor" stroke="currentColor" stroke-width="2"/>
        <path fill="#FFF" fill-rule="nonzero" d="M49.885 29l17.695 8.007v16.027c0 8.012-5.898 13.732-17.4 17.14l-.314.092-.795-.287C38.441 66.063 33 60.415 33 53.034V37.02L49.885 29zm.02 2.204L35 38.284v14.75c0 6.39 4.836 11.412 14.756 15.066l.168.061.649-.2c9.936-3.147 14.853-8.011 15.004-14.611l.003-.316V38.297l-15.675-7.093zm.108 4.355l12.277 5.469v10.875c0 5.505-4.095 9.414-11.987 11.715l-.309.09-.71-.252C42.04 60.81 38.29 56.962 38.29 51.903V41.04l11.723-5.482zm.02 2.198l-9.743 4.556v9.59c0 4.06 3.14 7.286 9.67 9.67l.092.033.476-.146c6.47-2.046 9.64-5.147 9.759-9.311l.003-.246v-9.577l-10.256-4.569zm7.27 10.478v2h-14v-2h14z"/>
    </g>
</svg>
