<svg xmlns="http://www.w3.org/2000/svg" width="70" height="70" viewBox="0 0 70 70">
    <g fill="none" fill-rule="evenodd" transform="translate(15.312 4.375)">
        <path fill="#323233" d="M0 19.688c-.018 11.939 6.544 25.758 19.688 41.456 13.232-15.682 19.857-29.5 19.876-41.456 0 0 0-19.688-19.782-19.688S0 19.688 0 19.688z"/>
        <circle cx="19.688" cy="19.688" r="13.125" fill="#A5A5A5"/>
        <path fill="#323233" fill-rule="nonzero" d="M20.886 22.708l.052-.782c.094-.837.465-1.568 1.115-2.192l1.038-.986c.812-.787 1.38-1.502 1.705-2.147.324-.645.487-1.331.487-2.058 0-1.597-.5-2.834-1.5-3.71-1-.876-2.405-1.314-4.217-1.314-1.794 0-3.21.461-4.249 1.384-1.038.923-1.566 2.2-1.583 3.833h3.717c.017-.684.216-1.22.596-1.609s.887-.583 1.52-.583c1.332 0 1.999.722 1.999 2.166 0 .479-.129.934-.385 1.365-.256.432-.771.991-1.544 1.68-.774.687-1.306 1.386-1.596 2.095-.29.71-.436 1.662-.436 2.858h3.281zm-1.576 5.883c.624 0 1.126-.183 1.506-.55.38-.368.57-.834.57-1.398 0-.572-.194-1.045-.583-1.416-.389-.372-.887-.558-1.493-.558-.607 0-1.105.186-1.493.558-.39.371-.584.844-.584 1.416 0 .564.19 1.03.57 1.397.381.368.883.551 1.507.551z"/>
    </g>
</svg>
