<svg xmlns="http://www.w3.org/2000/svg" width="70" height="70" viewBox="0 0 70 70">
    <g fill="#9E3398" fill-rule="nonzero">
        <path d="M36.716 18l.027-.415a1.88 1.88 0 0 1 .579-1.163l.54-.524c.421-.417.716-.797.885-1.14.169-.342.253-.706.253-1.091 0-.848-.26-1.505-.78-1.97-.519-.465-1.249-.697-2.19-.697-.932 0-1.668.245-2.208.735-.539.49-.813 1.167-.822 2.034h1.931c.01-.363.112-.648.31-.854.197-.206.46-.31.789-.31.693 0 1.039.384 1.039 1.15 0 .254-.067.496-.2.725-.133.229-.4.526-.802.89-.402.366-.679.737-.83 1.113-.15.376-.226.882-.226 1.517M36 21c.3 0 .542-.094.725-.281a.977.977 0 0 0 .275-.712.985.985 0 0 0-.28-.723A.967.967 0 0 0 36 19a.967.967 0 0 0-.72.284.985.985 0 0 0-.28.723c0 .287.092.525.275.712.183.187.425.281.725.281zM47.716 18l.027-.415a1.88 1.88 0 0 1 .579-1.163l.54-.524c.421-.417.716-.797.885-1.14.169-.342.253-.706.253-1.091 0-.848-.26-1.505-.78-1.97-.519-.465-1.249-.697-2.19-.697-.932 0-1.668.245-2.208.735-.539.49-.813 1.167-.822 2.034h1.931c.01-.363.112-.648.31-.854.197-.206.46-.31.789-.31.693 0 1.039.384 1.039 1.15 0 .254-.067.496-.2.725-.133.229-.4.526-.802.89-.402.366-.679.737-.83 1.113-.15.376-.226.882-.226 1.517M47 21c.3 0 .542-.094.725-.281a.977.977 0 0 0 .275-.712.985.985 0 0 0-.28-.723A.967.967 0 0 0 47 19a.967.967 0 0 0-.72.284.985.985 0 0 0-.28.723c0 .287.092.525.275.712.183.187.425.281.725.281zM25.716 18l.027-.415a1.88 1.88 0 0 1 .579-1.163l.54-.524c.421-.417.716-.797.885-1.14.169-.342.253-.706.253-1.091 0-.848-.26-1.505-.78-1.97-.519-.465-1.249-.697-2.19-.697-.932 0-1.668.245-2.208.735-.539.49-.813 1.167-.822 2.034h1.931c.01-.363.112-.648.31-.854.197-.206.46-.31.789-.31.693 0 1.039.384 1.039 1.15 0 .254-.067.496-.2.725-.133.229-.4.526-.802.89-.402.366-.679.737-.83 1.113-.15.376-.226.882-.226 1.517M25 21c.3 0 .542-.094.725-.281a.977.977 0 0 0 .275-.712.985.985 0 0 0-.28-.723A.967.967 0 0 0 25 19a.967.967 0 0 0-.72.284.985.985 0 0 0-.28.723c0 .287.092.525.275.712.183.187.425.281.725.281zM56.325 25C58.355 25 60 26.343 60 28v7c0 .768-.354 1.469-.935 2 .581.531.935 1.232.935 2v7c0 .768-.354 1.469-.935 2 .581.531.935 1.232.935 2v7c0 1.657-1.645 3-3.675 3h-41.65C12.645 60 11 58.657 11 57v-7c0-.768.354-1.469.935-2-.581-.531-.935-1.232-.935-2v-7c0-.768.354-1.469.935-2-.581-.531-.935-1.232-.935-2v-7c0-1.657 1.645-3 3.675-3h41.65zm.425 24h-42.5c-.641 0-1.17.386-1.242.883L13 50v7c0 .513.483.936 1.104.993l.146.007h42.5c.641 0 1.17-.386 1.242-.883L58 57v-7c0-.513-.483-.936-1.104-.993L56.75 49zm-18.188 3v2h-22.05v-2h22.05zM53 52a1 1 0 1 1 0 2 1 1 0 0 1 0-2zm-4 0a1 1 0 1 1 0 2 1 1 0 0 1 0-2zm-4 0a1 1 0 1 1 0 2 1 1 0 0 1 0-2zm11.75-14h-42.5c-.641 0-1.17.386-1.242.883L13 39v7c0 .513.483.936 1.104.993l.146.007h42.5c.641 0 1.17-.386 1.242-.883L58 46v-7c0-.513-.483-.936-1.104-.993L56.75 38zm-18.188 3v2h-22.05v-2h22.05zM53 41a1 1 0 1 1 0 2 1 1 0 0 1 0-2zm-4 0a1 1 0 1 1 0 2 1 1 0 0 1 0-2zm-4 0a1 1 0 1 1 0 2 1 1 0 0 1 0-2zm11.75-14h-42.5c-.641 0-1.17.386-1.242.883L13 28v7c0 .513.483.936 1.104.993l.146.007h42.5c.641 0 1.17-.386 1.242-.883L58 35v-7c0-.513-.483-.936-1.104-.993L56.75 27zm-18.188 3v2h-22.05v-2h22.05zM53 30a1 1 0 1 1 0 2 1 1 0 0 1 0-2zm-4 0a1 1 0 1 1 0 2 1 1 0 0 1 0-2zm-4 0a1 1 0 1 1 0 2 1 1 0 0 1 0-2z"/>
    </g>
</svg>
