<svg xmlns="http://www.w3.org/2000/svg" width="70" height="70" viewBox="0 0 70 70">
    <g fill="#9E3398" fill-rule="nonzero">
        <path d="M35.716 19l.027-.415a1.88 1.88 0 0 1 .579-1.163l.54-.524c.421-.417.716-.797.885-1.14.169-.342.253-.706.253-1.091 0-.848-.26-1.505-.78-1.97-.519-.465-1.249-.697-2.19-.697-.932 0-1.668.245-2.208.735-.539.49-.813 1.167-.822 2.034h1.931c.01-.363.112-.648.31-.854.197-.206.46-.31.789-.31.693 0 1.039.384 1.039 1.15 0 .254-.067.496-.2.725-.133.229-.4.526-.802.89-.402.366-.679.737-.83 1.113-.15.376-.226.882-.226 1.517M35 22c.3 0 .542-.094.725-.281a.977.977 0 0 0 .275-.712.985.985 0 0 0-.28-.723A.967.967 0 0 0 35 20a.967.967 0 0 0-.72.284.985.985 0 0 0-.28.723c0 .287.092.525.275.712.183.187.425.281.725.281zM46.716 19l.027-.415a1.88 1.88 0 0 1 .579-1.163l.54-.524c.421-.417.716-.797.885-1.14.169-.342.253-.706.253-1.091 0-.848-.26-1.505-.78-1.97-.519-.465-1.249-.697-2.19-.697-.932 0-1.668.245-2.208.735-.539.49-.813 1.167-.822 2.034h1.931c.01-.363.112-.648.31-.854.197-.206.46-.31.789-.31.693 0 1.039.384 1.039 1.15 0 .254-.067.496-.2.725-.133.229-.4.526-.802.89-.402.366-.679.737-.83 1.113-.15.376-.226.882-.226 1.517M46 22c.3 0 .542-.094.725-.281a.977.977 0 0 0 .275-.712.985.985 0 0 0-.28-.723A.967.967 0 0 0 46 20a.967.967 0 0 0-.72.284.985.985 0 0 0-.28.723c0 .287.092.525.275.712.183.187.425.281.725.281zM24.716 19l.027-.415a1.88 1.88 0 0 1 .579-1.163l.54-.524c.421-.417.716-.797.885-1.14.169-.342.253-.706.253-1.091 0-.848-.26-1.505-.78-1.97-.519-.465-1.249-.697-2.19-.697-.932 0-1.668.245-2.208.735-.539.49-.813 1.167-.822 2.034h1.931c.01-.363.112-.648.31-.854.197-.206.46-.31.789-.31.693 0 1.039.384 1.039 1.15 0 .254-.067.496-.2.725-.133.229-.4.526-.802.89-.402.366-.679.737-.83 1.113-.15.376-.226.882-.226 1.517M24 22c.3 0 .542-.094.725-.281a.977.977 0 0 0 .275-.712.985.985 0 0 0-.28-.723A.967.967 0 0 0 24 20a.967.967 0 0 0-.72.284.985.985 0 0 0-.28.723c0 .287.092.525.275.712.183.187.425.281.725.281zM26.03 26l3.329 3.313L55 29.314v29H15V26h11.03zM53 36.313H17v20h36v-20zM25.205 28H17v6.313h36v-3H28.533L25.205 28z"/>
    </g>
</svg>
