<svg xmlns="http://www.w3.org/2000/svg" width="70" height="70" viewBox="0 0 70 70">
    <path fill="#9E3398" fill-rule="nonzero" d="M63 12v40H45v4h9v2H16v-2h9v-4H7V12h56zM43 52H27v4h16v-4zm18.194-38.222H8.806v36.444h52.388V13.778zM57 17v27H12V17h45zm-1.8 2.941L36.145 30.117 48 30.118v1.764H32.982l2.813 2.812-1.426 1.426-3.294-3.295-8.234 4.397h7.326l-.001-1.778H32V39H21v-.795L13.895 42l-.095-.159v.359h41.4V19.941zM53.607 18.8H13.8v21.258l7.2-3.845V23h11v3.555h-1.834v-1.777h-7.333v10.456l6.943-3.708-.657-.656 4.99-4.99 1.5 1.5-2.217 2.215L53.607 18.8z"/>
</svg>
