<svg xmlns="http://www.w3.org/2000/svg" width="70" height="70" viewBox="0 0 70 70">
    <g fill="#9E3398" fill-rule="nonzero">
        <path d="M32 28c-8 0-12 2.333-12 7 0 4.597 3.881 6.93 11.644 6.998L32 42V28zm-1.6 1.589v10.823l-.045-.002c-5.965-.265-8.661-2.037-8.753-5.24L21.6 35c0-3.253 2.592-5.075 8.438-5.394l.363-.017zM39 28c8 0 12 2.333 12 7 0 4.597-3.881 6.93-11.644 6.998L39 42V28zm1.6 1.589v10.823l.045-.002c5.965-.265 8.661-2.037 8.753-5.24L49.4 35c0-3.253-2.592-5.075-8.438-5.394l-.362-.017z"/>
        <path d="M35.5 37.5h-5v2h5zM35.5 30.5h-5v2h5zM25 20.602c0-3.572-1.96-5.52-5.595-5.6L19.17 15v1.633c2.89 0 4.183 1.236 4.183 3.97 0 2.684-1.11 3.95-3.544 4.073l-.2.007h-7.78l-.22.003C8.203 24.787 6 27.249 6 30.341 6 33.5 8.298 36 11.83 36h9.054v-1.633H11.83l-.202-.003c-2.467-.089-3.98-1.794-3.98-4.023 0-2.288 1.596-4.025 4.182-4.025h7.833-.012c3.489-.086 5.35-2.09 5.35-5.714zM46 49.398c0 3.572 1.96 5.52 5.595 5.6l.234.002v-1.633c-2.89 0-4.183-1.236-4.183-3.97 0-2.684 1.11-3.95 3.544-4.073l.2-.007h7.78l.22-.003c3.407-.101 5.61-2.563 5.61-5.655C65 36.5 62.702 34 59.17 34h-9.054v1.633h9.055l.202.003c2.467.089 3.98 1.794 3.98 4.023 0 2.288-1.596 4.025-4.182 4.025h-7.833.012c-3.489.086-5.35 2.09-5.35 5.714z"/>
    </g>
</svg>
