<svg xmlns="http://www.w3.org/2000/svg" width="100" height="100" viewBox="0 0 100 100">
    <g fill="none" fill-rule="evenodd">
        <circle cx="50" cy="50" r="49" fill="currentColor" stroke="currentColor" stroke-width="2"/>
        <path fill="#FFF" fill-rule="nonzero" d="M36 59v7.171a3.001 3.001 0 1 1-2 0V59h2zm-1 8.714a1.286 1.286 0 1 0 0 2.572 1.286 1.286 0 0 0 0-2.572zm12.951-30.606l7.723 8.982L68.3 43.635l5.963 13.76-12.186 9.868-21.157-6.591 5.213-4.221 7.43-1.073-14.73-18.19 9.118-.08zm-.818 1.849l-4.488.039 14.372 17.747-10.105 1.459-2.155 1.745 16.908 5.268 10.36-8.39-4.81-11.1-12.217 2.377-7.865-9.145zM35 40c2.522 0 3.917 1.595 3.996 4.369l.004.255-.001.919H42v11H28v-11h3.137l.001-.88C31.027 41.718 32.384 40 35 40zm5 7.544H30v7h10v-7zm-5 4a1 1 0 1 1 0 2 1 1 0 0 1 0-2zM35 42c-1.333 0-1.893.647-1.868 2.415l.006.21-.001.918h3.862l.001-.919C37 42.723 36.402 42 35 42zm0-17a3 3 0 0 1 1 5.829V38h-2v-7.17A3.001 3.001 0 0 1 35 25zm0 1.714a1.286 1.286 0 1 0 0 2.572 1.286 1.286 0 0 0 0-2.572z"/>
    </g>
</svg>
