<svg xmlns="http://www.w3.org/2000/svg" width="32" height="32" viewBox="0 0 32 32">
    <g fill="none" fill-rule="evenodd">
        <circle cx="16" cy="16" r="15.5" fill="none" stroke="none"/>
        <path fill="#FFF" fill-rule="nonzero" d="M18.305 6c5.38.151 9.695 4.57 9.695 9.998C28 21.522 23.532 26 18.02 26c-5.513 0-9.98-4.478-9.98-10.002 0-1.652.399-3.21 1.106-4.583L5.37 12.721l-.37-1.08 6.026-2.082 2.07 6.031-1.08.373-1.562-4.548a8.832 8.832 0 0 0-1.273 4.583c0 4.893 3.957 8.859 8.84 8.859 4.882 0 8.84-3.966 8.84-8.859 0-4.797-3.805-8.704-8.556-8.854V6z"/>
    </g>
</svg>
