<svg xmlns="http://www.w3.org/2000/svg" width="150" height="150" fill-rule="evenodd"><path d="M519.77 53.62c-.1-7.902-4.266-13.686-11.637-17.036-4.392-1.995-9-1.468-13.556-1.543-3.15-.05-6.926 1.034-9.284-.34-2.486-1.453-2.642-5.625-3.8-8.6-2.25-5.76-7.544-7.914-13.762-7.92h-35.426c-6.396.002-11.455 1.817-13.867 7.72-.986 2.414-2.027 4.824-2.754 7.318-.465 1.58-1.3 1.875-2.74 1.855-4.596-.065-9.195.044-13.8-.04-10.684-.195-19.22 9.534-19.082 19.03l.1 64.88c.002 1.6-.016 3.215.467 4.813 2.605 8.6 9.908 14.075 18.918 14.08l101.405-.014c10.012-.033 18.826-8.584 18.87-18.497l-.062-65.693zM486.7 89.023c-1.12 17.798-16.985 34.898-37.016 34.08-18.47.793-36.822-15.192-36.732-36.956.084-20.2 17.5-37.725 39.45-36.518 15.753.87 35.784 15.84 34.297 39.394zm-60.786-2.408c-.727-12.886 11.748-24.113 23.988-24.05 12.395.064 24.242 11.053 24.163 24.082-.08 13.208-10.882 24.13-24.044 24.142-13.588.01-24.113-10.544-24.107-24.175z" fill="#fff"/><path fill="#fefefe" d="M526.405 31.27c.053-7.098-5.89-13.503-13.542-13.38l-56.275.097c-18.853 0-37.712.194-56.562-.097-7.523-.118-13.558 6.224-13.5 13.422l-.002 93.112c-.078 8.432 7.288 13.71 13.688 13.69l112.55-.01c6.714.02 13.7-5.546 13.644-13.43l.001-93.403zm-19.675 86.593l-50.35-.06c-16.78-.002-33.565-.055-50.347.06-2.488.016-3.217-.552-3.206-2.922l.008-54.39c-.013-2.33.683-2.993 3.198-2.988H506.73c2.626-.008 3.375.67 3.357 3.136l.007 54.09c.017 2.51-.79 3.088-3.365 3.072z"/><g fill="#fff"><path d="M515.925 31.585c-.004-7.62-5.098-12.703-12.7-12.706l-57.408-.001c-19.318 0-38.638-.02-57.953.01-6.435.01-11.753 4.846-11.77 10.936l-.032 75.002c0 2.74 1.084 5.028 2.875 7.08 2.924 3.35 6.79 4.283 10.95 4.297l42.623.02c6.29 0 6.188.001 6.272 6.332.028 2.046-.723 3.852-2.48 3.83l-23.49-.028c-1.16.001-2.514-.166-3.117 1.11-1.09 2.302-.934 5.985-.18 8.26.66 1.986 2.76 1.27 4.468 1.27h59.765c1.807 0 3.613.406 5.414.36 2.166-.053 3.354-.92 3.296-3.18-.024-.99-.076-3.447.01-4.433.228-2.593-.982-3.503-3.5-3.474l-19.968.047c-5.738-.001-5.594-1.544-5.806-7.25-.1-2.427.57-2.932 2.944-2.913l46.144.05c8.48-.023 13.65-5.264 13.65-13.676l-.004-70.944zm-18.3 65.5c0 3.578-.25 3.83-3.823 3.83l-48.2.002c-15.988-.002-31.654.002-47.64-.003-3.188 0-2.97-.12-2.97-3.247V37.05c0-3.055-.054-3.34 2.972-3.34h96.007c3.408 0 3.74.43 3.74 3.92l-.083 59.456z"/><path d="M452.083 78.184l.006 44.432c.002 1.52-.2 2.918-1.08 4.25-2.262 3.477-5.833 3.896-8.86.86l-25.8-26.04c-1.446-1.48-2.886-2.094-4.938-2.05-6.006.124-12.018.046-18.026.044-4.4-.005-6.74-2.096-6.788-6.564l-.004-29.862c.05-4.933 2.4-7.106 7.27-7.117l18.74.03c1.547.018 2.63-.472 3.704-1.58l24.933-25.412c1.638-1.63 3.344-3.666 6.384-2.83 2.894.795 4.446 3.802 4.45 6.93l.006 44.9zm74.323-1c-.435 10.104-1.957 19.138-6.043 27.676-3.588 7.502-8.187 14.206-14.013 20.06-5.386 5.413-11.708 9.52-18.54 12.796-2.028.97-4.4 1.303-6.4-.407-3.573-3.042-3.03-6.52 1.584-9.05 3.484-1.914 7.003-3.748 10.234-6.06 8.596-6.146 14.582-14.343 18.412-24.172 2.955-7.575 4.4-15.505 3.724-23.576-.9-10.893-4.36-21-11.086-29.764-5.64-7.354-12.53-13.1-21.115-16.698-.212-.1-.403-.24-.6-.353-2.793-1.538-4.2-4.47-3.12-6.5 1.812-3.43 4.935-4.48 8.197-2.914 6.58 3.158 12.734 6.978 17.96 12.116 10.003 9.837 16.776 21.48 19.53 35.45.8 4.06.468 8.176 1.295 11.407zm-21.788 1.056c-.357 11.43-4.3 21.65-12.602 30.136-3.896 3.982-8.174 7.275-13.313 9.412-3.626 1.508-7.257-.126-8.095-3.918-.404-1.835.403-3.58 2.034-4.674 1.55-1.04 3.2-1.95 4.808-2.888 9.363-5.43 14.5-13.52 15.786-24.363 1.294-10.948-2.06-20.124-9.588-27.86-2.736-2.815-6.23-4.62-9.7-6.4-2.006-1.036-3.6-2.752-3.403-4.964.192-2.3 1.673-4.103 4.062-5 1.95-.74 3.522.115 5.1.875 10.693 5.165 17.8 13.657 22.188 24.593 1.88 4.703 2.552 9.673 2.715 15.07zm-21.865-.06c-.617 8.987-4.496 15.833-12.904 19.636-2.447 1.1-5.042.318-6.602-1.86-1.396-1.96-1.423-4.648.718-6.5 1.707-1.487 3.728-2.486 5.317-4.176 4.344-4.617 3.258-13.24-2.18-16.4-1.595-.926-3.203-1.873-4.177-3.625-1.058-1.9-.866-4.064.726-5.77 1.716-1.838 3.77-2.186 5.8-1.33 7.173 3.042 11.42 8.44 13.046 16.032.065.306.245.597.253.898.034 1.033.015 2.066.015 3.103z"/><path d="M500.35 50.05c-3.1-13.14-10.578-23.38-21.662-30.706-11.053-7.304-23.277-10.11-36.65-7.957-13.744 2.2-24.595 8.917-33.162 19.615-6.338 7.916-9.556 17.098-10.485 27.123-.864 9.337.77 18.14 5.593 26.292 3.055 5.167 6.68 9.897 10.48 14.525 4.708 5.73 9.913 11.307 8.106 19.735l.007 5.282c.18 7.886 5.6 13.998 13.257 14.96 1.44.184 2.537.752 3.618 1.85 5.993 6.07 15.188 6.067 21.188-.006 1.08-1.095 2.168-1.768 3.62-1.82 5.662-.218 11.39-5.406 12.682-11.354.875-4.034.596-8.064.5-12.085-.084-3.83 1.176-7.06 3.318-10.06 1.12-1.573 2.3-3.1 3.527-4.607 4.85-5.92 9.686-11.87 13.14-18.746 5.16-10.265 5.5-21.04 2.915-32.04zm-24.543 28.814c-3.197 3.852-6.375 7.726-9.25 11.837-2.66 3.8-4.576 7.918-5.563 12.41-.352 1.6-.98 1.895-2.44 1.83-2.81-.122-5.63-.035-8.445-.035-3 .002-5.984-.037-8.975.02-1.074.02-1.715-.03-1.99-1.375-1.508-7.362-5.653-13.328-10.302-19-3.282-4-6.622-7.97-9.247-12.475-3.15-5.406-4.348-11.027-3.52-17.372.977-7.503 3.673-13.98 8.692-19.592 4.858-5.435 10.902-8.796 17.953-10.277 8.374-1.758 16.413-.642 23.948 3.53 8.146 4.51 13.365 11.31 16.125 20.19 3.583 11.524.456 21.358-6.987 30.316z"/><path d="M496.252 64h-3.844c-1.933 0-3.407-1.925-3.407-3.857V12.058C489 10.6 487.56 11 486.1 11h-87.427c-1.448 0-3.684-.4-3.684 1.058v48.085c0 1.932-.33 3.857-2.26 3.857h-3.946c-1.78 0-2.794.438-2.794 1.42v48.926c0 16.9 13.27 30.652 30.17 30.652h52.457c16.9.002 30.383-13.75 30.383-30.65V65.42c0-.983-.968-1.42-2.748-1.42zM471 60.377c0 1.448-1.175 2.623-2.623 2.623h-52.754c-1.45 0-2.623-1.174-2.623-2.623V27.623c0-1.448 1.174-2.623 2.623-2.623h52.754c1.448 0 2.623 1.174 2.623 2.623v32.754zM436 35.85c0-1.448-1.466-2.85-2.916-2.85h-9.86c-1.45 0-2.225 1.4-2.225 2.85v9.862c0 1.448.775 2.288 2.225 2.288h9.86c1.45 0 2.916-.84 2.916-2.288V35.85zm27-.227c0-1.448-1.174-2.623-2.622-2.623h-9.756c-1.448 0-2.622 1.174-2.622 2.623v9.755c0 1.448 1.174 2.623 2.622 2.623h9.756c1.448 0 2.622-1.174 2.622-2.623v-9.755z"/><path d="M522 46.63c0-8.63-6.998-15.63-15.63-15.63H398.63C389.998 31 383 37.998 383 46.63v62.742c0 8.632 6.998 15.63 15.63 15.63h107.74c8.632 0 15.63-6.997 15.63-15.63V46.63zm-14 11.027c0 1.295-1.05 2.344-2.345 2.344h-8.31C496.05 60 495 58.95 495 57.656V47.344c0-1.295 1.05-2.344 2.345-2.344h8.31c1.295 0 2.345 1.05 2.345 2.344v10.312zm-23 0c0 1.295-1.05 2.344-2.345 2.344h-8.31C473.05 60 472 58.95 472 57.656V47.344c0-1.295 1.05-2.344 2.345-2.344h8.31c1.295 0 2.345 1.05 2.345 2.344v10.312zm-11 23.902c0 1.66-.432 3.442-2.065 3.442h-8.186c-1.634 0-3.75-1.782-3.75-3.442v-9.094c0-1.66 2.115-3.464 3.75-3.464h8.186c1.634 0 2.065 1.803 2.065 3.464v9.094zm-13-23.902c0 1.295-1.05 2.344-2.344 2.344h-8.313C449.05 60 448 58.95 448 57.656V47.344c0-1.295 1.05-2.344 2.344-2.344h8.313c1.294 0 2.344 1.05 2.344 2.344v10.312zm-14 23.998c0 1.296-.06 2.346-1.354 2.346h-8.313C436.04 84 434 82.95 434 81.654V71.346c0-1.295 2.04-2.346 3.334-2.346h8.313c1.294 0 1.354 1.05 1.354 2.346v10.308zm-11-23.85c0 1.294-.143 2.195-1.435 2.195h-9.08c-1.294 0-2.486-.9-2.486-2.195V47.67c0-1.294 1.192-2.67 2.486-2.67h9.08c1.292 0 1.435 1.375 1.435 2.67v10.136zm-24-.15c0 1.295-1.05 2.344-2.345 2.344h-8.31C400.05 60 399 58.95 399 57.656V47.344c0-1.295 1.05-2.344 2.345-2.344h8.31c1.295 0 2.345 1.05 2.345 2.344v10.312zm-1 50.1c0 1.444.192 3.244-1.263 3.244h-7.955c-1.454 0-3.782-1.8-3.782-3.244V97.732c0-1.445 2.328-1.732 3.782-1.732h7.955c1.455 0 1.263.287 1.263 1.732v10.024zm10-26.102c0 1.296-.06 2.346-1.354 2.346h-8.313C410.04 84 408 82.95 408 81.654V71.346c0-1.295 2.04-2.346 3.334-2.346h8.313c1.294 0 1.354 1.05 1.354 2.346v10.308zm67 26.753c0 1.432-.16 2.593-1.578 2.593H424.56c-1.42 0-3.56-1.16-3.56-2.593v-9.814c0-1.432 2.14-2.593 3.56-2.593h61.863c1.418 0 1.578 1.16 1.578 2.593v9.814zm9-26.753c0 1.296-1.05 2.346-2.345 2.346h-8.31C485.05 84 484 82.95 484 81.654V71.346c0-1.295 1.05-2.346 2.345-2.346h8.31c1.295 0 2.345 1.05 2.345 2.346v10.308zm12 25.913c0 1.297-.083 3.433-1.377 3.433h-9.078c-1.293 0-3.545-2.136-3.545-3.433v-10.13c0-1.296 2.252-1.436 3.545-1.436h9.078c1.294 0 1.377.14 1.377 1.436v10.13z"/><path d="M535.742 74.74c-4.95-10.532-11.673-19.665-20.607-27.18-5.42-4.556-11.277-8.338-17.73-11.23-9.72-4.357-19.917-6.442-31.847-6.6-2.7-.38-6.646.315-10.5.957-4.813.798-9.574 2.026-14.208 3.733-8.628 3.18-16.392 7.812-23.243 13.846-5.53 4.874-10.47 10.35-14.35 16.714-2.444 4.005-4.624 8.124-6.438 12.445-.174.416-.24.697-.033 1.137.993 2.105 1.78 4.318 2.916 6.342 2.996 5.357 6.297 10.485 10.343 15.184 4.3 4.987 9.2 9.155 14.48 12.986 5.763 4.2 12.144 7.18 18.862 9.418 3.702 1.234 7.524 2.072 11.393 2.73 2.4.407 4.84.316 7.185.735 4.73.848 9.406.16 14.035-.26 4.552-.412 9.06-1.575 13.473-3 5.7-1.83 11.14-4.173 16.215-7.323 3.738-2.32 7.134-5.098 10.56-7.864 3.72-3.005 6.863-6.505 9.76-10.18 3.86-4.9 7.023-10.278 9.66-16.006 1.126-2.455 1.174-4.285.086-6.6zm-68.993 32.875c-17.356.17-29.034-13.37-29.465-28.257-.546-18.815 13.283-31.105 29.895-30.958 16.444.148 29.393 12.72 29.226 30.002-.16 16.236-12.705 29.504-29.656 29.213zm-.014-10.258c-10.892.176-19.84-9.072-19.7-19.484.148-11.524 8.463-19.787 19.73-19.87 10.872-.08 19.592 7.76 19.9 19.54.267 10.57-8.422 19.974-19.9 19.816z"/><path d="M449.938 125.173c-14.28 0-28.56.043-42.836-.03-4.03-.02-7.648-1.198-10.32-4.573-4.004-5.062-1.9-12.814 4.23-15.115 1-.374 2.1-.982 3.063-.85 2.627.364 2.828-.908 2.8-3.04l.008-34.173c.068-5.15.63-10.287 2.287-15.244 2.803-8.384 8.074-14.915 14.855-20.42 4.307-3.5 9.195-5.743 14.443-7.292 1.6-.473 1.08-1.68 1.117-2.662.146-3.997 1.484-7.34 5-9.565 4.957-3.13 12.245-1.378 14.706 4.64.732 1.8 1.238 3.646.998 5.627-.14 1.167.3 1.636 1.58 2.032 10.224 3.196 18.322 9.25 24.22 18.267 4.045 6.2 6.084 12.9 6.56 20.28.842 13.004.173 26.014.356 39.02.024 1.835.308 2.52 2.37 2.527 4.854.013 9.364 4.462 9.847 9.336.453 4.632-3.24 9.43-8.345 10.703a18.52 18.52 0 0 1-4.577.558l-42.37-.027zm.117 20.147c-5.877-.1-12.47-4.648-13.816-10.807-1.145-5.22-1.303-5.186 3.934-5.186l22.188-.03c1.643-.015 2.347.57 2.113 2.18-1.103 7.63-6.315 13.277-14.42 13.843z"/><path d="M466.084 18.842c8.502 8.288 8.93 19.387 6.014 28.44-.834 2.6-3.432 2.044-5.45 1.847-1.88-.185-2.496-1.754-2.773-3.448-.416-2.518 1.113-4.632 1.4-7.018.557-4.467-.777-8.518-3.334-11.872-3.96-5.2-9.234-8.43-16.143-7.808-3.473.312-6.58 1.488-9.42 3.7-3.535 2.74-6.14 6.007-7.332 10.314-.8 2.9-.8 5.813.053 8.724.305 1.044.602 2.07.74 3.195.285 2.366-.83 3.8-2.7 4.528-2.22.873-4.77-.396-5.604-2.63-2.62-7.04-2.307-13.858.926-20.78 3.9-8.327 10.4-12.978 19.096-14.7 9.42-1.866 17.66.734 24.515 7.52zM494.8 67.62c-1.244.338-2.2.062-2.822-1.34-2.416-5.347-8.232-8.715-13.63-7.15-1.127.327-1.803.2-2.547-1.1-2.896-5.004-7.2-7.972-13.2-7.028-2.424.38-2.48-.514-2.492-2.3-.025-4.03.318-8.073-.342-12.083-1.115-6.768-6.48-11.542-14.445-10.765-6.125.597-10.8 5.23-10.78 12.183l.02 51.127c0 .674.102 1.375-.05 2.017-.135.566-.502 1.087-1.273.523-4.365-3.184-8.996-6.058-13.055-9.594-5.6-4.883-14.705-6.03-20.58-1.114-4.512 3.773-4.56 11.66-1.037 15.03 7.13 6.824 14.006 13.916 20.988 20.896l20.824 20.7c3.982 3.77 9.03 5.83 14.438 6.9 6 1.187 12.064.58 18.1.692 6.17.113 12.004-1.1 17.623-3.873 7.37-3.62 12.193-9.307 15.135-16.817 1.697-4.33 2.285-8.823 2.498-13.446l1.723-31.325c.343-7.008-6.614-14.434-15.106-12.125zm2.988 16c-.568 10.075-.33 20.212-1.602 30.24-1.002 7.92-5.543 13.506-12.484 17.267-3.28 1.775-6.752 2.708-10.494 2.6-5.313-.168-10.637.334-15.938-.328-3.492-.438-6.584-1.812-9.318-3.992-7.44-5.94-13.506-13.3-19.195-18.52L410.3 92.4c-1.746-1.753-1.48-3.026.88-3.833 1.8-.615 3.496-.486 5.2.752 4.732 3.457 9.592 6.735 14.377 10.118 2.053 1.45 4.086 2.937 6.05 4.503 1.777 1.417 3.717 1.85 5.766.978 1.848-.783 1.605-2.598 1.605-4.204l-.014-58.877c-.002-1.725.4-3.133 1.732-4.296 2.1-1.812 4.744-.945 5.418 1.773.25 1 .28 1.964.28 2.962l-.014 39.178c-.006 1.574.186 3.1 1.424 4.132 2.52 2.118 5.906.927 6.32-2.376.662-5.205.252-10.473.2-15.708-.014-2.088 1.27-3.12 2.64-4.003 1.47-.947 3.813.214 4.355 2.05.336 1.158.488 2.42.445 3.626-.156 4.43-.14 8.858.36 13.27.367 3.213 3.414 4.843 6.28 3.354.635-.33.912-.9 1.096-1.644.648-2.662.484-5.37.5-8.053.01-.846.06-1.672.27-2.452.537-1.978 1.984-2.93 3.967-2.74 1.967.197 2.885 1.515 2.975 3.465.135 2.92-.346 5.854.287 8.75.486 2.237 1.738 3.18 4.033 3.162 2.28-.016 3.283-1.37 3.637-3.362.637-3.576 1.648-4.864 3.855-4.737 2.423.156 3.753 1.92 3.556 5.422z"/><path d="M434.428 17.746c.027-1.758-.646-2.98-2.07-3.736-.604-.35-1.33-.6-2.188-.773l-1.38-.24-5.846-1.157-5.113-1.024c-.824-.168-1.6-.168-2.287-.047-.152.024-.293.063-.44.1l-.3.082c-1.475.474-2.514 1.634-2.8 3.26-.45 2.576 1.152 4.676 3.97 5.22l2.42.574c-12.213 7.463-19.75 17.852-22.355 31.858-.705-.524-1.14-1.137-1.652-1.676-2.06-2.182-4.6-2.446-6.486-.705-1.996 1.85-1.96 4.483.074 6.7l8.52 9.325c2.32 2.558 4.557 2.755 7.135.45l9.7-8.884c1.973-1.803 2.256-4.36.676-6.235-1.594-1.9-4.4-2.036-6.42-.333l-2.34 1.975c1.32-10.862 10.066-21.416 18.156-24.876l.06.712-.357 2.23c-.414 2.606 1.16 4.937 3.602 5.322 2.424.384 4.465-1.18 4.992-3.796l.252-1.25c.877-3.87 1.64-7.77 2.363-11.673a7.75 7.75 0 0 0 .115-1.406zM420.4 30.5l.05-.056-.053.048.004.008zm78.026 36.9c-1.25.34-2.198.06-2.832-1.346-2.423-5.365-8.26-8.743-13.677-7.174-1.13.33-1.808.2-2.555-1.1-2.907-5.022-7.226-8-13.238-7.052-2.433.38-2.488-.517-2.5-2.3-.024-4.044.316-8.102-.345-12.125-1.115-6.8-6.5-11.58-14.495-10.8-6.146.6-10.846 5.248-10.818 12.226l.02 51.303c0 .677.098 1.38-.05 2.023-.135.57-.504 1.093-1.275.527-4.38-3.195-9.03-6.08-13.102-9.628-5.63-4.903-14.756-6.05-20.65-1.12-4.527 3.788-4.574 11.7-1.04 15.082 7.154 6.848 14.053 13.963 21.057 20.967l20.897 20.766c3.998 3.78 9.062 5.847 14.5 6.922 6.02 1.2 12.104.58 18.164.694 6.2.116 12.045-1.112 17.68-3.885 7.395-3.634 12.237-9.34 15.188-16.875 1.704-4.346 2.294-8.854 2.507-13.494l1.73-31.434c.345-7.03-6.636-14.483-15.156-12.165zm2.998 16.055c-.57 10.1-.332 20.278-1.606 30.345-1.007 7.946-5.563 13.553-12.528 17.325-3.293 1.78-6.772 2.72-10.53 2.6-5.328-.17-10.672.335-16-.328-3.507-.442-6.6-1.82-9.352-4.008-7.468-5.962-13.554-13.354-19.26-18.583l-18.52-18.53c-1.752-1.757-1.486-3.036.883-3.845 1.816-.617 3.508-.488 5.205.754 4.75 3.467 9.625 6.76 14.428 10.153 2.06 1.453 4.098 2.945 6.07 4.52 1.785 1.423 3.73 1.854 5.787.98 1.855-.786 1.6-2.6 1.6-4.218l-.014-59.082c-.004-1.73.4-3.143 1.74-4.3 2.106-1.82 4.758-.95 5.436 1.777.252.994.283 1.972.283 2.973l-.017 39.314c-.005 1.578.185 3.1 1.43 4.146 2.53 2.124 5.928.93 6.344-2.385.66-5.223.25-10.5.213-15.762-.014-2.096 1.27-3.132 2.646-4.017 1.476-.95 3.828.215 4.37 2.058.338 1.162.5 2.428.448 3.64-.157 4.446-.14 8.888.357 13.314.368 3.225 3.428 4.86 6.3 3.37.642-.333.918-.895 1.102-1.65.653-2.672.487-5.388.5-8.082.01-.85.062-1.677.272-2.46.54-1.985 2-2.942 3.98-2.75 1.975.2 2.896 1.52 2.985 3.477.134 2.932-.348 5.875.286 8.78.5 2.246 1.747 3.193 4.05 3.175 2.285-.018 3.293-1.376 3.65-3.374.64-3.6 1.655-4.884 3.868-4.754 2.43.153 3.766 1.927 3.568 5.44z"/><path d="M500.754 43.452l-29.696-29.73c-2.003-2.007-4.38-3-7.215-3.008-19.766.008-39.53.054-59.296-.032-4.567-.02-7.917 3.24-7.9 7.827l.082 119.06c.001 5.145 2.645 7.744 7.865 7.745l91.28-.002c4.68-.003 7.438-2.77 7.44-7.467l.04-88.243c.005-2.528-.94-4.485-2.6-6.152zm-35.386-14.326c.68-.406 1.113.275 1.546.705l17.312 17.313c.376.376.93.73.742 1.35-.26.856-1.047.467-1.6.476l-8.396.018c-2.798 0-5.598-.046-8.394.02-1.362.032-1.577-.335-1.444-1.752.52-5.477.452-10.977.037-16.466-.044-.6-.442-1.288.187-1.664zm20.98 102.095c-24.205-.048-48.412-.054-72.62.01-2.012.006-2.482-.678-2.477-2.565L411.286 78l-.05-50.436c-.012-2.04.66-2.37 2.503-2.358l34.8-.002c1.887-.014 2.5.4 2.472 2.393l-.015 24.983c.052 3.743 1.095 7.264 4.82 9.03 1.893.9 3.993 1.473 6.175 1.47l24.75-.043c1.656-.018 2.063.464 2.06 2.087l.002 63.744c.005 1.9-.652 2.36-2.445 2.356zm-39.155-46.47c-8.5 0-16.982-.013-25.475.005-3.318.007-6.014-.887-5.5-5.493.1-.904.014-1.834.014-2.752.004-3.5 1.578-5.102 5.092-5.108l51.18-.003c3.827.004 5.367 1.534 5.37 5.3l-.001 2.983c-.001 3.826-1.27 5.065-5.204 5.066l-25.475.003zm-12.513 24.48c-5.068 0-10.135-.01-15.205.006-1.98.008-3.588-.888-3.28-5.494.06-.905.008-1.835.008-2.752.002-3.5.94-5.104 3.04-5.1l30.545-.003c2.285.003 3.204 1.535 3.205 5.302l-.001 2.98c0 3.828-.756 5.066-3.106 5.068l-15.204.001zm-492-34.17c-.55-12.13-11.343-22.236-22.947-22.946L-57.3 75.06zm-40.76-16.035c-4.688 4.428-7.734 10.547-7.365 17.1-.008 13.63 10.52 24.185 24.108 24.172 6.7-.006 12.786-2.845 17.16-7.367L-98.07 59.025zm9.284-13.273a37.69 37.69 0 0 1 12.814-1.494c15.753.87 35.782 15.838 34.3 39.394-.166 2.628-.663 5.24-1.435 7.78l31.805 31.805c1.72-2.757 2.738-5.947 2.752-9.292l-.063-65.695c-.1-7.902-4.267-13.686-11.638-17.035-4.4-1.995-9-1.47-13.55-1.544-3.154-.05-6.932 1.034-9.287-.34-2.487-1.452-2.645-5.624-3.812-8.6-2.25-5.76-7.543-7.913-13.762-7.92h-35.424c-6.397.002-11.46 1.817-13.87 7.72l-1.177 2.9 22.348 22.344zm36.44 61.168c-6.676 6.827-15.942 11.24-26.343 10.815-18.473.792-36.824-15.194-36.734-36.955.042-9.886 4.242-19.125 11.087-25.85l-25.278-25.278c-10.5.035-18.845 9.642-18.7 19.027l.1 64.88c.001 1.612-.014 3.216.47 4.813 2.606 8.602 9.905 14.076 18.916 14.08l101.404-.012c.192-.001.386-.01.578-.018l-25.5-25.503z"/><path d="M-154.337 13.6l9.273-9.273 134.768 134.768-9.273 9.273z"/></g><path d="M-82.18 52.116l53.957-.056c2.624-.007 3.376.67 3.358 3.135v54.235l15.153 15.152a12.67 12.67 0 0 0 1.158-5.416l.002-93.403c.055-7.097-5.9-13.502-13.542-13.38l-99.7.128L-82.2 52.116zm35.45 60.178c-10.615-.012-21.23.004-31.846.004-16.78-.002-33.565-.054-50.347.06-2.487.016-3.216-.55-3.203-2.923l.005-54.388c-.01-2.327.684-2.992 3.198-2.987l21.984.025-36.62-36.62c-3.007 2.5-4.904 6.3-4.873 10.34l-.001 93.112c-.076 8.433 7.3 13.7 13.7 13.7l108.308-.02-20.294-20.293z" fill="#fefefe"/><g fill="#fff"><path d="M-154.24 13.474l9.27-9.275 134.806 134.75-9.27 9.275zm47.538 14.51l75.646-.001c3.412 0 3.82.43 3.82 3.923l-.002 59.857c0 3.58-.25 4.237-3.822 4.237h-8.435l15.297 14.9c.533 0 1.064-.203 1.604-.205 8.48-.025 13.65-5.364 13.65-13.778L-8.95 25.9c-.005-7.62-5.097-12.73-12.7-12.733l-57.407-.013c-14.16 0-28.317-.01-42.475-.005l14.83 14.823z"/><path d="M-45.91 120.57l-19.968.038c-5.736-.004-5.592-1.55-5.803-7.258-.09-2.426.57-2.938 2.943-2.92 6.917.053 13.41.482 19.84.5L-64.22 96h-15.04c-15.99 0-31.98-.403-47.968-.407-3.186 0-3.294-.32-3.294-3.448l.002-60.72c0-1.035.034-1.794.192-2.3l-13.72-13.748c-2.85 1.986-4.718 5.125-4.73 8.725l-.032 74.993c0 2.742 1.082 5.028 2.875 7.08 2.923 3.35 6.79 4.282 10.95 4.296l42.622.02c6.29-.003 6.188 0 6.274 6.33.026 2.047-.724 3.853-2.482 3.83l-23.488-.028c-1.163.002-2.515-.163-3.12 1.114-1.09 2.302-.933 6.347-.18 8.623.658 1.986 2.76 1.633 4.468 1.633l65.18.003c2.163-.06 3.348-1.108 3.293-3.368-.024-.986-.076-3.536.01-4.52.226-2.596-.983-3.578-3.505-3.548z"/><path d="M-154.617 13.456l9.274-9.274L-10.576 138.95l-9.274 9.274zm86.763 49.924c2.772 1.6 4.406 4.64 4.773 7.835l9.286 9.285c.88-2.374 1.397-4.986 1.6-7.813l-.012-3.1c-.012-.3-.2-.6-.255-.898-1.626-7.593-5.873-13-13.046-16.03-2.02-.858-4.074-.5-5.8 1.33-1.592 1.706-1.785 3.86-.727 5.77.974 1.752 2.583 2.7 4.18 3.625z"/><path d="M-72.56 86.465c-.327 1.37.01 2.815.85 3.996 1.305 1.826 3.332 2.658 5.4 2.24l-6.24-6.237zm11.562-44.28c3.463 1.787 6.954 3.594 9.7 6.4 7.528 7.737 10.88 16.913 9.587 27.858-.545 4.617-1.798 8.73-3.77 12.353l7.738 7.737c4.78-7.074 7.144-15.08 7.414-23.792-.162-5.397-.834-10.37-2.716-15.07-4.377-10.938-11.495-19.43-22.2-24.594-1.574-.76-3.146-1.615-5.1-.874-2.4.906-3.868 2.716-4.06 5.008-.186 2.212 1.4 3.93 3.406 4.965zm3.048 58.89l-4.365 2.632c-1.63 1.1-2.438 2.837-2.034 4.67.837 3.795 4.47 5.426 8.095 3.918 2.205-.916 4.242-2.055 6.168-3.358l-7.864-7.863zm5.54-78.93c.206.113.396.263.6.354 8.583 3.586 15.476 9.342 21.115 16.696C-23.96 47.97-20.5 58.068-19.6 68.962c.666 8.07-.77 16-3.722 23.575-1.694 4.348-3.813 8.376-6.4 12.047l7.472 7.47c2.944-3.93 5.483-8.16 7.646-12.682 4.087-8.54 5.608-17.575 6.043-27.678-.827-3.23-.492-7.347-1.294-11.407-2.754-13.968-9.526-25.612-19.53-35.448-5.224-5.14-11.38-8.958-17.96-12.117-3.262-1.565-6.384-.516-8.198 2.914-1.077 2.04.33 4.973 3.123 6.5zm10.327 94.794c-3.138 2.198-6.526 3.98-9.9 5.827-4.612 2.53-5.154 6.005-1.583 9.05 2 1.7 4.382 1.378 6.4.407 4.486-2.15 8.75-4.672 12.674-7.675l-7.6-7.6zm-40.794-65.522l-.003-23.626c-.004-3.128-1.558-6.137-4.45-6.93-3.04-.835-4.746 1.202-6.383 2.83l-8.417 8.472 19.254 19.254zm-31.473-6.746l-4.298 4.43c-1.074 1.107-2.158 1.597-3.704 1.58l-18.738-.027c-4.87.01-7.223 2.183-7.27 7.116l.003 29.86c.047 4.47 2.377 6.562 6.788 6.565l18.026-.044c2.052-.042 3.5.57 4.937 2.05l25.8 26.04c3.027 3.036 6.597 2.62 8.86-.858.87-1.332 1.08-2.728 1.08-4.25l-.007-40.982-31.477-31.48z"/><path d="M-154.238 13.474l9.27-9.276L-10.16 138.93l-9.27 9.276zM-103.2 30.27l.252-.294c4.86-5.435 10.903-8.796 17.95-10.275 8.376-1.76 16.416-.642 23.95 3.53 8.145 4.5 13.366 11.3 16.128 20.2 3.58 11.523.453 21.357-7 30.317l-3.52 4.302 14.547 14.55c3.962-4.916 7.752-9.955 10.6-15.627 5.16-10.267 5.5-21.04 2.915-32.04-3.1-13.137-10.578-23.38-21.66-30.705C-60.1 6.925-72.326 4.128-85.7 6.268c-11.02 1.774-20.177 6.445-27.8 13.74l10.27 10.274z"/><path d="M-50.146 108.06l-15.062-15.057a32.31 32.31 0 0 0-1.523 4.979c-.352 1.6-.98 1.895-2.44 1.83l-8.45-.034c-3 .003-5.983-.037-8.974.02-1.074.02-1.713-.03-2-1.377-1.506-7.36-5.652-13.326-10.3-19.007-3.282-4.012-6.623-7.972-9.247-12.476-3.15-5.405-4.348-11.026-3.52-17.372.115-.88.255-1.744.417-2.595l-12.882-12.87c-2.934 5.84-4.594 12.184-5.218 18.908-.866 9.336.772 18.14 5.592 26.292 3.055 5.168 6.68 9.898 10.48 14.525 4.708 5.73 9.913 11.305 8.107 19.734l.005 5.284c.182 7.886 5.6 13.997 13.258 14.96 1.44.183 2.537.75 3.62 1.848 5.994 6.07 15.184 6.067 21.185-.005 1.083-1.097 2.17-1.77 3.622-1.822 5.662-.218 11.4-5.405 12.683-11.352.873-4.035.595-8.066.507-12.086-.02-.798.036-1.563.13-2.314zM-57 29.623A2.62 2.62 0 0 0-59.622 27h-9.756C-70.826 27-72 28.174-72 29.623v9.755C-72 40.826-70.826 42-69.378 42h9.756C-58.174 42-57 40.826-57 39.377v-9.754z"/><path d="M-108 26.223V22.66c0-1.448 1.917-2.66 3.367-2.66h54.205C-48.98 20-48 21.213-48 22.66v34.096c0 1.45-.98 1.243-2.43 1.243H-74.1l53.135 53.97c.068-.845-.034-1.013-.034-1.883V61.16c0-.983-.605-3.16-2.388-3.16h-3.844c-1.933 0-2.77-.185-2.77-2.117V7.798C-30 6.35-32.077 6-33.527 6h-87.427C-122.4 6-125 6.35-125 7.798V9.6l17 16.612zM-98.828 58h-5.806c-1.45 0-3.367.206-3.367-1.243v-5.805l-17-16.612v21.544c0 1.932.033 2.117-1.9 2.117h-3.945c-1.78 0-4.156 2.178-4.156 3.16v48.926c0 16.9 14.632 29.912 31.532 29.912h52.454c9.13 0 17.238-4.53 22.765-10.64L-98.828 58z"/><path d="M-92.46 40h5.3c1.45 0 1.15-.153 1.15-1.602v-8.743c0-1.447.3-2.655-1.148-2.655h-8.743c-1.448 0-5.1 1.208-5.1 2.655v5.3L-92.46 40zm34.625 68h-54.43c-1.295 0-3.736-1.372-3.736-2.667v-9.3c0-1.293 2.44-1.032 3.736-1.032h40.442L-89 78.88v1.1c0 1.294 1.318 4.02.023 4.02h-8.425c-1.295 0-3.6-2.726-3.6-4.02v-9.3c0-1.293 2.304-3.68 3.6-3.68h.225l-10.5-9h-1.974c-1.294 0-2.358-1.205-2.358-2.5v-1.974l-24.822-24.493c-8.267.4-15.178 7.22-15.178 15.6v63.16c0 8.635 7.67 16.217 16.3 16.217h93.602l-15.738-16zM-123 55.656c0 1.295-1.05 2.344-2.345 2.344h-8.3c-1.295 0-2.345-1.05-2.345-2.344V45.344c0-1.295 1.05-2.344 2.345-2.344h8.3c1.295 0 2.345 1.05 2.345 2.344v10.312zm0 51.998c0 1.296-1.05 2.346-2.345 2.346h-8.3c-1.295 0-2.345-1.05-2.345-2.346V97.346c0-1.296 1.05-2.346 2.345-2.346h8.3c1.295 0 2.345 1.05 2.345 2.346v10.308zm10-28c0 1.296-1.05 2.346-2.344 2.346h-8.312c-1.295 0-2.344-1.05-2.344-2.346V69.346c0-1.295 1.05-2.346 2.344-2.346h8.312c1.295 0 2.344 1.05 2.344 2.346v10.308z"/><path d="M-89 53.278V46.2c0-1.295 2.543-3.2 3.838-3.2h8.424C-75.44 43-74 44.905-74 46.2v9.3c0 1.296-1.44 2.5-2.737 2.5h-6.203l10.527 9.783c.12-.02.24-.783.365-.783h8.424C-62.328 67-62 69.386-62 70.68v8.826l24 22.732v-6.205c0-1.293.503-1.032 1.796-1.032h8.427C-26.48 95-25 94.74-25 96.032v9.3c0 1.295-1.48 2.667-2.777 2.667h-5.33l13.435 13.55c4.746-2.687 7.673-7.928 7.673-13.768v-63.16C-12 35.99-18.443 30-27.075 30h-84.716L-89 53.278zm63 2.378C-26 56.95-27.05 58-28.345 58h-8.31C-37.95 58-39 56.95-39 55.656V45.344C-39 44.05-37.95 43-36.655 43h8.31C-27.05 43-26 44.05-26 45.344v10.312zm-11 23.998C-37 80.95-38.05 82-39.345 82h-8.31C-48.95 82-50 80.95-50 79.654V69.346C-50 68.05-48.95 67-47.655 67h8.31C-38.05 67-37 68.05-37 69.346v10.308zm-14-23.998C-51 56.95-52.05 58-53.345 58h-8.31C-62.95 58-64 56.95-64 55.656V45.344C-64 44.05-62.95 43-61.655 43h8.31C-52.05 43-51 44.05-51 45.344v10.312z"/><path d="M-61.828 79.58a18.83 18.83 0 0 0 .248-3.516c-.3-11.776-9.017-19.618-19.888-19.538-1.08.008-2.124.114-3.146.268l22.786 22.786zM-99.02 67.116c-1.352 2.72-2.133 5.85-2.177 9.282-.132 10.4 8.817 19.658 19.708 19.48 3.338.046 6.436-.72 9.15-2.082l-26.68-26.68zm34.772 33.88c-4.694 3.14-10.425 4.93-16.772 4.822-17.358.172-29.037-13.37-29.468-28.256-.204-7.016 1.595-13.122 4.788-18.02l-18.08-18.08a73.81 73.81 0 0 0-6.393 5.016c-5.53 4.873-10.47 10.35-14.35 16.713-2.443 4.005-4.623 8.125-6.438 12.445-.173.415-.24.697-.032 1.137.993 2.104 1.78 4.318 2.914 6.343 3 5.355 6.3 10.482 10.344 15.18 4.293 4.987 9.2 9.157 14.48 13 5.762 4.187 12.142 7.18 18.862 9.417 3.702 1.233 7.523 2.072 11.393 2.73 2.4.407 4.84.32 7.186.736 4.727.847 9.404.162 14.034-.258 4.55-.415 9.06-1.576 13.473-2.993 3.445-1.104 6.795-2.405 10.03-3.95L-64.247 101zm-27.687-52.414c3.514-1.322 7.346-2.013 11.344-1.978 16.442.148 29.392 12.72 29.225 30.003a30.68 30.68 0 0 1-1.975 10.568l20.004 20.004 1.802-1.454c3.72-3 6.865-6.502 9.76-10.177 3.86-4.9 7.025-10.28 9.66-16.005 1.127-2.453 1.176-4.287.088-6.602-4.947-10.53-11.67-19.663-20.608-27.18-5.417-4.556-11.275-8.338-17.73-11.23-9.72-4.357-19.915-6.442-31.847-6.6-2.7-.38-6.647.314-10.5.956-4.812.797-9.573 2.025-14.207 3.733-.23.084-.454.183-.685.27l15.68 15.683z"/><path d="M-77.623 140.112c-5.875-.1-12.47-4.646-13.817-10.806-1.143-5.224-1.303-5.188 3.934-5.188l22.188-.03c1.64-.012 2.345.57 2.114 2.18-1.105 7.628-6.314 13.275-14.42 13.842zm55.04-29.214a8.26 8.26 0 0 0 .132-2.409c-.48-4.874-5-9.324-9.846-9.336-2.063-.007-2.344-.7-2.368-2.528-.184-13.007.486-26.014-.356-39.02-.475-7.37-2.514-14.1-6.56-20.28-5.896-9.02-13.995-15.07-24.22-18.267-1.27-.396-1.72-.864-1.58-2.033.24-1.98-.265-3.837-.998-5.626-2.46-6.02-9.75-7.77-14.705-4.64-3.517 2.222-4.853 5.567-5 9.563-.035.984.494 2.2-1.117 2.663-5.248 1.55-10.135 3.8-14.444 7.3-.657.534-1.295 1.08-1.922 1.633l82.985 82.987z"/><path d="M-116.457 41.75c-.778 1.578-1.465 3.22-2.042 4.948-1.658 4.957-2.22 10.094-2.3 15.244l-.007 34.173c.02 2.134-.183 3.405-2.8 3.042-.964-.132-2.062.476-3.06.85-6.123 2.3-8.236 10.053-4.232 15.114 2.67 3.376 6.287 4.556 10.32 4.576l82.115.048-77.996-77.994zm14.263-10.463c.03-1.315.22-2.628.582-3.935 1.2-4.307 3.8-7.573 7.333-10.313 2.84-2.203 5.947-3.378 9.417-3.7 6.9-.623 12.183 2.618 16.144 7.808 2.56 3.354 3.892 7.405 3.334 11.872-.297 2.387-1.824 4.5-1.4 7.018.28 1.694.893 3.263 2.772 3.447 2.02.198 4.615.753 5.45-1.846 2.917-9.052 2.488-20.15-6.015-28.44-6.85-6.785-15.1-9.385-24.513-7.52-8.693 1.72-15.207 6.372-19.095 14.7-.548 1.173-1.005 2.343-1.384 3.5l7.385 7.388z"/><path d="M-39.086 119.12c-2.058 2.52-4.717 4.62-7.882 6.336-3.28 1.773-6.75 2.706-10.494 2.6-5.3-.168-10.636.335-15.936-.33-3.494-.438-6.586-1.8-9.32-3.992-7.442-5.94-13.506-13.3-19.195-18.518l-18.458-18.47c-1.747-1.75-1.48-3.025.88-3.834 1.8-.612 3.496-.483 5.188.754 4.732 3.456 9.593 6.734 14.378 10.12 2.052 1.448 4.085 2.936 6.05 4.5 1.778 1.42 3.716 1.85 5.767.98 1.85-.785 1.605-2.6 1.606-4.206l.007-23.34-9.592-9.592-.012 21.37c0 .677.1 1.377-.052 2.018-.132.566-.5 1.1-1.27.524-4.364-3.184-8.997-6.058-13.055-9.594-5.608-4.885-14.705-6.03-20.58-1.115-4.513 3.774-4.56 11.66-1.038 15.03 7.13 6.824 14.005 13.914 20.985 20.894l20.826 20.694c3.983 3.768 9.028 5.828 14.44 6.898 6 1.188 12.063.58 18.1.693 6.168.114 12.004-1.1 17.622-3.87 4-1.972 7.26-4.558 9.868-7.7l-8.83-8.832zm-47.416-72.14l-.015-10.804c-.003-1.725.4-3.133 1.734-4.296 2.1-1.812 4.74-.945 5.418 1.773.25 1 .28 1.964.28 2.962l.003 17.784 7.944 7.945-.01-.503c-.013-2.088 1.27-3.12 2.64-4.003 1.47-.948 3.814.213 4.357 2.05.336 1.16.488 2.42.444 3.626a117.44 117.44 0 0 0-.067 6.195l7.97 7.97c.444-2.4.32-4.827.344-7.237.007-.847.056-1.672.27-2.45.538-1.98 1.982-2.932 3.968-2.74 1.967.198 2.885 1.516 2.972 3.465.135 2.92-.344 5.855.287 8.75.487 2.24 1.74 3.184 4.036 3.166 2.276-.017 3.28-1.373 3.635-3.365.64-3.574 1.648-4.866 3.857-4.736 2.42.15 3.75 1.92 3.554 5.418-.4 7.258-.407 14.55-.846 21.806l10.8 10.8c.227-1.7.358-3.42.438-5.155l1.724-31.323c.343-7-6.613-14.437-15.104-12.127-1.245.34-2.2.062-2.822-1.34-2.416-5.347-8.232-8.714-13.628-7.15-1.127.327-1.805.2-2.547-1.1-2.898-5.005-7.202-7.972-13.193-7.028-2.425.38-2.48-.513-2.5-2.3-.025-4.03.314-8.074-.343-12.084-1.115-6.767-6.48-11.542-14.445-10.765-6.126.598-10.8 5.23-10.783 12.184l.007 5 9.6 9.6zM-111.7 13.702l2.42.574a56.26 56.26 0 0 0-5.828 4.084l6.214 6.215c1.53-1.123 3.1-2.04 4.63-2.7l.058.712-.357 2.23c-.416 2.607 1.16 4.937 3.6 5.323 2.424.383 4.464-1.18 5-3.796l.254-1.248c.876-3.872 1.642-7.77 2.36-11.673a7.24 7.24 0 0 0 .118-1.405c.026-1.758-.646-2.98-2.068-3.736-.605-.35-1.33-.6-2.2-.774l-1.38-.242-5.844-1.157-5.115-1.024c-.825-.167-1.6-.168-2.286-.046-.153.023-.295.063-.44.1-.103.028-.208.048-.308.082-1.476.475-2.514 1.634-2.8 3.26-.45 2.573 1.153 4.675 3.97 5.218zm-8.38 31.075l-2.342 1.976c.353-2.894 1.242-5.76 2.496-8.484l-6.598-6.598c-2.4 4.324-4.12 9.128-5.1 14.463-.708-.525-1.14-1.138-1.65-1.678-2.063-2.182-4.6-2.445-6.488-.705-1.996 1.85-1.96 4.482.076 6.7l8.52 9.325c2.32 2.558 4.554 2.756 7.134.45l9.707-8.884c1.972-1.804 2.255-4.36.675-6.235-1.595-1.888-4.402-2.034-6.42-.332z"/><path d="M-80.063 53.415l-.02-17.595c-.003-1.732.4-3.144 1.74-4.3 2.1-1.82 4.76-.95 5.438 1.778.252.993.28 1.97.28 2.972l.002 24.598 8.114 8.114-.148-7.4c-.014-2.095 1.272-3.13 2.647-4.016 1.475-.95 3.828.214 4.37 2.06.338 1.162.5 2.427.448 3.64-.157 4.445-.14 8.887.36 13.315.004.033.01.063.016.098l3.8 3.8c.795.054 1.64-.107 2.472-.54.642-.33.917-.892 1.103-1.648.65-2.67.486-5.388.512-8.08.008-.85.058-1.678.27-2.46.54-1.986 2-2.942 3.98-2.75 1.976.2 2.896 1.52 2.988 3.477.132 2.933-.348 5.874.285 8.78.5 2.245 1.746 3.2 4.05 3.174 2.283-.018 3.292-1.376 3.648-3.374.637-3.588 1.654-4.882 3.87-4.753 2.43.153 3.766 1.927 3.563 5.438-.526 9.367-.376 18.78-1.362 28.116l10.2 10.198c1.007-3.498 1.424-7.092 1.592-10.77l1.73-31.433c.343-7.03-6.64-14.484-15.157-12.167-1.25.34-2.196.06-2.833-1.346-2.424-5.365-8.26-8.743-13.676-7.174-1.13.33-1.807.2-2.554-1.1-2.908-5.022-7.228-8-13.238-7.053-2.433.38-2.5-.516-2.5-2.3-.023-4.045.318-8.102-.344-12.126-1.116-6.8-6.5-11.58-14.493-10.8-6.147.6-10.85 5.247-10.82 12.225l.016 11.78 9.64 9.638zm44.23 68.96c-1.375 1.12-2.898 2.13-4.564 3.03-3.293 1.78-6.774 2.72-10.53 2.6-5.33-.166-10.67.337-16-.327-3.506-.442-6.606-1.818-9.35-4-7.467-5.962-13.553-13.353-19.26-18.58l-18.522-18.53c-1.752-1.76-1.484-3.036.883-3.846 1.815-.618 3.507-.487 5.206.754 4.747 3.468 9.625 6.757 14.427 10.152 2.06 1.455 4.1 2.946 6.07 4.52 1.783 1.42 3.73 1.854 5.785.98 1.855-.786 1.6-2.607 1.6-4.22l.007-16.755-9.628-9.625-.008 14.78c0 .677.1 1.38-.052 2.023-.132.57-.5 1.1-1.276.526-4.38-3.194-9.027-6.08-13.1-9.626-5.63-4.903-14.755-6.052-20.65-1.12-4.528 3.8-4.575 11.7-1.04 15.084 7.154 6.846 14.053 13.96 21.057 20.967l20.898 20.764c3.997 3.78 9.06 5.847 14.488 6.922 6.02 1.2 12.105.582 18.16.694 6.2.115 12.045-1.113 17.682-3.885 2.485-1.22 4.676-2.684 6.6-4.36l-8.914-8.913z"/><path d="M-153.412 13.466l9.273-9.276L-9.352 138.94l-9.273 9.276zm231.845 51.26l11.708.004c3.524.02 4.98 1.6 5.1 5.183.195 5.35.2 8.376-8.12 8.208-6.425-.135-12.855-.018-19.282-.03-4.336-.006-5.73-1.4-5.73-5.696V69.18c.013-3.183 1.172-4.406 4.376-4.443l11.936-.01z"/><path d="M79.432 88.984l-14.15-.004c-5.525 0-11.14-.01-16.666.006-2.097.006-3.083 1.62-3.084 5.1 0 .918.03 1.846-.03 2.752-.307 4.605 1.293 5.5 3.273 5.494l15.198-.008h15.564c2.35-.002 3.465-1.242 3.465-5.068v-2.982c-.001-3.763-1.282-5.297-3.57-5.3zm22.038-11.14c3.48-.125 4.53-1.426 4.53-5.058v-2.983c0-3.764-1.44-5.296-5.27-5.3l-12.602-.001 13.344 13.34zM63.5 65.576c-4.618 0-9.235-.542-13.853-.534-3.515.007-5.1 1.35-5.092 4.84 0 .918.087 1.7-.015 2.62-.513 4.604 2.185 6.505 5.5 6.5 8.494-.018 16.985.998 25.477.998h1.336L63.5 65.576zM41.998 18.274l.066-.002 34.8-.002c1.885-.015 2.498.398 2.47 2.393L79.3 45.646c.054 3.743 1.096 7.264 4.818 9.03 1.895.9 3.994 1.472 6.175 1.468l24.75-.042c1.656-.018 2.063.463 2.06 2.087l-.038 35.163 14.562 14.56.04-65.242c.006-2.525-.94-4.482-2.6-6.15L99.382 6.792c-2.003-2.007-4.38-3.008-7.215-3.008-19.767.007-39.532.054-59.298-.034-1.607-.007-3.06.4-4.27 1.122L42 18.274zm51.692 3.92c.68-.406 1.115.275 1.547.705l17.312 17.313c.377.377.93.73.74 1.352-.26.855-1.047.466-1.6.475l-8.396.018c-2.797 0-5.598-.046-8.396.018-1.36.034-1.575-.334-1.442-1.75.52-5.478.454-10.98.037-16.467-.044-.598-.44-1.288.186-1.664zm23.4 95.92l.006 3.822c.005 1.908-.65 2.36-2.443 2.355-24.2-.05-48.415-.055-72.62.01-2 .004-2.483-.682-2.477-2.566l.03-81.126-14.6-14.6.05 104.63c0 5.146 2.644 7.744 7.864 7.746l91.28-.004c4.116-.002 6.745-2.145 7.318-5.86L117.1 118.113z"/><path d="M2.583 12.258l9.273-9.276 134.787 134.75-9.273 9.276z"/></g></svg>