<svg xmlns="http://www.w3.org/2000/svg" xmlns:xlink="http://www.w3.org/1999/xlink" width="150" height="150"><g fill-rule="evenodd"><path d="M519.77 53.62c-.1-7.902-4.266-13.686-11.637-17.036-4.392-1.995-9-1.468-13.556-1.543-3.15-.05-6.926 1.034-9.284-.34-2.486-1.453-2.642-5.625-3.8-8.6-2.25-5.76-7.544-7.914-13.762-7.92h-35.426c-6.396.002-11.455 1.817-13.867 7.72-.986 2.414-2.027 4.824-2.754 7.318-.465 1.58-1.3 1.875-2.74 1.855-4.596-.065-9.195.044-13.8-.04-10.684-.195-19.22 9.534-19.082 19.03l.1 64.88c.002 1.6-.016 3.215.467 4.813 2.605 8.6 9.908 14.075 18.918 14.08l101.405-.014c10.012-.033 18.826-8.584 18.87-18.497l-.062-65.693zM486.7 89.023c-1.12 17.798-16.985 34.898-37.016 34.08-18.47.793-36.822-15.192-36.732-36.956.084-20.2 17.5-37.725 39.45-36.518 15.753.87 35.784 15.84 34.297 39.394zm-60.786-2.408c-.727-12.886 11.748-24.113 23.988-24.05 12.395.064 24.242 11.053 24.163 24.082-.08 13.208-10.882 24.13-24.044 24.142-13.588.01-24.113-10.544-24.107-24.175z" fill="#fff"/><path fill="#fefefe" d="M526.405 31.27c.053-7.098-5.89-13.503-13.542-13.38l-56.275.097c-18.853 0-37.712.194-56.562-.097-7.523-.118-13.558 6.224-13.5 13.422l-.002 93.112c-.078 8.432 7.288 13.71 13.688 13.69l112.55-.01c6.714.02 13.7-5.546 13.644-13.43l.001-93.403zm-19.675 86.593l-50.35-.06c-16.78-.002-33.565-.055-50.347.06-2.488.016-3.217-.552-3.206-2.922l.008-54.39c-.013-2.33.683-2.993 3.198-2.988H506.73c2.626-.008 3.375.67 3.357 3.136l.007 54.09c.017 2.51-.79 3.088-3.365 3.072z"/><g fill="#fff"><path d="M515.925 31.585c-.004-7.62-5.098-12.703-12.7-12.706l-57.408-.001c-19.318 0-38.638-.02-57.953.01-6.435.01-11.753 4.846-11.77 10.936l-.032 75.002c0 2.74 1.084 5.028 2.875 7.08 2.924 3.35 6.79 4.283 10.95 4.297l42.623.02c6.29 0 6.188.001 6.272 6.332.028 2.046-.723 3.852-2.48 3.83l-23.49-.028c-1.16.001-2.514-.166-3.117 1.11-1.09 2.302-.934 5.985-.18 8.26.66 1.986 2.76 1.27 4.468 1.27h59.765c1.807 0 3.613.406 5.414.36 2.166-.053 3.354-.92 3.296-3.18-.024-.99-.076-3.447.01-4.433.228-2.593-.982-3.503-3.5-3.474l-19.968.047c-5.738-.001-5.594-1.544-5.806-7.25-.1-2.427.57-2.932 2.944-2.913l46.144.05c8.48-.023 13.65-5.264 13.65-13.676l-.004-70.944zm-18.3 65.5c0 3.578-.25 3.83-3.823 3.83l-48.2.002c-15.988-.002-31.654.002-47.64-.003-3.188 0-2.97-.12-2.97-3.247V37.05c0-3.055-.054-3.34 2.972-3.34h96.007c3.408 0 3.74.43 3.74 3.92l-.083 59.456z"/><path d="M452.083 78.184l.006 44.432c.002 1.52-.2 2.918-1.08 4.25-2.262 3.477-5.833 3.896-8.86.86l-25.8-26.04c-1.446-1.48-2.886-2.094-4.938-2.05-6.006.124-12.018.046-18.026.044-4.4-.005-6.74-2.096-6.788-6.564l-.004-29.862c.05-4.933 2.4-7.106 7.27-7.117l18.74.03c1.547.018 2.63-.472 3.704-1.58l24.933-25.412c1.638-1.63 3.344-3.666 6.384-2.83 2.894.795 4.446 3.802 4.45 6.93l.006 44.9zm74.323-1c-.435 10.104-1.957 19.138-6.043 27.676-3.588 7.502-8.187 14.206-14.013 20.06-5.386 5.413-11.708 9.52-18.54 12.796-2.028.97-4.4 1.303-6.4-.407-3.573-3.042-3.03-6.52 1.584-9.05 3.484-1.914 7.003-3.748 10.234-6.06 8.596-6.146 14.582-14.343 18.412-24.172 2.955-7.575 4.4-15.505 3.724-23.576-.9-10.893-4.36-21-11.086-29.764-5.64-7.354-12.53-13.1-21.115-16.698-.212-.1-.403-.24-.6-.353-2.793-1.538-4.2-4.47-3.12-6.5 1.812-3.43 4.935-4.48 8.197-2.914 6.58 3.158 12.734 6.978 17.96 12.116 10.003 9.837 16.776 21.48 19.53 35.45.8 4.06.468 8.176 1.295 11.407zm-21.788 1.056c-.357 11.43-4.3 21.65-12.602 30.136-3.896 3.982-8.174 7.275-13.313 9.412-3.626 1.508-7.257-.126-8.095-3.918-.404-1.835.403-3.58 2.034-4.674 1.55-1.04 3.2-1.95 4.808-2.888 9.363-5.43 14.5-13.52 15.786-24.363 1.294-10.948-2.06-20.124-9.588-27.86-2.736-2.815-6.23-4.62-9.7-6.4-2.006-1.036-3.6-2.752-3.403-4.964.192-2.3 1.673-4.103 4.062-5 1.95-.74 3.522.115 5.1.875 10.693 5.165 17.8 13.657 22.188 24.593 1.88 4.703 2.552 9.673 2.715 15.07zm-21.865-.06c-.617 8.987-4.496 15.833-12.904 19.636-2.447 1.1-5.042.318-6.602-1.86-1.396-1.96-1.423-4.648.718-6.5 1.707-1.487 3.728-2.486 5.317-4.176 4.344-4.617 3.258-13.24-2.18-16.4-1.595-.926-3.203-1.873-4.177-3.625-1.058-1.9-.866-4.064.726-5.77 1.716-1.838 3.77-2.186 5.8-1.33 7.173 3.042 11.42 8.44 13.046 16.032.065.306.245.597.253.898.034 1.033.015 2.066.015 3.103z"/><path d="M500.35 50.05c-3.1-13.14-10.578-23.38-21.662-30.706-11.053-7.304-23.277-10.11-36.65-7.957-13.744 2.2-24.595 8.917-33.162 19.615-6.338 7.916-9.556 17.098-10.485 27.123-.864 9.337.77 18.14 5.593 26.292 3.055 5.167 6.68 9.897 10.48 14.525 4.708 5.73 9.913 11.307 8.106 19.735l.007 5.282c.18 7.886 5.6 13.998 13.257 14.96 1.44.184 2.537.752 3.618 1.85 5.993 6.07 15.188 6.067 21.188-.006 1.08-1.095 2.168-1.768 3.62-1.82 5.662-.218 11.39-5.406 12.682-11.354.875-4.034.596-8.064.5-12.085-.084-3.83 1.176-7.06 3.318-10.06 1.12-1.573 2.3-3.1 3.527-4.607 4.85-5.92 9.686-11.87 13.14-18.746 5.16-10.265 5.5-21.04 2.915-32.04zm-24.543 28.814c-3.197 3.852-6.375 7.726-9.25 11.837-2.66 3.8-4.576 7.918-5.563 12.41-.352 1.6-.98 1.895-2.44 1.83-2.81-.122-5.63-.035-8.445-.035-3 .002-5.984-.037-8.975.02-1.074.02-1.715-.03-1.99-1.375-1.508-7.362-5.653-13.328-10.302-19-3.282-4-6.622-7.97-9.247-12.475-3.15-5.406-4.348-11.027-3.52-17.372.977-7.503 3.673-13.98 8.692-19.592 4.858-5.435 10.902-8.796 17.953-10.277 8.374-1.758 16.413-.642 23.948 3.53 8.146 4.51 13.365 11.31 16.125 20.19 3.583 11.524.456 21.358-6.987 30.316z"/><path d="M496.252 64h-3.844c-1.933 0-3.407-1.925-3.407-3.857V12.058C489 10.6 487.56 11 486.1 11h-87.427c-1.448 0-3.684-.4-3.684 1.058v48.085c0 1.932-.33 3.857-2.26 3.857h-3.946c-1.78 0-2.794.438-2.794 1.42v48.926c0 16.9 13.27 30.652 30.17 30.652h52.457c16.9.002 30.383-13.75 30.383-30.65V65.42c0-.983-.968-1.42-2.748-1.42zM471 60.377c0 1.448-1.175 2.623-2.623 2.623h-52.754c-1.45 0-2.623-1.174-2.623-2.623V27.623c0-1.448 1.174-2.623 2.623-2.623h52.754c1.448 0 2.623 1.174 2.623 2.623v32.754zM436 35.85c0-1.448-1.466-2.85-2.916-2.85h-9.86c-1.45 0-2.225 1.4-2.225 2.85v9.862c0 1.448.775 2.288 2.225 2.288h9.86c1.45 0 2.916-.84 2.916-2.288V35.85z"/><use xlink:href="#B"/><path d="M522 46.63c0-8.63-6.998-15.63-15.63-15.63H398.63C389.998 31 383 37.998 383 46.63v62.742c0 8.632 6.998 15.63 15.63 15.63h107.74c8.632 0 15.63-6.997 15.63-15.63V46.63zm-14 11.027c0 1.295-1.05 2.344-2.345 2.344h-8.31C496.05 60 495 58.95 495 57.656V47.344c0-1.295 1.05-2.344 2.345-2.344h8.31c1.295 0 2.345 1.05 2.345 2.344v10.312zm-23 0c0 1.295-1.05 2.344-2.345 2.344h-8.31C473.05 60 472 58.95 472 57.656V47.344c0-1.295 1.05-2.344 2.345-2.344h8.31c1.295 0 2.345 1.05 2.345 2.344v10.312zm-11 23.902c0 1.66-.432 3.442-2.065 3.442h-8.186c-1.634 0-3.75-1.782-3.75-3.442v-9.094c0-1.66 2.115-3.464 3.75-3.464h8.186c1.634 0 2.065 1.803 2.065 3.464v9.094zm-13-23.902c0 1.295-1.05 2.344-2.344 2.344h-8.313C449.05 60 448 58.95 448 57.656V47.344c0-1.295 1.05-2.344 2.344-2.344h8.313c1.294 0 2.344 1.05 2.344 2.344v10.312zm-14 23.998c0 1.296-.06 2.346-1.354 2.346h-8.313C436.04 84 434 82.95 434 81.654V71.346c0-1.295 2.04-2.346 3.334-2.346h8.313c1.294 0 1.354 1.05 1.354 2.346v10.308zm-11-23.85c0 1.294-.143 2.195-1.435 2.195h-9.08c-1.294 0-2.486-.9-2.486-2.195V47.67c0-1.294 1.192-2.67 2.486-2.67h9.08c1.292 0 1.435 1.375 1.435 2.67v10.136zm-24-.15c0 1.295-1.05 2.344-2.345 2.344h-8.31C400.05 60 399 58.95 399 57.656V47.344c0-1.295 1.05-2.344 2.345-2.344h8.31c1.295 0 2.345 1.05 2.345 2.344v10.312zm-1 50.1c0 1.444.192 3.244-1.263 3.244h-7.955c-1.454 0-3.782-1.8-3.782-3.244V97.732c0-1.445 2.328-1.732 3.782-1.732h7.955c1.455 0 1.263.287 1.263 1.732v10.024zm10-26.102c0 1.296-.06 2.346-1.354 2.346h-8.313C410.04 84 408 82.95 408 81.654V71.346c0-1.295 2.04-2.346 3.334-2.346h8.313c1.294 0 1.354 1.05 1.354 2.346v10.308zm67 26.753c0 1.432-.16 2.593-1.578 2.593H424.56c-1.42 0-3.56-1.16-3.56-2.593v-9.814c0-1.432 2.14-2.593 3.56-2.593h61.863c1.418 0 1.578 1.16 1.578 2.593v9.814zm9-26.753c0 1.296-1.05 2.346-2.345 2.346h-8.31C485.05 84 484 82.95 484 81.654V71.346c0-1.295 1.05-2.346 2.345-2.346h8.31c1.295 0 2.345 1.05 2.345 2.346v10.308zm12 25.913c0 1.297-.083 3.433-1.377 3.433h-9.078c-1.293 0-3.545-2.136-3.545-3.433v-10.13c0-1.296 2.252-1.436 3.545-1.436h9.078c1.294 0 1.377.14 1.377 1.436v10.13z"/><path d="M535.742 74.74c-4.95-10.532-11.673-19.665-20.607-27.18-5.42-4.556-11.277-8.338-17.73-11.23-9.72-4.357-19.917-6.442-31.847-6.6-2.7-.38-6.646.315-10.5.957-4.813.798-9.574 2.026-14.208 3.733-8.628 3.18-16.392 7.812-23.243 13.846-5.53 4.874-10.47 10.35-14.35 16.714-2.444 4.005-4.624 8.124-6.438 12.445-.174.416-.24.697-.033 1.137.993 2.105 1.78 4.318 2.916 6.342 2.996 5.357 6.297 10.485 10.343 15.184 4.3 4.987 9.2 9.155 14.48 12.986 5.763 4.2 12.144 7.18 18.862 9.418 3.702 1.234 7.524 2.072 11.393 2.73 2.4.407 4.84.316 7.185.735 4.73.848 9.406.16 14.035-.26 4.552-.412 9.06-1.575 13.473-3 5.7-1.83 11.14-4.173 16.215-7.323 3.738-2.32 7.134-5.098 10.56-7.864 3.72-3.005 6.863-6.505 9.76-10.18 3.86-4.9 7.023-10.278 9.66-16.006 1.126-2.455 1.174-4.285.086-6.6zm-68.993 32.875c-17.356.17-29.034-13.37-29.465-28.257-.546-18.815 13.283-31.105 29.895-30.958 16.444.148 29.393 12.72 29.226 30.002-.16 16.236-12.705 29.504-29.656 29.213zm-.014-10.258c-10.892.176-19.84-9.072-19.7-19.484.148-11.524 8.463-19.787 19.73-19.87 10.872-.08 19.592 7.76 19.9 19.54.267 10.57-8.422 19.974-19.9 19.816z"/><path d="M449.938 125.173c-14.28 0-28.56.043-42.836-.03-4.03-.02-7.648-1.198-10.32-4.573-4.004-5.062-1.9-12.814 4.23-15.115 1-.374 2.1-.982 3.063-.85 2.627.364 2.828-.908 2.8-3.04l.008-34.173c.068-5.15.63-10.287 2.287-15.244 2.803-8.384 8.074-14.915 14.855-20.42 4.307-3.5 9.195-5.743 14.443-7.292 1.6-.473 1.08-1.68 1.117-2.662.146-3.997 1.484-7.34 5-9.565 4.957-3.13 12.245-1.378 14.706 4.64.732 1.8 1.238 3.646.998 5.627-.14 1.167.3 1.636 1.58 2.032 10.224 3.196 18.322 9.25 24.22 18.267 4.045 6.2 6.084 12.9 6.56 20.28.842 13.004.173 26.014.356 39.02.024 1.835.308 2.52 2.37 2.527 4.854.013 9.364 4.462 9.847 9.336.453 4.632-3.24 9.43-8.345 10.703a18.52 18.52 0 0 1-4.577.558l-42.37-.027zm.117 20.147c-5.877-.1-12.47-4.648-13.816-10.807-1.145-5.22-1.303-5.186 3.934-5.186l22.188-.03c1.643-.015 2.347.57 2.113 2.18-1.103 7.63-6.315 13.277-14.42 13.843z"/><path d="M466.084 18.842c8.502 8.288 8.93 19.387 6.014 28.44-.834 2.6-3.432 2.044-5.45 1.847-1.88-.185-2.496-1.754-2.773-3.448-.416-2.518 1.113-4.632 1.4-7.018.557-4.467-.777-8.518-3.334-11.872-3.96-5.2-9.234-8.43-16.143-7.808-3.473.312-6.58 1.488-9.42 3.7-3.535 2.74-6.14 6.007-7.332 10.314-.8 2.9-.8 5.813.053 8.724.305 1.044.602 2.07.74 3.195.285 2.366-.83 3.8-2.7 4.528-2.22.873-4.77-.396-5.604-2.63-2.62-7.04-2.307-13.858.926-20.78 3.9-8.327 10.4-12.978 19.096-14.7 9.42-1.866 17.66.734 24.515 7.52zM494.8 67.62c-1.244.338-2.2.062-2.822-1.34-2.416-5.347-8.232-8.715-13.63-7.15-1.127.327-1.803.2-2.547-1.1-2.896-5.004-7.2-7.972-13.2-7.028-2.424.38-2.48-.514-2.492-2.3-.025-4.03.318-8.073-.342-12.083-1.115-6.768-6.48-11.542-14.445-10.765-6.125.597-10.8 5.23-10.78 12.183l.02 51.127c0 .674.102 1.375-.05 2.017-.135.566-.502 1.087-1.273.523-4.365-3.184-8.996-6.058-13.055-9.594-5.6-4.883-14.705-6.03-20.58-1.114-4.512 3.773-4.56 11.66-1.037 15.03 7.13 6.824 14.006 13.916 20.988 20.896l20.824 20.7c3.982 3.77 9.03 5.83 14.438 6.9 6 1.187 12.064.58 18.1.692 6.17.113 12.004-1.1 17.623-3.873 7.37-3.62 12.193-9.307 15.135-16.817 1.697-4.33 2.285-8.823 2.498-13.446l1.723-31.325c.343-7.008-6.614-14.434-15.106-12.125zm2.988 16c-.568 10.075-.33 20.212-1.602 30.24-1.002 7.92-5.543 13.506-12.484 17.267-3.28 1.775-6.752 2.708-10.494 2.6-5.313-.168-10.637.334-15.938-.328-3.492-.438-6.584-1.812-9.318-3.992-7.44-5.94-13.506-13.3-19.195-18.52L410.3 92.4c-1.746-1.753-1.48-3.026.88-3.833 1.8-.615 3.496-.486 5.2.752 4.732 3.457 9.592 6.735 14.377 10.118 2.053 1.45 4.086 2.937 6.05 4.503 1.777 1.417 3.717 1.85 5.766.978 1.848-.783 1.605-2.598 1.605-4.204l-.014-58.877c-.002-1.725.4-3.133 1.732-4.296 2.1-1.812 4.744-.945 5.418 1.773.25 1 .28 1.964.28 2.962l-.014 39.178c-.006 1.574.186 3.1 1.424 4.132 2.52 2.118 5.906.927 6.32-2.376.662-5.205.252-10.473.2-15.708-.014-2.088 1.27-3.12 2.64-4.003 1.47-.947 3.813.214 4.355 2.05.336 1.158.488 2.42.445 3.626-.156 4.43-.14 8.858.36 13.27.367 3.213 3.414 4.843 6.28 3.354.635-.33.912-.9 1.096-1.644.648-2.662.484-5.37.5-8.053.01-.846.06-1.672.27-2.452.537-1.978 1.984-2.93 3.967-2.74 1.967.197 2.885 1.515 2.975 3.465.135 2.92-.346 5.854.287 8.75.486 2.237 1.738 3.18 4.033 3.162 2.28-.016 3.283-1.37 3.637-3.362.637-3.576 1.648-4.864 3.855-4.737 2.423.156 3.753 1.92 3.556 5.422z"/><path d="M434.428 17.746c.027-1.758-.646-2.98-2.07-3.736-.604-.35-1.33-.6-2.188-.773l-1.38-.24-5.846-1.157-5.113-1.024c-.824-.168-1.6-.168-2.287-.047-.152.024-.293.063-.44.1l-.3.082c-1.475.474-2.514 1.634-2.8 3.26-.45 2.576 1.152 4.676 3.97 5.22l2.42.574c-12.213 7.463-19.75 17.852-22.355 31.858-.705-.524-1.14-1.137-1.652-1.676-2.06-2.182-4.6-2.446-6.486-.705-1.996 1.85-1.96 4.483.074 6.7l8.52 9.325c2.32 2.558 4.557 2.755 7.135.45l9.7-8.884c1.973-1.803 2.256-4.36.676-6.235-1.594-1.9-4.4-2.036-6.42-.333l-2.34 1.975c1.32-10.862 10.066-21.416 18.156-24.876l.06.712-.357 2.23c-.414 2.606 1.16 4.937 3.602 5.322 2.424.384 4.465-1.18 4.992-3.796l.252-1.25c.877-3.87 1.64-7.77 2.363-11.673a7.75 7.75 0 0 0 .115-1.406zM420.4 30.5l.05-.056-.053.048.004.008zm78.026 36.9c-1.25.34-2.198.06-2.832-1.346-2.423-5.365-8.26-8.743-13.677-7.174-1.13.33-1.808.2-2.555-1.1-2.907-5.022-7.226-8-13.238-7.052-2.433.38-2.488-.517-2.5-2.3-.024-4.044.316-8.102-.345-12.125-1.115-6.8-6.5-11.58-14.495-10.8-6.146.6-10.846 5.248-10.818 12.226l.02 51.303c0 .677.098 1.38-.05 2.023-.135.57-.504 1.093-1.275.527-4.38-3.195-9.03-6.08-13.102-9.628-5.63-4.903-14.756-6.05-20.65-1.12-4.527 3.788-4.574 11.7-1.04 15.082 7.154 6.848 14.053 13.963 21.057 20.967l20.897 20.766c3.998 3.78 9.062 5.847 14.5 6.922 6.02 1.2 12.104.58 18.164.694 6.2.116 12.045-1.112 17.68-3.885 7.395-3.634 12.237-9.34 15.188-16.875 1.704-4.346 2.294-8.854 2.507-13.494l1.73-31.434c.345-7.03-6.636-14.483-15.156-12.165zm2.998 16.055c-.57 10.1-.332 20.278-1.606 30.345-1.007 7.946-5.563 13.553-12.528 17.325-3.293 1.78-6.772 2.72-10.53 2.6-5.328-.17-10.672.335-16-.328-3.507-.442-6.6-1.82-9.352-4.008-7.468-5.962-13.554-13.354-19.26-18.583l-18.52-18.53c-1.752-1.757-1.486-3.036.883-3.845 1.816-.617 3.508-.488 5.205.754 4.75 3.467 9.625 6.76 14.428 10.153 2.06 1.453 4.098 2.945 6.07 4.52 1.785 1.423 3.73 1.854 5.787.98 1.855-.786 1.6-2.6 1.6-4.218l-.014-59.082c-.004-1.73.4-3.143 1.74-4.3 2.106-1.82 4.758-.95 5.436 1.777.252.994.283 1.972.283 2.973l-.017 39.314c-.005 1.578.185 3.1 1.43 4.146 2.53 2.124 5.928.93 6.344-2.385.66-5.223.25-10.5.213-15.762-.014-2.096 1.27-3.132 2.646-4.017 1.476-.95 3.828.215 4.37 2.058.338 1.162.5 2.428.448 3.64-.157 4.446-.14 8.888.357 13.314.368 3.225 3.428 4.86 6.3 3.37.642-.333.918-.895 1.102-1.65.653-2.672.487-5.388.5-8.082.01-.85.062-1.677.272-2.46.54-1.985 2-2.942 3.98-2.75 1.975.2 2.896 1.52 2.985 3.477.134 2.932-.348 5.875.286 8.78.5 2.246 1.747 3.193 4.05 3.175 2.285-.018 3.293-1.376 3.65-3.374.64-3.6 1.655-4.884 3.868-4.754 2.43.153 3.766 1.927 3.568 5.44z"/><path d="M500.754 43.452l-29.696-29.73c-2.003-2.007-4.38-3-7.215-3.008-19.766.008-39.53.054-59.296-.032-4.567-.02-7.917 3.24-7.9 7.827l.082 119.06c.001 5.145 2.645 7.744 7.865 7.745l91.28-.002c4.68-.003 7.438-2.77 7.44-7.467l.04-88.243c.005-2.528-.94-4.485-2.6-6.152zm-35.386-14.326c.68-.406 1.113.275 1.546.705l17.312 17.313c.376.376.93.73.742 1.35-.26.856-1.047.467-1.6.476l-8.396.018c-2.798 0-5.598-.046-8.394.02-1.362.032-1.577-.335-1.444-1.752.52-5.477.452-10.977.037-16.466-.044-.6-.442-1.288.187-1.664zm20.98 102.095c-24.205-.048-48.412-.054-72.62.01-2.012.006-2.482-.678-2.477-2.565L411.286 78l-.05-50.436c-.012-2.04.66-2.37 2.503-2.358l34.8-.002c1.887-.014 2.5.4 2.472 2.393l-.015 24.983c.052 3.743 1.095 7.264 4.82 9.03 1.893.9 3.993 1.473 6.175 1.47l24.75-.043c1.656-.018 2.063.464 2.06 2.087l.002 63.744c.005 1.9-.652 2.36-2.445 2.356zm-39.155-46.47c-8.5 0-16.982-.013-25.475.005-3.318.007-6.014-.887-5.5-5.493.1-.904.014-1.834.014-2.752.004-3.5 1.578-5.102 5.092-5.108l51.18-.003c3.827.004 5.367 1.534 5.37 5.3l-.001 2.983c-.001 3.826-1.27 5.065-5.204 5.066l-25.475.003zm-12.513 24.48c-5.068 0-10.135-.01-15.205.006-1.98.008-3.588-.888-3.28-5.494.06-.905.008-1.835.008-2.752.002-3.5.94-5.104 3.04-5.1l30.545-.003c2.285.003 3.204 1.535 3.205 5.302l-.001 2.98c0 3.828-.756 5.066-3.106 5.068l-15.204.001zm-506-34.17c-.55-12.13-11.343-22.236-22.947-22.946L-71.3 75.06zm-40.76-16.035c-4.688 4.428-7.734 10.547-7.365 17.1-.008 13.63 10.52 24.185 24.108 24.172 6.7-.006 12.786-2.845 17.16-7.367l-33.903-33.904zm344.284-14.61a37.69 37.69 0 0 1 12.814-1.494c15.753.87 35.782 15.838 34.3 39.394-.166 2.627-.663 5.238-1.435 7.78l31.805 31.805c1.72-2.758 2.738-5.947 2.752-9.293l-.063-65.695c-.1-7.902-4.267-13.686-11.638-17.035-4.4-1.995-9-1.47-13.55-1.544-3.154-.05-6.932 1.034-9.287-.34-2.487-1.452-2.645-5.624-3.812-8.6-2.25-5.76-7.543-7.913-13.762-7.92l-35.424-.002c-6.398.002-11.46 1.817-13.87 7.72l-1.178 2.9 22.35 22.345zm36.44 61.168c-6.676 6.826-15.942 11.238-26.343 10.814-18.473.793-36.823-15.193-36.734-36.955.042-9.885 4.242-19.125 11.087-25.85l-25.277-25.278c-10.5.035-18.846 9.642-18.7 19.027l.1 64.88c.002 1.613-.014 3.217.47 4.813 2.605 8.602 9.904 14.076 18.916 14.08l101.404-.012c.192-.002.386-.012.578-.018l-25.502-25.503z"/><path d="M166.673 12.266l9.273-9.273L310.713 137.76l-9.273 9.273z"/></g><path d="M239.82 50.9l53.957-.056c2.624-.007 3.376.67 3.358 3.135v54.235l15.153 15.152c.747-1.627 1.173-3.447 1.158-5.416l.002-93.402c.055-7.097-5.9-13.502-13.542-13.38l-99.7.128L239.82 50.9zm35.45 60.2c-10.615-.012-21.23.004-31.846.004-16.78-.002-33.565-.055-50.347.06-2.488.016-3.217-.55-3.203-2.922l.005-54.4c-.01-2.327.684-2.992 3.198-2.987l21.984.025-36.62-36.62c-3.008 2.5-4.904 6.3-4.873 10.34l-.002 93.112c-.076 8.432 7.3 13.7 13.7 13.7l108.3-.02-20.293-20.3z" fill="#fefefe"/><g fill="#fff"><path d="M167.755 12.268l9.27-9.276 134.807 134.73-9.27 9.276zm49.543 14.5l75.646-.001c3.412 0 3.82.43 3.82 3.923l-.002 59.96c0 3.58-.25 4.34-3.822 4.34h-8.435l15.297 14.788c.533 0 1.064-.255 1.604-.257 8.48-.025 13.65-5.4 13.65-13.803l-.005-71c-.005-7.62-5.097-12.737-12.7-12.74l-57.407-.016c-14.16 0-28.317-.013-42.475-.007l14.83 14.823z"/><path d="M278.09 119.365l-19.968.037c-5.736-.004-5.592-1.55-5.803-7.258-.09-2.426.57-2.938 2.943-2.918 6.917.053 13.41.585 19.84.593L259.78 95h-15.04c-16 0-31.98-.505-47.97-.51-3.186 0-3.294-.374-3.294-3.5l.002-60.743c.001-1.035.034-1.808.192-2.303L179.95 14.2c-2.85 1.986-4.72 5.123-4.73 8.722l-.032 74.99c0 2.742 1.082 5.028 2.875 7.08 2.923 3.35 6.79 4.28 10.95 4.294l42.622.02c6.288-.004 6.188 0 6.274 6.33.025 2.047-.725 3.852-2.482 3.828l-23.488-.027c-1.163.002-2.516-.164-3.12 1.113-1.09 2.303-.934 6.45-.18 8.726.658 1.986 2.76 1.735 4.468 1.735h59.764c1.806 0 3.614-.056 5.417-.1 2.163-.06 3.348-1.16 3.293-3.42-.024-.986-.076-3.56.01-4.543.227-2.596-.982-3.604-3.504-3.573z"/><use xlink:href="#C"/><path d="M88.146 62.176c2.772 1.6 4.406 4.64 4.773 7.835l9.286 9.286c.88-2.375 1.397-4.987 1.6-7.814l-.012-3.1c-.012-.3-.2-.6-.255-.898-1.626-7.593-5.873-13-13.046-16.03-2.02-.858-4.074-.5-5.8 1.33-1.592 1.706-1.785 3.86-.727 5.77.974 1.75 2.583 2.698 4.18 3.625zM83.44 85.26c-.327 1.37.01 2.816.85 3.996 1.305 1.826 3.332 2.658 5.4 2.242l-6.24-6.238zm11.562-44.28c3.463 1.787 6.954 3.594 9.7 6.4 7.528 7.737 10.88 16.913 9.587 27.858-.545 4.617-1.798 8.728-3.77 12.353l7.738 7.736c4.78-7.074 7.144-15.08 7.414-23.792-.162-5.397-.834-10.37-2.716-15.07-4.377-10.938-11.495-19.43-22.2-24.594-1.574-.76-3.146-1.615-5.1-.874-2.4.906-3.868 2.716-4.06 5.008-.186 2.214 1.4 3.93 3.406 4.966zm3.048 58.9l-4.365 2.63c-1.63 1.1-2.438 2.838-2.034 4.672.837 3.795 4.47 5.426 8.095 3.918 2.205-.916 4.242-2.055 6.168-3.36l-7.864-7.86zm5.54-78.928c.206.113.396.263.6.354 8.583 3.586 15.476 9.342 21.115 16.696 6.727 8.773 10.187 18.872 11.085 29.766.666 8.07-.77 15.998-3.722 23.574-1.694 4.348-3.813 8.377-6.4 12.047l7.472 7.47c2.944-3.93 5.483-8.158 7.646-12.682 4.087-8.54 5.608-17.574 6.043-27.678-.827-3.23-.492-7.347-1.294-11.407-2.754-13.968-9.526-25.612-19.53-35.448-5.224-5.14-11.38-8.958-17.96-12.117-3.262-1.565-6.384-.516-8.198 2.914-1.077 2.04.33 4.973 3.123 6.512zm10.327 94.794c-3.138 2.2-6.526 3.98-9.9 5.828-4.612 2.53-5.154 6.004-1.583 9.05 2 1.7 4.382 1.38 6.4.408 4.486-2.15 8.75-4.672 12.674-7.676l-7.6-7.6zM73.123 50.214l-.003-23.626c-.004-3.128-1.558-6.137-4.45-6.93-3.04-.835-4.746 1.202-6.383 2.83L53.87 30.96l19.254 19.254zM41.65 43.468l-4.298 4.43c-1.074 1.107-2.158 1.597-3.704 1.58L14.9 49.45c-4.87.01-7.223 2.183-7.27 7.116l.003 29.86c.047 4.47 2.377 6.563 6.788 6.566l18.026-.045c2.052-.04 3.5.57 4.937 2.05l25.8 26.04c3.027 3.037 6.597 2.62 8.86-.857.87-1.332 1.08-2.73 1.08-4.25l-.007-40.983-31.477-31.48z"/><path d="M1.76 12.27l9.27-9.276 134.807 134.73-9.27 9.276zM218.8 29.065l.252-.294c4.86-5.435 10.904-8.796 17.95-10.275 8.377-1.76 16.416-.642 23.95 3.53 8.145 4.5 13.366 11.3 16.128 20.2 3.58 11.523.453 21.357-7 30.317l-3.52 4.302 14.547 14.55c3.962-4.916 7.752-9.955 10.6-15.626 5.16-10.267 5.5-21.04 2.915-32.04-3.1-13.137-10.578-23.38-21.66-30.705-11.05-7.303-23.277-10.1-36.652-7.958-11.02 1.774-20.177 6.445-27.8 13.74l10.27 10.273zm53.064 77.8l-15.062-15.057a32.32 32.32 0 0 0-1.523 4.98c-.352 1.6-.98 1.895-2.44 1.832l-8.45-.035c-3 .004-5.982-.037-8.975.02-1.073.02-1.713-.03-1.988-1.377-1.507-7.36-5.652-13.326-10.3-19.008-3.28-4-6.623-7.972-9.247-12.476-3.15-5.405-4.348-11.026-3.52-17.372a43.6 43.6 0 0 1 .417-2.595l-12.883-12.884c-2.935 5.84-4.594 12.184-5.218 18.908-.867 9.336.77 18.14 5.592 26.292 3.055 5.168 6.68 9.898 10.48 14.525 4.708 5.732 9.912 11.305 8.107 19.734l.005 5.285c.182 7.885 5.6 13.996 13.258 14.96 1.44.182 2.537.75 3.618 1.848 5.994 6.068 15.185 6.066 21.186-.006 1.083-1.096 2.17-1.77 3.622-1.822 5.662-.217 11.4-5.404 12.683-11.352.873-4.035.595-8.066.507-12.086a15.54 15.54 0 0 1 .132-2.313z"/><use xlink:href="#B" x="-200" y="-7"/><path d="M212 25.02v-3.563c0-1.448 2.303-2.456 3.752-2.456h54.205c1.448 0 2.043 1.008 2.043 2.456v34.096C272 57 271.405 57 269.957 57h-23.672l52.94 53.868c.068-.844-.227-1.114-.227-1.985V59.957c0-.983-.22-2.957-2.002-2.957h-3.844c-1.932 0-3.153-.4-3.153-2.32V6.594C290 5.146 288.3 5 286.858 5H199.43c-1.447 0-4.43.146-4.43 1.594v1.813l17 16.612zM221.56 57h-5.807c-1.45 0-3.753 0-3.753-1.448v-5.805l-17-16.612V54.68c0 1.932.418 2.32-1.514 2.32h-3.945c-1.78 0-4.542 1.973-4.542 2.957v48.926c0 16.9 15.018 30.117 31.918 30.117h52.454c9.13 0 17.238-4.53 22.765-10.64L221.56 57z"/><path d="M227.927 39h5.3c1.448 0 .763-.358.763-1.807V28.45c0-1.448.686-2.45-.763-2.45h-8.743c-1.447 0-5.494 1.003-5.494 2.45v5.3l8.926 5.24zm34.623 68h-54.43c-1.295 0-4.122-1.576-4.122-2.87v-9.3c0-1.293 2.827-.828 4.122-.828h40.442L231 77.676v1.1c0 1.295 1.703 4.225.4 4.225h-8.425C221.7 83 219 80.07 219 78.776v-9.3c0-1.293 2.7-3.475 3.984-3.475h.225l-10.5-9h-1.974C209.45 57 208 55.6 208 54.295V52.32l-24.822-24.493c-8.267.4-15.178 7.222-15.178 15.6v63.16c0 8.635 8.056 16.422 16.687 16.422h93.602l-15.738-16zM197 54.656c0 1.295-1.05 2.344-2.346 2.344h-8.3C185.05 57 184 55.95 184 54.656V44.344c0-1.295 1.05-2.344 2.346-2.344h8.3c1.296 0 2.346 1.05 2.346 2.344v10.312zm0 51.793c0 1.297-1.05 2.55-2.346 2.55h-8.3c-1.296 0-2.346-1.254-2.346-2.55V96.14c0-1.295 1.05-2.14 2.346-2.14h8.3c1.296 0 2.346.846 2.346 2.14v10.308zm10-28c0 1.297-1.05 2.55-2.344 2.55h-8.313c-1.295 0-2.344-1.254-2.344-2.55V68.14c0-1.295 1.05-2.14 2.344-2.14h8.313c1.295 0 2.344.846 2.344 2.14v10.3z"/><path d="M231 52.073v-7.078C231 43.7 233.93 42 235.225 42h8.424c1.296 0 2.352 1.7 2.352 2.996v9.3C246 55.6 244.945 57 243.65 57h-6.203l10.527 9.783c.12-.02.24-.783.365-.783h8.424c1.296 0 1.238 2.18 1.238 3.475V78.3l24 22.732v-6.205c0-1.293.9-.828 2.182-.828h8.427c1.296 0 2.392-.465 2.392.828v9.3c0 1.295-1.096 2.87-2.392 2.87h-5.33l13.24 13.448c4.746-2.686 7.48-8.03 7.48-13.87v-63.16C308 34.787 301.942 29 293.3 29h-84.716L231 52.073zm63 2.583c0 1.295-1.05 2.344-2.345 2.344h-8.3C282.05 57 281 55.95 281 54.656V44.344c0-1.295 1.05-2.344 2.345-2.344h8.3c1.295 0 2.345 1.05 2.345 2.344v10.312zM283 78.45c0 1.297-1.05 2.55-2.345 2.55h-8.3C271.05 81 270 79.746 270 78.45v-10.3c0-1.295 1.05-2.14 2.345-2.14h8.3c1.295 0 2.345.846 2.345 2.14v10.3zm-14-23.793c0 1.295-1.05 2.344-2.345 2.344h-8.3C257.05 57 256 55.95 256 54.656V44.344c0-1.295 1.05-2.344 2.345-2.344h8.3c1.295 0 2.345 1.05 2.345 2.344v10.312zM-136.828 79.58a18.83 18.83 0 0 0 .248-3.516c-.3-11.776-9.017-19.618-19.888-19.538-1.08.008-2.124.114-3.146.268l22.786 22.786zm-37.192-12.464c-1.352 2.72-2.133 5.85-2.177 9.282-.132 10.4 8.817 19.658 19.708 19.48 3.338.046 6.436-.72 9.15-2.082l-26.68-26.68zm432.158 32.677c-4.694 3.14-10.425 4.93-16.772 4.822-17.357.172-29.037-13.37-29.47-28.256-.203-7.017 1.596-13.123 4.8-18.02l-18.082-18.08c-2.207 1.55-4.346 3.212-6.393 5.016-5.53 4.873-10.47 10.35-14.35 16.713-2.443 4.005-4.623 8.125-6.44 12.445-.173.415-.238.697-.03 1.137.993 2.104 1.78 4.32 2.914 6.342 3 5.355 6.3 10.482 10.344 15.182 4.293 4.986 9.2 9.156 14.48 12.988 5.762 4.188 12.143 7.18 18.862 9.418 3.702 1.232 7.522 2.072 11.393 2.73 2.4.406 4.84.318 7.186.736 4.727.846 9.404.162 14.034-.258 4.55-.416 9.06-1.576 13.473-2.994 3.445-1.104 6.795-2.404 10.03-3.95l-15.968-15.97z"/><path d="M230.45 47.38c3.514-1.322 7.346-2.013 11.344-1.978 16.442.148 29.392 12.72 29.225 30.003-.037 3.722-.733 7.287-1.975 10.568l20.004 20.004 1.802-1.453c3.72-3.002 6.865-6.502 9.76-10.178 3.86-4.9 7.025-10.28 9.66-16.004 1.127-2.454 1.176-4.288.088-6.602-4.947-10.53-11.67-19.663-20.608-27.18-5.417-4.556-11.275-8.338-17.73-11.23-9.72-4.357-19.915-6.442-31.847-6.6-2.7-.38-6.646.314-10.5.956-4.812.797-9.573 2.025-14.206 3.733-.23.084-.454.183-.686.27l15.68 15.682zm12.313 91.528c-5.876-.1-12.47-4.646-13.817-10.807-1.143-5.223-1.303-5.188 3.935-5.188l22.188-.03c1.64-.012 2.345.57 2.114 2.18-1.106 7.63-6.315 13.276-14.42 13.844z"/><path d="M297.804 109.693c.156-.795.212-1.604.132-2.408-.48-4.875-5-9.324-9.846-9.336-2.063-.008-2.344-.7-2.368-2.53-.184-13.006.486-26.013-.356-39.02-.475-7.37-2.514-14.1-6.56-20.28-5.896-9.02-13.995-15.07-24.22-18.267-1.27-.396-1.72-.864-1.58-2.033.24-1.98-.265-3.837-.998-5.626-2.46-6.02-9.75-7.77-14.705-4.64-3.517 2.222-4.853 5.567-5 9.563-.034.984.494 2.2-1.117 2.663-5.247 1.55-10.135 3.8-14.443 7.3a63.76 63.76 0 0 0-1.922 1.633l82.985 82.986zM203.93 40.547a39.26 39.26 0 0 0-2.043 4.948c-1.658 4.957-2.22 10.094-2.3 15.244l-.006 34.173c.018 2.133-.184 3.404-2.8 3.04-.964-.13-2.062.477-3.06.85-6.123 2.3-8.236 10.053-4.232 15.113 2.67 3.377 6.286 4.557 10.32 4.576l82.115.048-77.994-77.993z"/><use xlink:href="#C" x="-2.411"/><path d="M219.807 30.082a16.06 16.06 0 0 1 .581-3.935c1.2-4.307 3.8-7.573 7.333-10.313a17.5 17.5 0 0 1 9.418-3.69c6.9-.623 12.183 2.618 16.144 7.808 2.56 3.354 3.892 7.405 3.334 11.872-.297 2.387-1.824 4.5-1.4 7.018.28 1.694.893 3.263 2.772 3.447 2.02.198 4.615.753 5.45-1.846 2.917-9.052 2.488-20.15-6.015-28.44-6.852-6.783-15.092-9.383-24.514-7.518-8.693 1.72-15.207 6.372-19.096 14.7-.547 1.173-1.004 2.343-1.384 3.5l7.387 7.387zm63.107 87.834c-2.058 2.52-4.717 4.62-7.882 6.336-3.28 1.773-6.75 2.707-10.494 2.6-5.3-.168-10.636.336-15.936-.328-3.494-.44-6.586-1.8-9.32-3.992-7.44-5.94-13.506-13.3-19.195-18.518l-18.457-18.47c-1.747-1.75-1.48-3.025.88-3.834 1.8-.6 3.496-.482 5.188.754 4.732 3.457 9.593 6.734 14.378 10.12 2.053 1.45 4.086 2.936 6.05 4.502 1.78 1.418 3.717 1.85 5.768.98 1.85-.785 1.605-2.602 1.605-4.207l.007-23.34-9.592-9.592-.013 21.37c0 .676.1 1.377-.05 2.018-.133.566-.5 1.088-1.27.523-4.364-3.184-8.998-6.057-13.055-9.593-5.6-4.885-14.705-6.03-20.58-1.115-4.513 3.775-4.56 11.662-1.038 15.03 7.13 6.824 14.006 13.914 20.986 20.895l20.826 20.693c3.982 3.768 9.027 5.828 14.438 6.898 6 1.2 12.063.58 18.1.693 6.168.115 12.004-1.1 17.622-3.87 4-1.97 7.26-4.557 9.868-7.7l-8.832-8.834zm-47.416-72.142l-.016-10.804c-.002-1.725.4-3.133 1.734-4.296 2.1-1.812 4.742-.945 5.42 1.773.25 1 .28 1.964.28 2.962l.003 17.784 7.944 7.945-.01-.503c-.013-2.088 1.27-3.12 2.64-4.003 1.47-.948 3.814.213 4.357 2.05.336 1.16.488 2.42.444 3.626a117.44 117.44 0 0 0-.067 6.195l7.97 7.97c.444-2.4.32-4.826.344-7.236.007-.847.056-1.672.27-2.45.538-1.98 1.982-2.932 3.968-2.74 1.967.198 2.885 1.516 2.972 3.465.135 2.92-.344 5.855.287 8.748.487 2.24 1.74 3.184 4.036 3.166 2.276-.016 3.28-1.373 3.635-3.365.64-3.574 1.648-4.865 3.857-4.735 2.42.15 3.75 1.92 3.554 5.42-.4 7.258-.407 14.55-.846 21.805l10.8 10.8c.227-1.7.358-3.42.438-5.156l1.724-31.322c.343-7-6.613-14.437-15.104-12.127-1.245.34-2.2.062-2.822-1.34-2.416-5.347-8.232-8.714-13.628-7.15-1.127.327-1.805.2-2.547-1.1-2.898-5.005-7.202-7.972-13.193-7.028-2.425.38-2.48-.513-2.5-2.3-.025-4.03.314-8.074-.343-12.084-1.115-6.767-6.48-11.542-14.445-10.765-6.127.598-10.8 5.23-10.783 12.184l.007 5 9.6 9.6z"/><use xlink:href="#C" x="-0.796"/><path d="M210.675 12.498l2.42.574c-2.082 1.273-4.02 2.637-5.828 4.084l6.215 6.215c1.53-1.123 3.1-2.04 4.63-2.7l.058.712-.357 2.23c-.416 2.607 1.162 4.937 3.602 5.323 2.424.383 4.464-1.18 5-3.796l.254-1.248c.877-3.872 1.642-7.77 2.36-11.673a7.24 7.24 0 0 0 .118-1.405c.026-1.758-.646-2.98-2.067-3.736-.605-.35-1.33-.6-2.2-.774l-1.38-.242-5.844-1.157-5.115-1.024a6.13 6.13 0 0 0-2.286-.046c-.153.023-.296.063-.44.1-.104.028-.2.048-.3.082-1.475.475-2.514 1.634-2.8 3.26-.453 2.573 1.15 4.675 3.968 5.218zm-8.38 31.075l-2.343 1.976c.353-2.894 1.242-5.76 2.495-8.484l-6.598-6.598c-2.408 4.324-4.12 9.128-5.1 14.463-.707-.525-1.14-1.138-1.65-1.678-2.063-2.182-4.6-2.445-6.488-.705-1.996 1.85-1.96 4.482.076 6.7l8.52 9.325c2.318 2.558 4.555 2.756 7.135.45l9.706-8.884c1.972-1.804 2.255-4.36.675-6.235-1.593-1.9-4.4-2.035-6.417-.332zm40.027 8.627l-.02-17.595c-.004-1.732.4-3.144 1.738-4.3 2.1-1.82 4.76-.95 5.438 1.778.252.993.28 1.97.28 2.972v24.598l8.114 8.114-.148-7.4c-.014-2.095 1.272-3.13 2.647-4.016 1.475-.95 3.828.214 4.37 2.06.338 1.162.5 2.427.448 3.64-.157 4.445-.14 8.887.36 13.315.004.033.01.063.016.098l3.8 3.8a4.64 4.64 0 0 0 2.472-.541c.642-.332.917-.893 1.103-1.648.65-2.67.486-5.4.512-8.08.008-.85.058-1.678.27-2.46.54-1.986 2-2.942 3.98-2.75 1.976.2 2.896 1.52 2.988 3.477.132 2.933-.348 5.874.285 8.78.5 2.246 1.746 3.2 4.05 3.174 2.283-.018 3.292-1.375 3.648-3.374.637-3.588 1.654-4.882 3.87-4.753 2.43.153 3.766 1.927 3.563 5.437-.526 9.367-.376 18.78-1.362 28.117l10.2 10.197c1.007-3.498 1.424-7.092 1.592-10.77l1.73-31.433c.343-7.03-6.64-14.484-15.157-12.167-1.25.34-2.196.06-2.833-1.346-2.424-5.365-8.26-8.743-13.676-7.174-1.13.33-1.807.2-2.554-1.1-2.908-5.022-7.228-8-13.238-7.053-2.433.38-2.5-.516-2.5-2.3-.023-4.045.318-8.102-.344-12.126-1.116-6.8-6.5-11.58-14.493-10.8-6.147.6-10.85 5.247-10.82 12.225l.016 11.78 9.64 9.64zm44.23 68.97c-1.375 1.12-2.898 2.13-4.564 3.03-3.293 1.78-6.774 2.72-10.53 2.6-5.33-.166-10.67.336-16-.328-3.506-.44-6.606-1.818-9.35-4.008-7.467-5.963-13.553-13.354-19.26-18.58l-18.52-18.53c-1.753-1.76-1.484-3.037.883-3.846 1.814-.62 3.506-.488 5.205.754 4.748 3.467 9.625 6.756 14.428 10.152 2.06 1.455 4.1 2.945 6.07 4.52 1.783 1.42 3.73 1.854 5.785.98 1.855-.787 1.6-2.607 1.6-4.22l.007-16.756-9.628-9.625-.008 14.78c0 .676.1 1.38-.053 2.023-.133.57-.502 1.1-1.275.525-4.38-3.193-9.027-6.078-13.1-9.625-5.63-4.903-14.755-6.052-20.65-1.12-4.527 3.8-4.574 11.702-1.04 15.084 7.154 6.846 14.053 13.96 21.057 20.967l20.9 20.763c3.996 3.78 9.06 5.848 14.487 6.922 6.02 1.2 12.105.582 18.16.695 6.2.115 12.045-1.113 17.682-3.885 2.485-1.22 4.676-2.684 6.6-4.36l-8.914-8.912z"/><use xlink:href="#C" x="-0.411"/><path d="M242.433 64.726l11.708.004c3.524.02 4.98 1.6 5.1 5.183.195 5.35.2 8.376-8.12 8.208-6.425-.135-12.855-.018-19.282-.03-4.336-.006-5.73-1.4-5.73-5.696V69.18c.013-3.183 1.172-4.406 4.375-4.443l11.936-.01zm1 24.258l-14.15-.004c-5.525 0-11.14-.01-16.666.006-2.097.006-3.082 1.62-3.084 5.1 0 .918.03 1.846-.03 2.752-.307 4.605 1.293 5.5 3.273 5.494l15.197-.008h15.564c2.35-.002 3.465-1.242 3.465-5.068v-2.982c0-3.763-1.28-5.297-3.568-5.3z"/><path d="M265.47 77.844c3.48-.125 4.53-1.426 4.53-5.058v-2.983c0-3.764-1.44-5.296-5.27-5.3l-12.602-.001 13.344 13.34zM227.5 65.576c-4.617 0-9.234-.542-13.852-.534-3.516.007-5.1 1.35-5.092 4.84 0 .918.086 1.7-.016 2.62-.513 4.604 2.186 6.505 5.5 6.5 8.494-.018 16.985.998 25.477.998h1.336L227.5 65.576zm-21.502-47.302l.065-.002 34.8-.002c1.885-.015 2.498.398 2.47 2.393l-.014 24.983c.054 3.743 1.096 7.264 4.818 9.03 1.895.9 3.994 1.472 6.175 1.468l24.75-.042c1.656-.018 2.063.463 2.06 2.087l-.038 35.163 14.562 14.56.04-65.242c.006-2.525-.94-4.482-2.6-6.15L263.38 6.792c-2.003-2.007-4.38-3.008-7.215-3.008-19.766.007-39.53.054-59.297-.034-1.607-.007-3.06.4-4.27 1.122l13.4 13.402zm51.692 3.92c.68-.406 1.115.275 1.547.705l17.312 17.313c.377.377.93.73.74 1.352-.26.855-1.047.466-1.6.475l-8.396.018c-2.797 0-5.598-.046-8.396.018-1.36.034-1.575-.334-1.442-1.75.52-5.478.454-10.98.037-16.467-.044-.598-.44-1.288.186-1.664zm23.4 95.92l.006 3.822c.005 1.908-.65 2.36-2.443 2.355-24.2-.05-48.415-.055-72.62.01-2.012.004-2.483-.682-2.477-2.566l.03-81.126-14.602-14.602.05 104.63c0 5.146 2.644 7.744 7.864 7.746l91.28-.004c4.116-.002 6.745-2.145 7.318-5.86L281.1 118.113z"/><use xlink:href="#C" x="-2.796"/></g></g><defs ><path id="B" d="M463 35.623c0-1.448-1.174-2.623-2.622-2.623h-9.756c-1.448 0-2.622 1.174-2.622 2.623v9.755c0 1.448 1.174 2.623 2.622 2.623h9.756c1.448 0 2.622-1.174 2.622-2.623v-9.755z"/><path id="C" d="M169.374 12.255l9.273-9.276 134.787 134.75-9.273 9.276z"/></defs></svg>