<?xml version="1.0" encoding="utf-8"?>
<!-- Generator: Adobe Illustrator 16.0.0, SVG Export Plug-In . SVG Version: 6.00 Build 0)  -->
<!DOCTYPE svg PUBLIC "-//W3C//DTD SVG 1.1//EN" "http://www.w3.org/Graphics/SVG/1.1/DTD/svg11.dtd">
<svg version="1.1" id="圖層_1" xmlns="http://www.w3.org/2000/svg" xmlns:xlink="http://www.w3.org/1999/xlink" x="0px" y="0px"
	 width="150px" height="150px" viewBox="0 0 150 150" enable-background="new 0 0 150 150" xml:space="preserve">
<path fill-rule="evenodd" clip-rule="evenodd" fill="#FFFFFF" d="M74.977,139.461c-35.474,0.378-64.676-28.751-64.498-64.753
	c0.175-35.417,28.179-64.262,64.644-64.173c36.626,0.089,64.364,29.154,64.399,64.433
	C139.557,110.816,110.445,139.842,74.977,139.461z M75.017,120.728c0-1.088,0-1.865,0-2.644c0-18.439,0-36.88-0.001-55.32
	c0-10.403-0.009-20.807,0.015-31.211c0.005-1.346,0.017-2.37-1.881-2.231c-5.986,0.438-11.828,1.594-17.28,4.062
	c-20.172,9.129-31.036,32.242-25.051,53.57c4.046,14.421,13.33,24.53,26.957,30.519C63.098,119.812,68.821,120.894,75.017,120.728z"
	/>
</svg>
