<?xml version="1.0" encoding="utf-8"?>
<!-- Generator: Adobe Illustrator 16.0.0, SVG Export Plug-In . SVG Version: 6.00 Build 0)  -->
<!DOCTYPE svg PUBLIC "-//W3C//DTD SVG 1.1//EN" "http://www.w3.org/Graphics/SVG/1.1/DTD/svg11.dtd">
<svg version="1.1" id="圖層_1" xmlns="http://www.w3.org/2000/svg" xmlns:xlink="http://www.w3.org/1999/xlink" x="0px" y="0px"
	 width="150px" height="150px" viewBox="0 0 150 150" enable-background="new 0 0 150 150" xml:space="preserve">
<g>
	<path fill-rule="evenodd" clip-rule="evenodd" fill="#FFFFFF" d="M58.804,31.564c5.452-2.468,11.294-3.624,17.281-4.062
		c1.897-0.139,1.885,0.885,1.881,2.231c-0.022,9.625-0.017,19.248-0.015,28.872l52.35,52.351
		c7.644-10.626,12.17-23.683,12.155-37.808C142.421,37.87,114.685,8.805,78.058,8.716C63.686,8.68,50.641,13.154,40.083,20.738
		l13.58,13.581C55.301,33.3,57.014,32.375,58.804,31.564z"/>
	<path fill-rule="evenodd" clip-rule="evenodd" fill="#FFFFFF" d="M3.544,12.907l22.152,22.152
		c-7.703,10.619-12.216,23.696-12.286,37.83c-0.179,36.002,29.024,65.131,64.5,64.753c14.226,0.153,27.38-4.436,38.082-12.286
		L133,142.361l8.906-8.907L12.451,4L3.544,12.907z M77.5,116.265c0,0.778,0,1.556,0,2.644c-6,0.166-11.694-0.916-17.017-3.256
		c-13.625-5.988-22.796-16.098-26.843-30.519c-3.544-12.63-1.282-25.875,5.428-36.48L77.5,87.218
		C77.5,96.899,77.5,106.582,77.5,116.265z"/>
</g>
</svg>
