<svg xmlns="http://www.w3.org/2000/svg" width="32" height="32" viewBox="0 0 32 32">
    <g fill="none" fill-rule="evenodd">
        <!-- <circle cx="16" cy="16" r="15.5" stroke="#9E3398"/> -->
        <path fill="currentColor" fill-rule="nonzero" d="M25 9v12.98h-5.72v1.209h2.457V24H10.275v-.81l2.455-.001V21.98H7V9h18zm-6.539 12.98h-4.912v1.209h4.912V21.98zm5.72-12.17H7.82v11.36l4.911-.001.001-.003h.819l-.001.003h4.912l.001-.003h.819l-.001.003h4.901V9.81zm-.807.812v8.919H8.637v-8.92h14.737zm-.818.81h-13.1v7.298h13.1v-7.298zm-6.173.71l.188.006.108.008c1.486.143 2.653 1.347 2.702 2.828l.002.097c0 1.624-1.343 2.94-3 2.94s-3-1.316-3-2.94c0-.403.082-.795.24-1.156l.009-.018-1.226.395-.213-.58 2.413-.775.868 2.36-.592.191-.565-1.535-.01.018a2.3 2.3 0 0 0-.275.983l-.003.117a2.343 2.343 0 0 0 2.354 2.331c1.3 0 2.354-1.044 2.354-2.331a2.342 2.342 0 0 0-2.271-2.33l-.1-.003v-.606h.017z"/>
    </g>
</svg>
