<svg xmlns="http://www.w3.org/2000/svg" width="32" height="32" viewBox="0 0 32 32">
    <g fill="none" fill-rule="evenodd">
        <circle cx="16" cy="16" r="15.5" fill="none" stroke="none"/>
        <path fill="#FFF" fill-rule="nonzero" d="M16.3 6L25 9.88v7.768c0 3.884-2.9 6.656-8.555 8.307l-.154.045-.39-.14C10.674 23.964 8 21.227 8 17.649V9.887L16.3 6zm.01 1.068L8.983 10.5v7.148c0 3.097 2.378 5.531 7.254 7.302l.083.03.319-.097C21.524 23.358 23.94 21 24.015 17.8l.002-.153v-7.142L16.31 7.068zm.054 2.111l6.035 2.65v5.27c0 2.67-2.013 4.564-5.892 5.68l-.152.043-.35-.123c-3.561-1.282-5.404-3.147-5.404-5.6v-5.263l5.763-2.657zm.01 1.065l-4.79 2.208V17.1c0 1.968 1.544 3.532 4.754 4.687l.045.016.234-.07c3.18-.993 4.739-2.495 4.797-4.514l.002-.12v-4.64l-5.042-2.215zm3.573 5.078v.97h-6.882v-.97h6.882z"/>
    </g>
</svg>
