<svg xmlns="http://www.w3.org/2000/svg" width="100" height="100" viewBox="0 0 100 100">
    <g fill="none" fill-rule="evenodd">
        <circle cx="50" cy="50" r="49" fill="currentColor" stroke="currentColor" stroke-width="2"/>
        <path fill="#FFF" fill-rule="nonzero" d="M51.5 64.5v7h-2v-7h2zm9.783-4.88l4.95 4.949-1.414 1.414-4.95-4.95 1.414-1.414zm-21.566 0l1.414 1.413-4.95 4.95-1.414-1.414 4.95-4.95zM50.5 37.5C57.404 37.5 63 43.096 63 50s-5.596 12.5-12.5 12.5S38 56.904 38 50s5.596-12.5 12.5-12.5zm0 2C44.701 39.5 40 44.201 40 50s4.701 10.5 10.5 10.5S61 55.799 61 50s-4.701-10.5-10.5-10.5zm21.5 10v2h-7v-2h7zm-36 0v2h-7v-2h7zm21 0v2H44v-2h13zM36.181 34.517l4.95 4.95-1.414 1.414-4.95-4.95 1.414-1.414zm28.638 0l1.414 1.414-4.95 4.95-1.414-1.414 4.95-4.95zM51.5 29v7h-2v-7h2z"/>
    </g>
</svg>
