<?xml version="1.0" encoding="utf-8"?>
<!-- Generator: Adobe Illustrator 23.0.4, SVG Export Plug-In . SVG Version: 6.00 Build 0)  -->
<svg version="1.1" id="圖層_1" xmlns="http://www.w3.org/2000/svg" xmlns:xlink="http://www.w3.org/1999/xlink" x="0px" y="0px"
	 viewBox="0 0 28.4 28.4" style="enable-background:new 0 0 28.4 28.4;" xml:space="preserve">
<style type="text/css">
	.st0{fill-rule:evenodd;clip-rule:evenodd;fill:#0054AF;}
	.st1{fill:#FFFFFF;}
</style>
<g>
	<path class="st0" d="M14.2,27.3c-0.1,0-0.3-0.1-0.4-0.2C8.3,20.6,5.7,15,5.7,10c0-0.1,0.2-8.5,8.6-8.5c8.4,0,8.5,8.4,8.5,8.5
		c0,4.9-2.7,10.5-8.2,17.1C14.4,27.2,14.3,27.3,14.2,27.3z"/>
	<path class="st1" d="M14.2,2c8,0,8,8,8,8c0,4.9-2.7,10.4-8.1,16.8c-5.3-6.4-8-12-8-16.8C6.2,10,6.3,2,14.2,2 M14.2,1
		c-7.1,0-9,5.9-9.1,9c0,5.1,2.7,10.9,8.2,17.5c0.2,0.2,0.5,0.4,0.8,0.4c0.3,0,0.6-0.1,0.8-0.4c5.6-6.7,8.3-12.4,8.3-17.5
		C23.2,6.9,21.3,1,14.2,1L14.2,1z"/>
</g>
<path class="st1" d="M11.7,6.8c0,0.1-0.1,0.2-0.2,0.2c-0.2,0-0.2-0.1-0.2-0.2c0-0.1,0.1-0.2,0.2-0.2C11.6,6.7,11.7,6.8,11.7,6.8z
	 M12.6,6.7c-0.2,0-0.2,0.1-0.2,0.2S12.5,7,12.6,7c0.2,0,0.2-0.1,0.2-0.2S12.8,6.7,12.6,6.7z M14,6.7c-0.2,0-0.2,0.1-0.2,0.2
	S13.8,7,14,7c0.2,0,0.2-0.1,0.2-0.2S14.1,6.7,14,6.7z M11.5,7.5c-0.2,0-0.2,0.1-0.2,0.2c0,0.1,0.1,0.2,0.2,0.2
	c0.2,0,0.2-0.1,0.2-0.2C11.7,7.5,11.6,7.5,11.5,7.5z M12.6,7.5c-0.1,0-0.2,0.1-0.2,0.3c0,0.1,0.1,0.2,0.2,0.2c0.2,0,0.2-0.1,0.2-0.2
	C12.9,7.5,12.8,7.5,12.6,7.5z M14,7.5c-0.2,0-0.2,0.1-0.2,0.2c0,0.1,0.1,0.2,0.2,0.2c0.2,0,0.2-0.1,0.2-0.2
	C14.2,7.5,14.1,7.5,14,7.5z M11.5,8.3c-0.2,0-0.2,0.1-0.2,0.2c0,0.1,0.1,0.2,0.2,0.2c0.2,0,0.2-0.1,0.2-0.2
	C11.7,8.4,11.6,8.3,11.5,8.3z M12.6,8.3c-0.1,0-0.2,0.1-0.2,0.2c0,0.1,0.1,0.2,0.2,0.2c0.2,0,0.2-0.1,0.2-0.2
	C12.9,8.4,12.8,8.3,12.6,8.3z M14,8.3c-0.2,0-0.2,0.1-0.2,0.2c0,0.1,0.1,0.2,0.2,0.2c0.2,0,0.2-0.1,0.2-0.2
	C14.2,8.4,14.1,8.3,14,8.3z M11.5,9.1c-0.2,0-0.2,0.1-0.2,0.2c0,0.1,0.1,0.2,0.2,0.2c0.2,0,0.2-0.1,0.2-0.2
	C11.7,9.2,11.6,9.1,11.5,9.1z M12.6,9.1c-0.1,0-0.2,0.1-0.2,0.2c0,0.1,0.1,0.2,0.2,0.2c0.2,0,0.2-0.1,0.2-0.2
	C12.9,9.2,12.8,9.1,12.6,9.1z M14,9.1c-0.2,0-0.2,0.1-0.2,0.2c0,0.1,0.1,0.2,0.2,0.2c0.2,0,0.2-0.1,0.2-0.2
	C14.2,9.2,14.1,9.1,14,9.1z M11.5,10c-0.2,0-0.2,0.1-0.2,0.2s0.1,0.2,0.2,0.2c0.2,0,0.2-0.1,0.2-0.2C11.7,10.1,11.6,10,11.5,10z
	 M12.6,10c-0.1,0-0.2,0.1-0.2,0.2c0,0.1,0.1,0.2,0.2,0.2c0.2,0,0.2-0.1,0.2-0.2S12.8,10,12.6,10z M14,10c-0.2,0-0.2,0.1-0.2,0.2
	s0.1,0.2,0.2,0.2c0.2,0,0.2-0.1,0.2-0.2C14.2,10.1,14.1,10,14,10z M11.5,10.8c-0.2,0-0.2,0.1-0.2,0.2c0,0.1,0.1,0.2,0.2,0.2
	c0.2,0,0.2-0.1,0.2-0.2C11.7,10.9,11.6,10.8,11.5,10.8z M12.6,10.8c-0.1,0-0.2,0.1-0.2,0.2s0.1,0.2,0.2,0.2c0.2,0,0.2-0.1,0.2-0.2
	C12.9,10.9,12.8,10.8,12.6,10.8z M14,10.8c-0.2,0-0.2,0.1-0.2,0.2c0,0.1,0.1,0.2,0.2,0.2c0.2,0,0.2-0.1,0.2-0.2
	C14.2,10.9,14.1,10.8,14,10.8z M11.5,11.6c-0.2,0-0.2,0.1-0.2,0.2s0.1,0.2,0.2,0.2c0.2,0,0.2-0.1,0.2-0.2S11.6,11.6,11.5,11.6z
	 M12.6,11.6c-0.2,0-0.2,0.1-0.2,0.2s0.1,0.2,0.2,0.2c0.2,0,0.2-0.1,0.2-0.2S12.8,11.6,12.6,11.6z M14,11.6c-0.2,0-0.2,0.1-0.2,0.2
	S13.8,12,14,12c0.2,0,0.2-0.1,0.2-0.2S14.1,11.6,14,11.6z M11.5,12.5c-0.2,0-0.2,0.1-0.2,0.2s0.1,0.2,0.2,0.2c0.2,0,0.2-0.1,0.2-0.2
	S11.6,12.5,11.5,12.5z M12.6,12.5c-0.2,0-0.2,0.1-0.2,0.2s0.1,0.2,0.2,0.2c0.2,0,0.2-0.1,0.2-0.2S12.8,12.5,12.6,12.5z M14,12.5
	c-0.2,0-0.2,0.1-0.2,0.2s0.1,0.2,0.2,0.2c0.2,0,0.2-0.1,0.2-0.2S14.1,12.5,14,12.5z M16.5,6.7c-0.2,0-0.2,0.1-0.2,0.2S16.4,7,16.5,7
	c0.2,0,0.2-0.1,0.2-0.2S16.7,6.7,16.5,6.7z M16.5,7.5c-0.2,0-0.2,0.1-0.2,0.2c0,0.1,0.1,0.2,0.2,0.2c0.2,0,0.2-0.1,0.2-0.2
	C16.8,7.5,16.7,7.5,16.5,7.5z M16.5,8.3c-0.2,0-0.2,0.1-0.2,0.2c0,0.1,0.1,0.2,0.2,0.2c0.2,0,0.2-0.1,0.2-0.2
	C16.8,8.4,16.7,8.3,16.5,8.3z M16.5,9.1c-0.2,0-0.2,0.1-0.2,0.2c0,0.1,0.1,0.2,0.2,0.2c0.2,0,0.2-0.1,0.2-0.2
	C16.8,9.2,16.7,9.1,16.5,9.1z M16.5,10c-0.2,0-0.2,0.1-0.2,0.2s0.1,0.2,0.2,0.2c0.2,0,0.2-0.1,0.2-0.2C16.8,10.1,16.7,10,16.5,10z
	 M16.5,10.8c-0.2,0-0.2,0.1-0.2,0.2c0,0.1,0.1,0.2,0.2,0.2c0.2,0,0.2-0.1,0.2-0.2C16.8,10.9,16.7,10.8,16.5,10.8z M16.5,11.6
	c-0.2,0-0.2,0.1-0.2,0.2s0.1,0.2,0.2,0.2c0.2,0,0.2-0.1,0.2-0.2S16.7,11.6,16.5,11.6z M16.5,12.5c-0.2,0-0.2,0.1-0.2,0.2
	s0.1,0.2,0.2,0.2c0.2,0,0.2-0.1,0.2-0.2S16.7,12.5,16.5,12.5z M20,13.7c0,0.1-0.1,0.2-0.2,0.2h-2h-2.4h-0.2h-4.9H8.6
	c-0.2,0-0.2-0.1-0.2-0.2c0-0.1,0.1-0.2,0.2-0.2H10V6.1C10,6,10,6,10.2,5.9l4.9-1.3h0.1c0.2,0,0.3,0.1,0.3,0.3v0.3l2.4,1.1
	c0.1,0.1,0.2,0.2,0.2,0.3v7.2h1.7C19.9,13.6,20,13.7,20,13.7z M10.5,13.6h4.5V5.3V5l-4.5,1.2V13.6z M17.6,13.6V6.5l-2.1-1v8
	L17.6,13.6L17.6,13.6z"/>
</svg>
