<?xml version="1.0" encoding="utf-8"?>
<!-- Generator: Adobe Illustrator 23.0.4, SVG Export Plug-In . SVG Version: 6.00 Build 0)  -->
<svg version="1.1" id="圖層_1" xmlns="http://www.w3.org/2000/svg" xmlns:xlink="http://www.w3.org/1999/xlink" x="0px" y="0px"
	 viewBox="0 0 32 38.6" style="enable-background:new 0 0 32 38.6;" xml:space="preserve">
<style type="text/css">
	.st0{fill-rule:evenodd;clip-rule:evenodd;fill:#9127A0;}
	.st1{fill:#FFFFFF;}
	.st2{fill-rule:evenodd;clip-rule:evenodd;fill:#E6B2ED;}
</style>
<g>
	<path class="st0" d="M16,37.3c-0.1,0-0.3-0.1-0.4-0.2C7.9,27.9,4.2,20,4.2,13c0-0.2,0-5.2,3.4-8.7c2-2.1,4.8-3.1,8.4-3.1
		c11.7,0,11.9,11.6,11.9,11.8c0,6.9-3.9,15-11.5,24.1C16.2,37.2,16.1,37.3,16,37.3C16,37.3,16,37.3,16,37.3z"/>
	<path class="st1" d="M16,1.8C27.3,1.8,27.3,13,27.3,13c0,6.8-3.8,14.8-11.4,23.8C8.5,27.8,4.7,19.9,4.7,13C4.7,13,4.6,1.8,16,1.8
		 M16,0.8c-3.6,0-6.6,1.1-8.7,3.2c-3.6,3.6-3.6,8.8-3.6,9c0,7.1,3.8,15.1,11.5,24.4c0.2,0.2,0.5,0.4,0.8,0.4c0,0,0,0,0,0
		c0.3,0,0.6-0.1,0.8-0.4c7.7-9.1,11.6-17.3,11.6-24.4C28.3,12.9,28.2,0.8,16,0.8L16,0.8z"/>
</g>
<circle class="st2" cx="16" cy="11.7" r="3.3"/>
</svg>
