<svg xmlns="http://www.w3.org/2000/svg" width="100" height="100" viewBox="0 0 100 100">
    <g fill="none" fill-rule="evenodd">
        <circle cx="50" cy="50" r="49" fill="#FFF" stroke="#9E3398" stroke-width="2"/>
        <path fill="#9E3398" fill-rule="nonzero" d="M46 34.407v2.079c-6.366 1.928-11 7.841-11 14.837 0 8.56 6.94 15.5 15.5 15.5 8.56 0 15.5-6.94 15.5-15.5 0-6.623-4.154-12.276-10-14.496v-2.122c6.97 2.306 12 8.875 12 16.618 0 9.665-7.835 17.5-17.5 17.5S33 60.988 33 51.323c0-8.11 5.516-14.93 13-16.916zM52 31v20h-2V31h2z"/>
    </g>
</svg>
