<svg xmlns="http://www.w3.org/2000/svg" width="32" height="32" viewBox="0 0 32 32">
    <g fill="none" fill-rule="evenodd">
        <circle cx="16" cy="16" r="15.5" fill="none" stroke="none"/>
        <path fill="#FFFFF0" fill-rule="nonzero" d="M24.266 7l.203.783-.957.244c-4.6 1.183-8.103 2.219-10.507 3.106l-.162.06c-2.378.89-3.591 1.641-3.578 1.985.016.403 2.31.56 6.992.446l2.256-.061c4.014-.101 5.465-.044 6.296.342.585.273.845.733.421 1.175-.243.254-.739.457-1.531.663l-.211.054c-.43.104-.94.21-1.531.316H26V25H6v-8.887l9.98-.001.953-.108c3.007-.35 5.162-.69 6.458-1.016l.1-.026c.419-.109.733-.216.93-.307l.04-.019-.034-.015c-.653-.283-2.09-.338-5.533-.259l-3.397.09c-1.85.042-2.998.04-4.026-.02l-.103-.006c-1.907-.117-2.887-.41-2.919-1.217-.06-1.56 4.896-3.43 15.494-6.127L24.266 7zm.918 9.92H6.816v7.272h18.368v-7.271zM8.449 21.769v.817h-.816v-.817h.816zm1.224 0v.817h-.816v-.817h.816zm1.225 0v.817h-.816v-.817h.816zm1.224 0v.817h-.816v-.817h.816zm7.347 0v.817h-6.938v-.817h6.938zm1.225 0v.817h-.816v-.817h.816zm1.224 0v.817h-.816v-.817h.816zm1.225 0v.817h-.816v-.817h.816zm1.224 0v.817h-.816v-.817h.816zm-2.449-1.616v.817H7.633v-.817h14.285zm2.45-1.616v2.433h-2.041v-.817h1.224v-1.616h.816zm-1.225 0v.817H7.633v-.817h15.51z"/>
    </g>
</svg>
