<svg xmlns="http://www.w3.org/2000/svg" width="32" height="32" viewBox="0 0 32 32">
    <g fill="currentColor">
        <!-- <path d="M16 0c8.837 0 16 7.163 16 16s-7.163 16-16 16S0 24.837 0 16 7.163 0 16 0zm0 1.5C7.992 1.5 1.5 7.992 1.5 16S7.992 30.5 16 30.5 30.5 24.008 30.5 16 24.008 1.5 16 1.5z"/> -->
        <path d="M24 8v16H8V8h16zM12 9.5H9.5v13H11V16h10v6.5h1.5v-13H20V13h-8V9.5zm7.5 8h-7v5h7v-5zm-1.083 2.75v1.5h-4.834v-1.5h4.834zm0-2v1.5h-4.834v-1.5h4.834zM18.5 9.5h-5v2h5v-2z"/>
    </g>
</svg>
