<svg xmlns="http://www.w3.org/2000/svg" width="32" height="32" viewBox="0 0 32 32">
    <g fill="none" fill-rule="evenodd">
        <g fill="currentColor">
            <g>
                <g>
                    <g>
                        <path d="M26 7v16h-6v2h4v1.5H8V25h4v-2H6V7h20zm-7.5 16h-5v2h5v-2zm6-14.5h-17v13h17v-13zM16 10c2.761 0 5 2.239 5 5s-2.239 5-5 5-5-2.239-5-5 2.239-5 5-5zm0 1.5c-1.933 0-3.5 1.567-3.5 3.5s1.567 3.5 3.5 3.5 3.5-1.567 3.5-3.5-1.567-3.5-3.5-3.5zM15 13h1.5v1.25h1.25v1.5H15V13z" transform="translate(-763 -2043) translate(631 139) translate(0 1897) translate(132 7)"/>
                    </g>
                </g>
            </g>
        </g>
    </g>
</svg>
