<svg xmlns="http://www.w3.org/2000/svg" width="32" height="32" viewBox="0 0 32 32">
    <g fill="currentColor">
        <path d="M16 0c8.837 0 16 7.163 16 16s-7.163 16-16 16S0 24.837 0 16 7.163 0 16 0zm0 1.5C7.992 1.5 1.5 7.992 1.5 16S7.992 30.5 16 30.5 30.5 24.008 30.5 16 24.008 1.5 16 1.5z"/>
        <path d="M10.5 7v1h1.75V7h1.5v1h1.75V7H17v1h1.75V7h1.5v1H22V7h1.5v1H26v16H6V8h3V7h1.5zm14 6.25h-17v9.25h17v-9.25zM10.5 19v1.5H9V19h1.5zm2 0v1.5H11V19h1.5zm2 0v1.5H13V19h1.5zm-4-2v1.5H9V17h1.5zm2 0v1.5H11V17h1.5zm2 0v1.5H13V17h1.5zm2 0v1.5H15V17h1.5zm2 0v1.5H17V17h1.5zm2 0v1.5H19V17h1.5zm2 0v1.5H21V17h1.5zm-6-2v1.5H15V15h1.5zm2 0v1.5H17V15h1.5zm2 0v1.5H19V15h1.5zm2 0v1.5H21V15h1.5zM9 9.5H7.5v2.25h17V9.5h-1V11H22V9.5h-1.75V11h-1.5V9.5H17V11h-1.5V9.5h-1.75V11h-1.5V9.5H10.5V11H9V9.5z"/>
    </g>
</svg>
