<svg xmlns="http://www.w3.org/2000/svg" width="32" height="32" viewBox="0 0 32 32">
    <g fill="none" fill-rule="evenodd">
        <path d="M0 0H32V32H0z"/>
        <path fill="currentColor" fill-rule="nonzero" d="M16 0c8.837 0 16 7.163 16 16s-7.163 16-16 16S0 24.837 0 16 7.163 0 16 0zm0 1.5C7.992 1.5 1.5 7.992 1.5 16S7.992 30.5 16 30.5 30.5 24.008 30.5 16 24.008 1.5 16 1.5z"/>
        <path fill="currentColor" fill-rule="nonzero" d="M15.69 5.427l3.57 5.098-1.23.86-3.059-4.368-.253.037c-1.106.177-2.015.493-2.732.942l-.21.139c-.746.522-1.418 1.314-2.01 2.385l-.12.225 2.805 4.004L24 14.75v10H8v-10l2.62-.001-2.711-3.872.19-.395c.77-1.602 1.705-2.798 2.817-3.576 1.031-.722 2.353-1.182 3.96-1.39l.375-.044.439-.045zM22.5 16.25h-13v7h13v-7z"/>
    </g>
</svg>
