<svg xmlns="http://www.w3.org/2000/svg" width="32" height="32" viewBox="0 0 32 32">
    <g fill="currentColor">
        <!-- <path d="M16 0c8.837 0 16 7.163 16 16s-7.163 16-16 16S0 24.837 0 16 7.163 0 16 0zm0 1.5C7.992 1.5 1.5 7.992 1.5 16S7.992 30.5 16 30.5 30.5 24.008 30.5 16 24.008 1.5 16 1.5z"/> -->
        <path stroke="currentColor" stroke-width=".5" d="M5.478 11.369l1-.268.305 1.147c1.18-2.9 3.585-5.092 6.548-5.886 5.263-1.41 10.838 1.86 12.368 7.206l.048.17-1 .269C23.434 9.105 18.36 6.087 13.6 7.362c-2.79.747-5.033 2.89-6.022 5.713l1.585-.424.268 1-3.117.835-.835-3.117zm.775 6.892l1-.268c1.313 4.902 6.387 7.92 11.148 6.645 2.73-.732 4.995-2.825 6.056-5.497l-1.272.339-.268-1 3.117-.835.835 3.117-1 .268-.422-1.58c-1.167 3.005-3.7 5.363-6.778 6.188-5.263 1.41-10.838-1.86-12.368-7.206l-.048-.17z"/>
    </g>
</svg>
