<svg xmlns="http://www.w3.org/2000/svg" width="32" height="32" viewBox="0 0 32 32">
    <g fill="none" fill-rule="evenodd">
        <path d="M0 0H32V32H0z"/>
        <path fill="currentColor" fill-rule="nonzero" d="M16 0c8.837 0 16 7.163 16 16s-7.163 16-16 16S0 24.837 0 16 7.163 0 16 0zm0 1.5C7.992 1.5 1.5 7.992 1.5 16S7.992 30.5 16 30.5 30.5 24.008 30.5 16 24.008 1.5 16 1.5zm.08 4.5c3.91 0 7.08 3.134 7.08 7 0 3.71-2.919 6.745-6.61 6.985v7.084h-1.327v-7.12C11.717 19.531 9 16.58 9 13c0-3.866 3.17-7 7.08-7zm0 1.313c-3.177 0-5.753 2.546-5.753 5.687 0 3.141 2.576 5.688 5.753 5.688S21.832 16.14 21.832 13c0-3.141-2.575-5.688-5.752-5.688zm3.25 4.857v1.5h-6.5v-1.5h6.5z"/>
    </g>
</svg>
