<svg xmlns="http://www.w3.org/2000/svg" width="32" height="32" viewBox="0 0 32 32">
    <g fill="none" fill-rule="evenodd">
        <path d="M0 0H32V32H0z"/>
        <path fill="currentColor" fill-rule="nonzero" d="M23.071 8.929c3.905 3.905 3.905 10.237 0 14.142-3.905 3.905-10.237 3.905-14.142 0-2.193-2.192-3.154-5.15-2.885-8.013l1.494.14c-.23 2.434.588 4.948 2.452 6.812 3.319 3.32 8.701 3.32 12.02 0 3.32-3.319 3.32-8.701 0-12.02-3.147-3.148-8.148-3.31-11.487-.49h1.227V11H8V7.25h1.5V8.4c3.929-3.368 9.85-3.191 13.571.529z"/>
        <!-- <path fill="currentColor" fill-rule="nonzero" d="M16 0c8.837 0 16 7.163 16 16s-7.163 16-16 16S0 24.837 0 16 7.163 0 16 0zm0 1.5C7.992 1.5 1.5 7.992 1.5 16S7.992 30.5 16 30.5 30.5 24.008 30.5 16 24.008 1.5 16 1.5z"/> -->
    </g>
</svg>
