<svg xmlns="http://www.w3.org/2000/svg" width="32" height="32" viewBox="0 0 32 32">
    <g fill="none" fill-rule="evenodd">
        <path d="M0 0H32V32H0z"/>
        <path fill="currentColor" fill-rule="nonzero" d="M8.206 5h15.588L19 11.457l.001 2.625c2.858 1.157 4.896 3.92 4.995 7.169L24 21.5h-7.25v5.25h-1.5V21.5H8c0-3.357 2.068-6.232 5-7.418v-2.623L8.206 5zm14.119 15l-.053-.212c-.506-1.855-1.818-3.408-3.59-4.21l-.244-.106-.937-.379-.001-4.132 3.312-4.462h-9.625l3.313 4.464v4.13l-.937.379c-1.882.762-3.282 2.35-3.82 4.266L9.673 20h12.651z"/>
    </g>
</svg>
