<svg xmlns="http://www.w3.org/2000/svg" width="32" height="32" viewBox="0 0 32 32">
    <g fill="none" fill-rule="evenodd">
        <path d="M0 0H32V32H0z"/>
        <path fill="currentColor" fill-rule="nonzero" d="M11.08 8.92c3.709 0 6.744 2.918 6.984 6.608h10.868v5.974h-1.313v-4.646h-2.167v3.763H24.14v-3.763h-6.111c-.418 3.507-3.37 6.224-6.95 6.224-3.865 0-7-3.17-7-7.08s3.135-7.08 7-7.08zm0 1.328c-3.141 0-5.688 2.575-5.688 5.752 0 3.177 2.547 5.752 5.688 5.752 3.14 0 5.687-2.575 5.687-5.752 0-3.177-2.546-5.752-5.687-5.752z"/>
    </g>
</svg>
