<svg xmlns="http://www.w3.org/2000/svg" width="32" height="32" viewBox="0 0 32 32">
    <g fill="none" fill-rule="evenodd">
        <path d="M0 0H32V32H0z"/>
        <path fill="currentColor" fill-rule="nonzero" stroke="currentColor" stroke-width=".5" d="M15.894 8c2.14 0 5.275 1.775 9.478 5.31l.628.532-1.087.885c-1.278 1.034-2.225 1.768-2.842 2.203-.635.448-1.238.841-1.81 1.18l3.02 3.066-.524.533-3.167-3.218c-1.318.711-2.45 1.102-3.405 1.17V24h-.74v-4.354c-.947-.1-2.057-.51-3.334-1.226l-3.238 3.289-.524-.533 3.098-3.147c-1.422-.875-3.036-2.098-4.847-3.67l-.6-.524.388-.34C10.571 9.838 13.715 8 15.894 8zm0 .898l-.097.001c-1.803.056-4.564 1.635-8.222 4.752l-.215.185.014.012c3.525 3.031 6.233 4.659 8.071 4.895v-.014h.74v.03c.904-.078 2.048-.511 3.423-1.304l.006-.005c.548-.315 1.133-.688 1.753-1.118l.274-.193.357-.26c.517-.385 1.196-.915 2.036-1.59l.567-.46c-3.948-3.293-6.872-4.931-8.707-4.931zm5.03 5.089l.523.533c-2.164 2.194-4.031 2.93-5.632 2.93-1.566 0-3.387-.688-5.491-2.789l-.141-.141.523-.533c2.038 2.067 3.75 2.71 5.109 2.71 1.328 0 2.995-.598 4.973-2.574l.136-.136z"/>
    </g>
</svg>
