<svg xmlns="http://www.w3.org/2000/svg" width="32" height="32" viewBox="0 0 32 32">
    <g fill="none" fill-rule="evenodd">
        <path d="M0 0H32V32H0z"/>
        <!-- <path fill="currentColor" fill-rule="nonzero" d="M16 0c8.837 0 16 7.163 16 16s-7.163 16-16 16S0 24.837 0 16 7.163 0 16 0zm0 1.5C7.992 1.5 1.5 7.992 1.5 16S7.992 30.5 16 30.5 30.5 24.008 30.5 16 24.008 1.5 16 1.5z"/> -->
        <path fill="currentColor" fill-rule="nonzero" d="M26 8v16H6V8h20zm-1.5 1.5h-17v13h17v-13z"/>
        <path fill="currentColor" fill-rule="nonzero" d="M25.25 12L25.25 13.5 6.75 13.5 6.75 12z"/>
        <!-- <circle cx="8.75" cy="10.75" r="1" fill="currentColor"/>
        <circle cx="10.75" cy="10.75" r="1" fill="currentColor"/> -->
        <path fill="currentColor" fill-rule="nonzero" stroke="currentColor" stroke-width=".5" d="M13.703 19.938v-.765l-2.445-.988 2.445-1.008v-.766l-3.195 1.477v.57l3.195 1.48zm1.281 1.25l2.372-6.175h-.618l-2.375 6.175h.621zm3.13-1.253l3.335-1.48v-.571l-3.336-1.477v.742l2.582 1.012-2.582 1.024v.75z"/>
    </g>
</svg>
