<svg xmlns="http://www.w3.org/2000/svg" width="32" height="32" viewBox="0 0 32 32">
    <g fill="currentColor">
        <!-- <path d="M16 0c8.837 0 16 7.163 16 16s-7.163 16-16 16S0 24.837 0 16 7.163 0 16 0zm0 1.5C7.992 1.5 1.5 7.992 1.5 16S7.992 30.5 16 30.5 30.5 24.008 30.5 16 24.008 1.5 16 1.5z"/> -->
        <path d="M22 15c2.761 0 5 2.239 5 5s-2.239 5-5 5-5-2.239-5-5 2.239-5 5-5zM10.5 7v1h1.75V7h1.5v1h1.75V7H17v1h1.75V7h1.5v1H22V7h1.5v1H26v7.529c-.444-.4-.95-.732-1.5-.985V13.25h-17v9.25h9.044c.253.55.586 1.056.985 1.5H6V8h3V7h1.5zM22 16.5c-1.933 0-3.5 1.567-3.5 3.5s1.567 3.5 3.5 3.5 3.5-1.567 3.5-3.5-1.567-3.5-3.5-3.5zm.5 1.5v1.25h1.25v1.5H21V18h1.5zM9 9.5H7.5v2.25h17V9.5h-1V11H22V9.5h-1.75V11h-1.5V9.5H17V11h-1.5V9.5h-1.75V11h-1.5V9.5H10.5V11H9V9.5z"/>
    </g>
</svg>
