<svg xmlns="http://www.w3.org/2000/svg" width="32" height="32" viewBox="0 0 32 32">
    <g fill="none" fill-rule="evenodd">
        <path d="M0 0H32V32H0z"/>
        <path fill="currentColor" fill-rule="nonzero" d="M16 0c8.837 0 16 7.163 16 16s-7.163 16-16 16S0 24.837 0 16 7.163 0 16 0zm0 1.5C7.992 1.5 1.5 7.992 1.5 16S7.992 30.5 16 30.5 30.5 24.008 30.5 16 24.008 1.5 16 1.5z"/>
        <path stroke="currentColor" stroke-width="1.5" d="M10 7L10 11 14 11" transform="scale(1 -1) rotate(45 33.728 0)"/>
        <path stroke="currentColor" stroke-width="1.5" d="M9 9L24 9 24 24 9 24 9 15.214"/>
    </g>
</svg>
