<svg xmlns="http://www.w3.org/2000/svg" width="32" height="32" viewBox="0 0 32 32">
    <g fill="none" fill-rule="evenodd">
        <path d="M0 0H32V32H0z"/>
        <!-- <path fill="currentColor" fill-rule="nonzero" d="M16 0c8.837 0 16 7.163 16 16s-7.163 16-16 16S0 24.837 0 16 7.163 0 16 0zm0 1.5C7.992 1.5 1.5 7.992 1.5 16S7.992 30.5 16 30.5 30.5 24.008 30.5 16 24.008 1.5 16 1.5z"/> -->
        <path fill="currentColor" fill-rule="nonzero" d="M7.5 20.25v2.25h2.25V24H6v-3.75h1.5zm18.498-.001v3.75h-3.75v-1.5h2.25v-2.25h1.5zM23 10v12H9V10h14zm-1.5 1.5h-11v9h11v-9zm-4.822 1.33v2.637l.828-.828 1.061 1.061-2.131 2.13h2.242v1.5h-5.5v-1.5h2.216l-2.13-2.13 1.06-1.06.854.854V12.83h1.5zM9.758 8v1.5h-2.25v2.25h-1.5V8h3.75zm16.248 0v3.75h-1.5V9.5h-2.25V8h3.75z"/>
    </g>
</svg>
