<svg xmlns="http://www.w3.org/2000/svg" width="32" height="32" viewBox="0 0 32 32">
    <g fill="currentColor" fill-rule="evenodd">
        <!-- <path fill-rule="nonzero" d="M16 0c8.837 0 16 7.163 16 16s-7.163 16-16 16S0 24.837 0 16 7.163 0 16 0zm0 1.5C7.992 1.5 1.5 7.992 1.5 16S7.992 30.5 16 30.5 30.5 24.008 30.5 16 24.008 1.5 16 1.5z"/> -->
        <path d="M26 7v16h-6v2h4v1.5H8V25h4v-2H6V7h20zm-7.5 16h-5v2h5v-2zm6-14.5h-17v13h17v-13zm-12 8.5c.56 0 1.048.307 1.306.762H23v1.5l-9.209.001c-.26.441-.741.737-1.291.737-.55 0-1.03-.296-1.291-.737H9v-1.5l2.194-.001c.258-.455.746-.762 1.306-.762zm3-3.763c.56 0 1.049.307 1.306.762L23 14v1.5h-6.209c-.26.442-.741.737-1.291.737-.55 0-1.03-.295-1.291-.736L9 15.5V14h5.194c.257-.456.746-.763 1.306-.763zm4-3.237c.56 0 1.048.307 1.306.762H23v1.5l-2.209.001c-.26.441-.741.737-1.291.737-.55 0-1.03-.296-1.291-.737H9v-1.5l9.194-.001c.258-.455.746-.762 1.306-.762z"/>
    </g>
</svg>
