<svg xmlns="http://www.w3.org/2000/svg" width="32" height="32" viewBox="0 0 32 32">
    <g fill="none" fill-rule="evenodd">
        <path d="M0 0H32V32H0z"/>
        <path fill="currentColor" fill-rule="nonzero" d="M16.08 6C12.17 6 9 9.134 9 13s3.17 7 7.08 7 7.08-3.134 7.08-7-3.17-7-7.08-7zm0 1.312c3.177 0 5.752 2.547 5.752 5.688 0 3.141-2.575 5.687-5.752 5.687-3.177 0-5.753-2.546-5.753-5.687 0-3.141 2.576-5.688 5.753-5.688z"/>
        <path fill="currentColor" fill-rule="nonzero" d="M16.551 18.821L16.551 27.069 15.223 27.069 15.223 18.821z" transform="matrix(-1 0 0 1 31.774 0)"/>
        <path fill="currentColor" fill-rule="nonzero" d="M16.83 9.67v2.5h2.5v1.5h-2.501v2.5h-1.5v-2.5h-2.5v-1.5h2.5v-2.5h1.5z"/>
        <path fill="currentColor" fill-rule="nonzero" d="M16 0c8.837 0 16 7.163 16 16s-7.163 16-16 16S0 24.837 0 16 7.163 0 16 0zm0 1.5C7.992 1.5 1.5 7.992 1.5 16S7.992 30.5 16 30.5 30.5 24.008 30.5 16 24.008 1.5 16 1.5z"/>
    </g>
</svg>
