<svg xmlns="http://www.w3.org/2000/svg" width="32" height="32" viewBox="0 0 32 32">
    <g fill="none" fill-rule="evenodd">
        <path d="M0 0H32V32H0z"/>
        <!-- <path fill="currentColor" fill-rule="nonzero" d="M16 0c8.837 0 16 7.163 16 16s-7.163 16-16 16S0 24.837 0 16 7.163 0 16 0zm0 1.5C7.992 1.5 1.5 7.992 1.5 16S7.992 30.5 16 30.5 30.5 24.008 30.5 16 24.008 1.5 16 1.5z"/> -->
        <path fill="currentColor" fill-rule="nonzero" d="M23.601 9.71l-6.54 6.54 6.54 6.54-1.06 1.061L16 17.311l-6.54 6.54-1.061-1.06 6.54-6.541L8.4 9.71l1.06-1.061L16 15.189l6.54-6.54 1.061 1.06z"/>
    </g>
</svg>
