<svg xmlns="http://www.w3.org/2000/svg" width="32" height="32" viewBox="0 0 32 32">
    <g fill="none" fill-rule="evenodd">
        <!-- <path fill="currentColor" fill-rule="nonzero" d="M16 0c8.837 0 16 7.163 16 16s-7.163 16-16 16S0 24.837 0 16 7.163 0 16 0zm0 1.5C7.992 1.5 1.5 7.992 1.5 16S7.992 30.5 16 30.5 30.5 24.008 30.5 16 24.008 1.5 16 1.5z"/> -->
        <path stroke="currentColor" stroke-width="1.5" d="M14.25 3.998c-1.17.34-2.2 1.015-2.977 1.913C10.324 7.007 9.75 8.436 9.75 10c0 1.226.353 2.37.963 3.335.713 1.128 1.776 2.011 3.037 2.498V28.25h4.5V15.833c1.261-.487 2.324-1.371 3.037-2.498.61-.965.963-2.109.963-3.335 0-1.563-.574-2.993-1.523-4.089-.777-.897-1.806-1.572-2.976-1.913L17.75 9.75h-3.5V3.998z"/>
    </g>
</svg>
