<svg xmlns="http://www.w3.org/2000/svg" width="32" height="32" viewBox="0 0 32 32">
    <g fill="none" fill-rule="evenodd">
        <path d="M0 0H32V32H0z"/>
        <path fill="currentColor" fill-rule="nonzero" d="M16 0c8.837 0 16 7.163 16 16s-7.163 16-16 16S0 24.837 0 16 7.163 0 16 0zm0 1.5C7.992 1.5 1.5 7.992 1.5 16S7.992 30.5 16 30.5 30.5 24.008 30.5 16 24.008 1.5 16 1.5z"/>
        <path fill="currentColor" fill-rule="nonzero" d="M19.26 9.417l-.229-.115c-1.007-.489-1.933-.752-2.778-.795l-.25-.007c-.911 0-1.917.264-3.016.801l-.227.115v5.334h-1.5V8.528l.383-.215C13.193 7.443 14.645 7 16.003 7c1.258 0 2.605.382 4.04 1.132l.333.18.385.215v6.223H24v10H8v-10h11.26V9.417zm3.24 6.833h-13v7h13v-7z"/>
    </g>
</svg>
