<svg xmlns="http://www.w3.org/2000/svg" width="32" height="32" viewBox="0 0 32 32">
    <g fill="none" fill-rule="evenodd">
        <path d="M0 0H32V32H0z"/>
        <path fill="currentColor" fill-rule="nonzero" stroke="currentColor" stroke-width=".5" d="M16.185 8v4.34c.955.067 2.087.458 3.405 1.17l3.167-3.219.523.533-3.018 3.066c.57.339 1.174.732 1.809 1.18.573.404 1.43 1.065 2.573 1.986l.27.217 1.086.885-.628.532C21.169 22.225 18.034 24 15.894 24c-2.117 0-5.144-1.734-9.15-5.187l-.356-.309-.388-.34.6-.523c1.811-1.572 3.425-2.795 4.847-3.67L8.35 10.824l.524-.533 3.238 3.29c1.277-.717 2.387-1.127 3.334-1.227V8h.74zm0 5.24v.03h-.74v-.013c-1.778.228-4.369 1.758-7.726 4.6l-.345.295-.014.012.215.185c3.544 3.02 6.245 4.596 8.05 4.742l.172.01.097.001c1.78 0 4.583-1.54 8.351-4.637l.356-.295-.567-.459c-.747-.6-1.366-1.086-1.857-1.456l-.179-.134-.357-.26-.274-.193c-.62-.43-1.205-.803-1.753-1.12v.002c-1.38-.798-2.525-1.231-3.43-1.31zm-.334.781c2.205 0 3.991 1.809 3.991 4.04s-1.786 4.04-3.99 4.04c-2.205 0-3.991-1.809-3.991-4.04s1.786-4.04 3.99-4.04zm0 .898c-1.714 0-3.103 1.407-3.103 3.142 0 1.735 1.39 3.142 3.103 3.142 1.715 0 3.104-1.407 3.104-3.142 0-1.735-1.39-3.142-3.104-3.142z"/>
    </g>
</svg>
