<svg xmlns="http://www.w3.org/2000/svg" width="100" height="100" viewBox="0 0 100 100">
    <g fill="none" fill-rule="evenodd">
        <circle cx="50" cy="50" r="49" fill="#FFF" stroke="#9E3398" stroke-width="2"/>
        <path fill="#9E3398" fill-rule="nonzero" d="M71.971 31v32.018L58 63.017V66h6v2H36v-2h6v-2.983H28V31h43.971zM56 63.017H44V66h12v-2.983zm13.971-30.018H30v28.018h12v-.008h2v.008h12v-.008h2v.008h11.971V32.999zM68 35v22H32V35h36zm-2 2H34v18h32V37zm-15.08 1.75l.461.014.265.021c3.628.352 6.48 3.322 6.6 6.976l.004.239c0 4.005-3.282 7.25-7.33 7.25-4.047 0-7.329-3.245-7.329-7.25 0-.994.203-1.96.59-2.852l.019-.044-2.995.974-.52-1.429 5.895-1.914 2.12 5.824-1.446.47-1.379-3.787-.026.045a5.716 5.716 0 0 0-.671 2.425L45.17 46a5.75 5.75 0 1 0 5.952-5.747l-.241-.008V38.75h.039z"/>
    </g>
</svg>
