<?xml version="1.0" encoding="utf-8"?>
<!-- Generator: Adobe Illustrator 23.0.4, SVG Export Plug-In . SVG Version: 6.00 Build 0)  -->
<svg version="1.1" id="圖層_1" xmlns="http://www.w3.org/2000/svg" xmlns:xlink="http://www.w3.org/1999/xlink" x="0px" y="0px"
	 viewBox="0 0 32 32" style="enable-background:new 0 0 32 32;" xml:space="preserve">
<style type="text/css">
	.st0{fill-rule:evenodd;clip-rule:evenodd;fill:#9B0B0B;stroke:#FFFFFF;stroke-width:2;}
	.st1{fill:#FFFFFF;}
</style>
<circle class="st0" cx="16" cy="16" r="14.3"/>
<path class="st1" d="M24.8,8.6v12.9h-5.6v1.2h2.4v0.8H10.4v-0.8h2.4v-1.2H7.2V8.6H24.8z M18.4,21.5h-4.8v1.2h4.8V21.5z M24,9.4H8
	v11.3h4.8l0,0h0.8l0,0h4.8l0,0h0.8l0,0H24V9.4L24,9.4z M23.2,10.2V19H8.8v-8.9L23.2,10.2L23.2,10.2z M22.4,11.1H9.6v7.3h12.8
	C22.4,18.3,22.4,11.1,22.4,11.1z"/>
</svg>
