<?xml version="1.0" encoding="utf-8"?>
<!-- Generator: Adobe Illustrator 16.0.0, SVG Export Plug-In . SVG Version: 6.00 Build 0)  -->
<!DOCTYPE svg PUBLIC "-//W3C//DTD SVG 1.1//EN" "http://www.w3.org/Graphics/SVG/1.1/DTD/svg11.dtd">
<svg version="1.1" id="圖層_1" xmlns="http://www.w3.org/2000/svg" xmlns:xlink="http://www.w3.org/1999/xlink" x="0px" y="0px"
	 width="32px" height="32px" viewBox="0 0 32 32" enable-background="new 0 0 32 32" xml:space="preserve">
<path fill="none" d="M0,32h32V0H0V32z"/>
<path fill="currentColor" d="M10,21h12c0.002-1.568-0.614-3.074-1.715-4.191L20,16.518v-3.519C19.997,10.791,18.208,9.002,16,9
	c-2.205,0-4,1.794-4,3.999v3.519l-0.284,0.291C10.615,17.926,9.999,19.432,10,21z M24,23H8.001L8,21.001c0-1.96,0.707-3.821,2-5.285
	v-2.717C10.004,9.687,12.688,7.003,16,7c3.309,0,6,2.691,6,5.999v2.718c1.291,1.456,2.003,3.336,1.999,5.282L24,23z"/>
<path fill="currentColor" d="M15,9h2V6h-2V9z M15,23c0,0.553,0.448,1,1,1c0.553,0,1-0.447,1-1H15z M16,26
	c-1.659-0.004-3.001-1.352-2.998-3.01c0.001-0.524,0.139-1.039,0.4-1.493L13.693,21h4.616l0.289,0.498
	C18.861,21.953,19,22.473,19,22.999C19,24.654,17.654,26,16,26z"/>
</svg>
