<?xml version="1.0" encoding="utf-8"?>
<!-- Generator: Adobe Illustrator 16.0.0, SVG Export Plug-In . SVG Version: 6.00 Build 0)  -->
<!DOCTYPE svg PUBLIC "-//W3C//DTD SVG 1.1//EN" "http://www.w3.org/Graphics/SVG/1.1/DTD/svg11.dtd">
<svg version="1.1" id="圖層_1" xmlns="http://www.w3.org/2000/svg" xmlns:xlink="http://www.w3.org/1999/xlink" x="0px" y="0px"
	 width="32px" height="32px" viewBox="0 0 32 32" enable-background="new 0 0 32 32" xml:space="preserve">
<path fill="none" d="M0,0h32v32H0V0z"/>
<path fill="currentColor" d="M16,17.768c-1.103,0-2-0.896-2-2s0.897-2,2-2c1.104,0,2,0.897,2,2S17.104,17.768,16,17.768 M16,11.768
	c-2.206,0-4,1.794-4,4c0,2.207,1.794,4,4,4s4-1.793,4-4C20,13.562,18.206,11.768,16,11.768"/>
<path fill="currentColor" d="M23.917,16.882l-2.042,0.228l-0.206,0.6c-0.251,0.733-0.644,1.41-1.153,1.993l-0.418,0.478l0.822,1.877
	c-0.587,0.463-1.234,0.841-1.926,1.125l-1.215-1.652l-0.622,0.123c-0.763,0.153-1.548,0.153-2.311,0l-0.623-0.123l-1.217,1.654
	c-0.691-0.282-1.339-0.661-1.924-1.125l0.823-1.879l-0.42-0.478c-0.511-0.583-0.903-1.261-1.154-1.994l-0.206-0.601l-2.041-0.226
	C8.029,16.514,8,16.142,8,15.77c0-0.366,0.028-0.74,0.084-1.116l2.04-0.228l0.207-0.597c0.253-0.734,0.646-1.412,1.158-1.996
	l0.417-0.48L11.083,9.48c0.586-0.462,1.234-0.841,1.925-1.125l1.217,1.65l0.622-0.123c0.763-0.15,1.547-0.15,2.31,0l0.622,0.123
	l1.215-1.65c0.684,0.28,1.334,0.66,1.924,1.125l-0.82,1.876l0.416,0.478c0.514,0.589,0.903,1.26,1.155,1.995l0.206,0.598
	l2.042,0.227C24.027,15.393,24.027,16.144,23.917,16.882 M25.734,13.515l-0.16-0.69l-2.248-0.25c-0.24-0.55-0.543-1.071-0.9-1.552
	l0.905-2.065l-0.517-0.483c-1.108-1.041-2.439-1.816-3.893-2.267L18.244,6l-1.34,1.82c-0.6-0.069-1.206-0.069-1.805,0L13.758,6
	L13.08,6.208c-1.453,0.451-2.784,1.225-3.893,2.265l-0.52,0.484l0.909,2.065c-0.358,0.482-0.661,1.003-0.902,1.554l-2.248,0.25
	l-0.16,0.689C6.092,14.255,6.003,15.011,6,15.77c0,0.737,0.09,1.494,0.266,2.251l0.16,0.689l2.248,0.249
	c0.24,0.55,0.54,1.069,0.9,1.556l-0.905,2.065l0.518,0.483c1.109,1.039,2.439,1.813,3.89,2.266l0.679,0.208l1.34-1.822
	c0.601,0.07,1.207,0.07,1.808,0l1.34,1.822l0.679-0.208c1.452-0.452,2.783-1.228,3.894-2.268l0.518-0.482l-0.906-2.066
	c0.357-0.482,0.659-1.004,0.899-1.554l2.249-0.25l0.158-0.69C25.912,17.26,26,16.503,26,15.77
	C25.998,15.011,25.908,14.254,25.734,13.515"/>
</svg>
