<?xml version="1.0" encoding="utf-8"?>
<!-- Generator: Adobe Illustrator 16.0.0, SVG Export Plug-In . SVG Version: 6.00 Build 0)  -->
<!DOCTYPE svg PUBLIC "-//W3C//DTD SVG 1.1//EN" "http://www.w3.org/Graphics/SVG/1.1/DTD/svg11.dtd">
<svg version="1.1" id="圖層_1" xmlns="http://www.w3.org/2000/svg" xmlns:xlink="http://www.w3.org/1999/xlink" x="0px" y="0px"
	 width="32px" height="32px" viewBox="0 0 32 32" enable-background="new 0 0 32 32" xml:space="preserve">
<path fill="none" d="M0,0h32v32H0V0z"/>
<path fill="currentColor" d="M10.736,22.009C12.185,20.716,14.058,20.001,16,20c1.941,0,3.816,0.716,5.266,2.009
	C18.258,24.663,13.744,24.663,10.736,22.009 M14,16c0-1.102,0.898-2,2-2c1.104,0,2,0.898,2,2c0,1.104-0.896,2-2,2
	C14.898,18,14,17.104,14,16 M16,8c4.411,0,8,3.589,8,8c0.002,1.614-0.488,3.19-1.404,4.52c-1.016-0.906-2.207-1.594-3.5-2.017
	c0.58-0.705,0.9-1.589,0.904-2.503c0-2.205-1.794-4-4-4c-2.205,0-4,1.795-4,4c0,0.952,0.348,1.814,0.905,2.503
	c-1.292,0.425-2.484,1.11-3.5,2.017C8.489,19.189,7.999,17.613,8,16C8,11.589,11.589,8,16,8 M16,6C10.486,6,6,10.486,6,16
	c0,5.514,4.486,10,10,10c5.514,0,10-4.486,10-10C26,10.486,21.514,6,16,6"/>
</svg>
