<svg xmlns="http://www.w3.org/2000/svg" width="32" height="32" viewBox="0 0 32 32">
    <g fill="none" fill-rule="evenodd">
        <circle cx="16" cy="16" r="15.5" fill="currentColor" stroke="currentColor"/>
        <path fill="#FFF" fill-rule="nonzero" d="M23.197 7.035V8.07l-1.188-.002C24.506 9.96 26 12.848 26 15.916c0 5.45-4.6 9.988-10.16 10.082L15.66 26v-1.035c5.075 0 9.304-4.12 9.304-9.049 0-2.888-1.489-5.609-3.96-7.296v1.642H19.97V7.035h3.227zM16.339 6v1.035c-5.075 0-9.304 4.12-9.304 9.049 0 2.827 1.436 5.555 3.742 7.272l.002-1.316h1.035v3.226H8.587v-1.035l1.635.001C7.622 22.327 6 19.27 6 16.084c0-5.45 4.6-9.988 10.16-10.082L16.34 6zm1.109 3.622l2.885 1.508-.813 1.7.118.13c.343.38.574.684.747 1.012l.083.167.044.103h1.66v3.39h-1.658l-.056.136a6.448 6.448 0 0 1-.648 1.144l-.194.26-.082.1.81 1.41-2.871 1.876-.875-1.524h-1.654l-.874 1.524-2.928-1.913 1.036-1.354-.066-.067c-.31-.324-.52-.71-.733-1.278l-.08-.222-.032-.092H9.622v-3.39h1.658l.045-.103c.156-.34.36-.637.668-.995l.162-.184.085-.094-1.088-1.706 2.888-1.51 1.11 1.452h1.448l.85-1.48zm-3.7 1.349l-1.117.584.916 1.437-.393.412c-.559.592-.806.924-.972 1.374l-.048.139-.115.36h-1.363v1.32h1.363l.161.503c.294.899.498 1.292.91 1.611l.099.073.443.31-.991 1.294 1.077.704.627-1.092h2.852l.627 1.092 1.135-.741-.7-1.22.267-.28a5.291 5.291 0 0 0 1.054-1.669l.079-.224.115-.36h1.362v-1.321h-1.362l-.115-.36c-.163-.51-.392-.842-.967-1.457l-.166-.175-.247-.258.69-1.442-1.12-.586-.652 1.138H14.64l-.893-1.166zm2.149 3.225a1.872 1.872 0 1 1 0 3.744 1.872 1.872 0 0 1 0-3.744zm0 1.035a.837.837 0 1 0 0 1.674.837.837 0 0 0 0-1.674z"/>
    </g>
</svg>
