<svg xmlns="http://www.w3.org/2000/svg" width="160" height="160" viewBox="0 0 160 160">
    <g fill="#01AD21" fill-opacity=".4">
        <path d="M80 25.143c30.297 0 54.857 24.56 54.857 54.857S110.297 134.857 80 134.857 25.143 110.297 25.143 80 49.703 25.143 80 25.143zm0 4.571c-27.772 0-50.286 22.514-50.286 50.286 0 27.772 22.514 50.286 50.286 50.286 27.772 0 50.286-22.514 50.286-50.286 0-27.772-22.514-50.286-50.286-50.286z"/>
        <path d="M98.286 34.286L98.286 112 93.955 112 93.954 38.603 57.143 38.603 57.143 34.286z" transform="scale(1 -1) rotate(-45 -98.868 0)"/>
    </g>
</svg>
