<svg xmlns="http://www.w3.org/2000/svg" width="160" height="160" viewBox="0 0 160 160">
    <g fill="#F5BD00" fill-opacity=".4" fill-rule="evenodd">
        <path fill-rule="nonzero" d="M80 25.143c30.297 0 54.857 24.56 54.857 54.857S110.297 134.857 80 134.857 25.143 110.297 25.143 80 49.703 25.143 80 25.143zm0 4.571c-27.772 0-50.286 22.514-50.286 50.286 0 27.772 22.514 50.286 50.286 50.286 27.772 0 50.286-22.514 50.286-50.286 0-27.772-22.514-50.286-50.286-50.286zm0 6.857l38.857 66.286H41.143L80 36.571zm-.001 9.143L50.286 98.286h59.428L80 45.714z"/>
        <path fill-rule="nonzero" d="M82.286 61.714L82.286 89.143 77.714 89.143 77.714 61.714z"/>
        <circle cx="80" cy="93.714" r="2.286"/>
    </g>
</svg>
