<svg xmlns="http://www.w3.org/2000/svg" width="70" height="70" viewBox="0 0 70 70">
    <path fill="currentColor" d="M57 27v30H14V27h43zm-29.159 9.938L16.976 55h36.862l-9.022-12.448-9.073 7.513-7.902-13.127zM55 29H16v23.743l11.84-19.682 8.417 13.981 8.927-7.39L55 53.195V29zm-6 2c2.21 0 4 1.79 4 4s-1.79 4-4 4-4-1.79-4-4 1.79-4 4-4zm0 2c-1.105 0-2 .895-2 2s.895 2 2 2 2-.895 2-2-.895-2-2-2zM35 21c.292 0 .532.095.72.284.186.19.28.43.28.723 0 .287-.092.525-.275.712-.183.187-.425.281-.725.281s-.542-.094-.725-.281c-.183-.187-.275-.425-.275-.712 0-.292.094-.533.28-.723.188-.19.428-.284.72-.284zm11 0c.292 0 .532.095.72.284.186.19.28.43.28.723 0 .287-.092.525-.275.712-.183.187-.425.281-.725.281s-.542-.094-.725-.281c-.183-.187-.275-.425-.275-.712 0-.292.094-.533.28-.723.188-.19.428-.284.72-.284zm-22 0c.292 0 .532.095.72.284.186.19.28.43.28.723 0 .287-.092.525-.275.712-.183.187-.425.281-.725.281s-.542-.094-.725-.281c-.183-.187-.275-.425-.275-.712 0-.292.094-.533.28-.723.188-.19.428-.284.72-.284zm11.03-8c.941 0 1.671.232 2.19.697.52.465.78 1.122.78 1.97 0 .385-.084.75-.253 1.092-.145.293-.382.614-.713.962l-.173.177-.54.524c-.294.29-.48.623-.553.999l-.025.164-.027.415H34.01c0-.635.076-1.14.227-1.517.15-.376.427-.747.829-1.112.401-.365.669-.662.802-.891.133-.23.2-.47.2-.725 0-.766-.346-1.15-1.039-1.15-.329 0-.592.104-.79.31-.168.177-.269.411-.3.703l-.009.15H32c.009-.866.283-1.544.822-2.033.54-.49 1.276-.735 2.208-.735zm11 0c.941 0 1.671.232 2.19.697.52.465.78 1.122.78 1.97 0 .385-.084.75-.253 1.092-.145.293-.382.614-.713.962l-.173.177-.54.524c-.294.29-.48.623-.553.999l-.025.164-.027.415H45.01c0-.635.076-1.14.227-1.517.15-.376.427-.747.829-1.112.401-.365.669-.662.802-.891.133-.23.2-.47.2-.725 0-.766-.346-1.15-1.039-1.15-.329 0-.592.104-.79.31-.168.177-.269.411-.3.703l-.009.15H43c.009-.866.283-1.544.822-2.033.54-.49 1.276-.735 2.208-.735zm-22 0c.941 0 1.671.232 2.19.697.52.465.78 1.122.78 1.97 0 .385-.084.75-.253 1.092-.145.293-.382.614-.713.962l-.173.177-.54.524c-.294.29-.48.623-.553.999l-.025.164-.027.415H23.01c0-.635.076-1.14.227-1.517.15-.376.427-.747.829-1.112.401-.365.669-.662.802-.891.133-.23.2-.47.2-.725 0-.766-.346-1.15-1.039-1.15-.329 0-.592.104-.79.31-.168.177-.269.411-.3.703l-.009.15H21c.009-.866.283-1.544.822-2.033.54-.49 1.276-.735 2.208-.735z"/>
</svg>
