<svg xmlns="http://www.w3.org/2000/svg" width="160" height="160" viewBox="0 0 160 160">
    <g fill="currentColor">
        <!-- <g>
            <path d="M33.636 16l.061-.948c.112-1.016.553-1.903 1.324-2.66l1.233-1.197c.964-.953 1.64-1.821 2.025-2.604.385-.783.578-1.615.578-2.496 0-1.938-.593-3.439-1.78-4.501C35.888.53 34.22 0 32.067 0c-2.13 0-3.812.56-5.045 1.68-1.233 1.119-1.86 2.669-1.88 4.648h4.414c.02-.829.256-1.48.708-1.95.451-.473 1.053-.708 1.803-.708 1.583 0 2.375.876 2.375 2.627 0 .58-.152 1.133-.457 1.656-.304.524-.915 1.203-1.834 2.037-.918.835-1.55 1.682-1.895 2.543-.345.86-.517 2.016-.517 3.467M32 22.857c.687 0 1.24-.214 1.658-.642.418-.429.628-.971.628-1.629 0-.667-.214-1.217-.642-1.65-.428-.434-.976-.65-1.644-.65-.668 0-1.216.216-1.644.65-.428.433-.642.983-.642 1.65 0 .658.21 1.2.628 1.629.419.428.971.642 1.658.642zM58.78 16l.06-.948c.112-1.016.553-1.903 1.324-2.66l1.233-1.197c.964-.953 1.639-1.821 2.025-2.604.385-.783.578-1.615.578-2.496 0-1.938-.594-3.439-1.78-4.501C61.031.53 59.362 0 57.21 0c-2.13 0-3.813.56-5.045 1.68-1.233 1.119-1.86 2.669-1.88 4.648H54.7c.02-.829.256-1.48.708-1.95.451-.473 1.052-.708 1.803-.708 1.583 0 2.375.876 2.375 2.627 0 .58-.152 1.133-.457 1.656-.304.524-.916 1.203-1.834 2.037-.918.835-1.55 1.682-1.895 2.543-.345.86-.517 2.016-.517 3.467m2.26 6.857c.687 0 1.24-.214 1.658-.642.418-.429.628-.971.628-1.629 0-.667-.214-1.217-.642-1.65-.428-.434-.976-.65-1.644-.65-.668 0-1.216.216-1.644.65-.428.433-.642.983-.642 1.65 0 .658.21 1.2.628 1.629.419.428.971.642 1.658.642zM8.493 16l.061-.948c.112-1.016.553-1.903 1.325-2.66l1.232-1.197c.964-.953 1.64-1.821 2.025-2.604.385-.783.578-1.615.578-2.496 0-1.938-.593-3.439-1.78-4.501C10.745.53 9.076 0 6.925 0 4.795 0 3.113.56 1.88 1.68.647 2.798.02 4.348 0 6.327h4.414c.02-.829.256-1.48.708-1.95.451-.473 1.053-.708 1.804-.708 1.583 0 2.374.876 2.374 2.627 0 .58-.152 1.133-.456 1.656-.305.524-.916 1.203-1.835 2.037-.918.835-1.55 1.682-1.895 2.543-.345.86-.517 2.016-.517 3.467m2.26 6.857c.687 0 1.24-.214 1.658-.642.419-.429.628-.971.628-1.629 0-.667-.214-1.217-.642-1.65-.428-.434-.976-.65-1.644-.65-.668 0-1.216.216-1.644.65-.428.433-.642.983-.642 1.65 0 .658.21 1.2.628 1.629.419.428.971.642 1.658.642z" transform="translate(25.143 25.143) translate(25.143)"/>
        </g> -->
        <path d="M103.6 32c4.64 0 8.4 3.07 8.4 6.857v16c0 1.756-.809 3.358-2.139 4.571C111.191 60.642 112 62.244 112 64v16c0 1.756-.809 3.358-2.139 4.571 1.33 1.214 2.139 2.816 2.139 4.572v16c0 3.787-3.76 6.857-8.4 6.857H8.4c-4.64 0-8.4-3.07-8.4-6.857v-16c0-1.756.809-3.358 2.139-4.571C.809 83.358 0 81.756 0 80V64c0-1.756.809-3.358 2.139-4.571C.809 58.215 0 56.613 0 54.857v-16C0 35.07 3.76 32 8.4 32h95.2zm.971 54.857H7.43c-1.466 0-2.673.883-2.838 2.02l-.02.266v16c0 1.172 1.103 2.138 2.524 2.27l.334.016h97.142c1.466 0 2.673-.883 2.838-2.02l.02-.266v-16c0-1.172-1.103-2.138-2.524-2.27l-.334-.016zM63 93.714v4.572H12.6v-4.572H63zm33 0c1.262 0 2.286 1.024 2.286 2.286S97.262 98.286 96 98.286 93.714 97.262 93.714 96s1.024-2.286 2.286-2.286zm-9.143 0c1.263 0 2.286 1.024 2.286 2.286s-1.023 2.286-2.286 2.286c-1.262 0-2.286-1.024-2.286-2.286s1.024-2.286 2.286-2.286zm-9.143 0C78.977 93.714 80 94.738 80 96s-1.023 2.286-2.286 2.286c-1.262 0-2.285-1.024-2.285-2.286s1.023-2.286 2.285-2.286zm26.857-32H7.43c-1.466 0-2.673.883-2.838 2.02L4.57 64v16c0 1.172 1.103 2.138 2.524 2.27l.334.016h97.142c1.466 0 2.673-.883 2.838-2.02l.02-.266V64c0-1.172-1.103-2.138-2.524-2.27l-.334-.016zM63 68.571v4.572H12.6V68.57H63zm33 0c1.262 0 2.286 1.024 2.286 2.286 0 1.263-1.024 2.286-2.286 2.286s-2.286-1.023-2.286-2.286c0-1.262 1.024-2.286 2.286-2.286zm-9.143 0c1.263 0 2.286 1.024 2.286 2.286 0 1.263-1.023 2.286-2.286 2.286-1.262 0-2.286-1.023-2.286-2.286 0-1.262 1.024-2.286 2.286-2.286zm-9.143 0c1.263 0 2.286 1.024 2.286 2.286 0 1.263-1.023 2.286-2.286 2.286-1.262 0-2.285-1.023-2.285-2.286 0-1.262 1.023-2.286 2.285-2.286zm26.857-32H7.43c-1.466 0-2.673.883-2.838 2.02l-.02.266v16c0 1.172 1.103 2.138 2.524 2.27l.334.016h97.142c1.466 0 2.673-.883 2.838-2.02l.02-.266v-16c0-1.172-1.103-2.138-2.524-2.27l-.334-.016zM63 43.43V48H12.6v-4.571H63zm33 0c1.262 0 2.286 1.023 2.286 2.285C98.286 46.977 97.262 48 96 48s-2.286-1.023-2.286-2.286c0-1.262 1.024-2.285 2.286-2.285zm-9.143 0c1.263 0 2.286 1.023 2.286 2.285 0 1.263-1.023 2.286-2.286 2.286-1.262 0-2.286-1.023-2.286-2.286 0-1.262 1.024-2.285 2.286-2.285zm-9.143 0c1.263 0 2.286 1.023 2.286 2.285C80 46.977 78.977 48 77.714 48c-1.262 0-2.285-1.023-2.285-2.286 0-1.262 1.023-2.285 2.285-2.285z" transform="translate(25.143 25.143)"/>
    </g>
</svg>
