<svg xmlns="http://www.w3.org/2000/svg" width="70" height="70" viewBox="0 0 70 70">
    <g fill="currentColor">
        <path d="M27 33c0 8-2.333 12-7 12-4.597 0-6.93-3.881-6.998-11.644L13 33h14zm-1.589 1.6H14.588l.002.045c.265 5.965 2.037 8.661 5.24 8.753l.17.002c3.253 0 5.075-2.592 5.394-8.438l.017-.363zM27 26c0-8-2.333-12-7-12-4.597 0-6.93 3.881-6.998 11.644L13 26h14zm-1.589-1.6H14.588l.002-.045c.265-5.965 2.037-8.661 5.24-8.753L20 15.6c3.253 0 5.075 2.592 5.394 8.438l.017.362z" transform="matrix(0 -1 -1 0 65 55)"/>
        <path d="M17.5 29.5L17.5 34.5 15.5 34.5 15.5 29.5zM24.5 29.5L24.5 34.5 22.5 34.5 22.5 29.5zM34.398 40c3.572 0 5.52 1.96 5.6 5.595l.002.234h-1.633c0-2.89-1.236-4.183-3.97-4.183-2.684 0-3.95 1.11-4.073 3.544l-.007.2v7.78l-.003.22c-.101 3.407-2.563 5.61-5.655 5.61C21.5 59 19 56.702 19 53.17v-9.054h1.633v9.055l.003.202c.089 2.467 1.794 3.98 4.023 3.98 2.288 0 4.025-1.596 4.025-4.182v-7.833.012c.086-3.489 2.09-5.35 5.714-5.35zM5.602 19c-3.572 0-5.52-1.96-5.6-5.595L0 13.17h1.633c0 2.89 1.236 4.183 3.97 4.183 2.684 0 3.95-1.11 4.073-3.544l.007-.2V5.83l.003-.22C9.787 2.203 12.249 0 15.341 0 18.5 0 21 2.298 21 5.83v9.054h-1.633V5.83l-.003-.202c-.089-2.467-1.794-3.98-4.023-3.98-2.288 0-4.025 1.596-4.025 4.182v7.833-.012C11.23 17.14 9.225 19 5.601 19z" transform="matrix(0 -1 -1 0 65 55)"/>
    </g>
</svg>
