<svg xmlns="http://www.w3.org/2000/svg" width="160" height="160" viewBox="0 0 160 160">
    <path fill="#CA0000" fill-opacity=".4" d="M94.072 52.571l16.312 12.973.798 27.063 25.96 13.801-9.2 33.02H92.1L64 97.289h15.331l14.741 8.781V52.571zm4.172 8.693v52.2l-20.047-11.946h-6.339l22.456 33.68h30.472l7.421-26.639-25.119-13.35-.816-27.558-8.028-6.387zm16.042-38.407c12.623 0 22.857 10.234 22.857 22.857 0 11.852-9.021 21.598-20.571 22.745v-4.6c9.02-1.125 16-8.82 16-18.145 0-9.908-7.881-17.976-17.717-18.277l-.57-.008h-68.57c-10.1 0-18.286 8.186-18.286 18.285 0 9.909 7.88 17.976 17.716 18.277l.57.009h41.142v4.571H45.714c-12.623 0-22.857-10.233-22.857-22.857 0-12.623 10.234-22.857 22.857-22.857h68.572zm-54.972 13.16l3.233 3.232-6.464 6.464 6.464 6.466-3.233 3.233-6.463-6.467-6.467 6.467-3.232-3.233 6.466-6.466-6.466-6.464 3.232-3.232 6.467 6.463 6.463-6.463z"/>
</svg>
