<svg xmlns="http://www.w3.org/2000/svg" width="160" height="160" viewBox="0 0 160 160">
    <g fill="currentColor">
        <path d="M116.571 75.395L116.571 79.966 43.429 79.966 43.429 75.395z"/>
        <path d="M64.167 63.966L95.837 63.966 102.857 75.094 98.394 77.68 92.895 68.965 67.104 68.965 61.606 77.681 57.143 75.093zM102.155 77.681L107.429 78.049 103.492 132.538 56.513 132.538 52.571 78.049 57.845 77.681 61.433 127.339 98.566 127.339z"/>
        <path d="M75.429 86.823L75.429 118.823 70.857 118.823 70.857 86.823zM89.143 86.823L89.143 118.823 84.571 118.823 84.571 86.823z"/>
        <g>
            <path d="M33.636 16l.061-.948c.112-1.016.553-1.903 1.324-2.66l1.233-1.197c.964-.953 1.64-1.821 2.025-2.604.385-.783.578-1.615.578-2.496 0-1.938-.593-3.439-1.78-4.501C35.888.53 34.22 0 32.067 0c-2.13 0-3.812.56-5.045 1.68-1.233 1.119-1.86 2.669-1.88 4.648h4.414c.02-.829.256-1.48.708-1.95.451-.473 1.053-.708 1.803-.708 1.583 0 2.375.876 2.375 2.627 0 .58-.152 1.133-.457 1.656-.304.524-.915 1.203-1.834 2.037-.918.835-1.55 1.682-1.895 2.543-.345.86-.517 2.016-.517 3.467M32 22.857c.687 0 1.24-.214 1.658-.642.418-.429.628-.971.628-1.629 0-.667-.214-1.217-.642-1.65-.428-.434-.976-.65-1.644-.65-.668 0-1.216.216-1.644.65-.428.433-.642.983-.642 1.65 0 .658.21 1.2.628 1.629.419.428.971.642 1.658.642zM58.78 16l.06-.948c.112-1.016.553-1.903 1.324-2.66l1.233-1.197c.964-.953 1.639-1.821 2.025-2.604.385-.783.578-1.615.578-2.496 0-1.938-.594-3.439-1.78-4.501C61.031.53 59.362 0 57.21 0c-2.13 0-3.813.56-5.045 1.68-1.233 1.119-1.86 2.669-1.88 4.648H54.7c.02-.829.256-1.48.708-1.95.451-.473 1.052-.708 1.803-.708 1.583 0 2.375.876 2.375 2.627 0 .58-.152 1.133-.457 1.656-.304.524-.916 1.203-1.834 2.037-.918.835-1.55 1.682-1.895 2.543-.345.86-.517 2.016-.517 3.467m2.26 6.857c.687 0 1.24-.214 1.658-.642.418-.429.628-.971.628-1.629 0-.667-.214-1.217-.642-1.65-.428-.434-.976-.65-1.644-.65-.668 0-1.216.216-1.644.65-.428.433-.642.983-.642 1.65 0 .658.21 1.2.628 1.629.419.428.971.642 1.658.642zM8.493 16l.061-.948c.112-1.016.553-1.903 1.325-2.66l1.232-1.197c.964-.953 1.64-1.821 2.025-2.604.385-.783.578-1.615.578-2.496 0-1.938-.593-3.439-1.78-4.501C10.745.53 9.076 0 6.925 0 4.795 0 3.113.56 1.88 1.68.647 2.798.02 4.348 0 6.327h4.414c.02-.829.256-1.48.708-1.95.451-.473 1.053-.708 1.804-.708 1.583 0 2.374.876 2.374 2.627 0 .58-.152 1.133-.456 1.656-.305.524-.916 1.203-1.835 2.037-.918.835-1.55 1.682-1.895 2.543-.345.86-.517 2.016-.517 3.467m2.26 6.857c.687 0 1.24-.214 1.658-.642.419-.429.628-.971.628-1.629 0-.667-.214-1.217-.642-1.65-.428-.434-.976-.65-1.644-.65-.668 0-1.216.216-1.644.65-.428.433-.642.983-.642 1.65 0 .658.21 1.2.628 1.629.419.428.971.642 1.658.642z" transform="translate(48 29.714)"/>
        </g>
    </g>
</svg>
