<svg xmlns="http://www.w3.org/2000/svg" width="70" height="70" viewBox="0 0 70 70">
    <g fill="currentColor" fill-rule="evenodd">
        <path fill-rule="nonzero" d="M60 15v40H10V15h50zm-2 2H12v36h46V17z"/>
        <path fill-rule="nonzero" d="M59.5 22.5L59.5 24.5 11.5 24.5 11.5 22.5zM36 11.5L36 19.5 34 19.5 34 11.5zM27 11.5L27 19.5 25 19.5 25 11.5zM45 11.5L45 19.5 43 19.5 43 11.5zM18 11.5L18 19.5 16 19.5 16 11.5zM54 11.5L54 19.5 52 19.5 52 11.5z"/>
        <path fill-rule="nonzero" d="M57.813 23.121L58.879 24.813 11.187 54.879 10.121 53.187z"/>
        <circle cx="17" cy="31" r="1"/>
        <circle cx="17" cy="36" r="1"/>
        <circle cx="17" cy="41" r="1"/>
        <path fill-rule="nonzero" d="M53 30L53 32 20 32 20 30zM53 35L53 37 20 37 20 35zM53 40L53 42 20 42 20 40z"/>
        <circle cx="17" cy="46" r="1"/>
        <path fill-rule="nonzero" d="M53 45L53 47 20 47 20 45z"/>
    </g>
</svg>
