<svg xmlns="http://www.w3.org/2000/svg" width="70" height="70" viewBox="0 0 70 70">
    <g fill="currentColor">
        <g>
            <path d="M14.716 7l.027-.415c.048-.444.241-.832.579-1.163l.54-.524c.421-.417.716-.797.885-1.14.169-.342.253-.706.253-1.091 0-.848-.26-1.505-.78-1.97C15.702.232 14.972 0 14.03 0c-.932 0-1.668.245-2.208.735-.539.49-.813 1.167-.822 2.034h1.931c.01-.363.112-.648.31-.854.197-.206.46-.31.789-.31.693 0 1.039.384 1.039 1.15 0 .254-.067.496-.2.725-.133.229-.4.526-.802.89-.402.366-.679.737-.83 1.113-.15.376-.226.882-.226 1.517M14 10c.3 0 .542-.094.725-.281.183-.187.275-.425.275-.712 0-.292-.094-.533-.28-.723C14.531 8.094 14.291 8 14 8s-.532.095-.72.284c-.186.19-.28.43-.28.723 0 .287.092.525.275.712.183.187.425.281.725.281zM25.716 7l.027-.415c.048-.444.241-.832.579-1.163l.54-.524c.421-.417.716-.797.885-1.14.169-.342.253-.706.253-1.091 0-.848-.26-1.505-.78-1.97C26.702.232 25.972 0 25.03 0c-.932 0-1.668.245-2.208.735-.539.49-.813 1.167-.822 2.034h1.931c.01-.363.112-.648.31-.854.197-.206.46-.31.789-.31.693 0 1.039.384 1.039 1.15 0 .254-.067.496-.2.725-.133.229-.4.526-.802.89-.402.366-.679.737-.83 1.113-.15.376-.226.882-.226 1.517M25 10c.3 0 .542-.094.725-.281.183-.187.275-.425.275-.712 0-.292-.094-.533-.28-.723C25.531 8.094 25.291 8 25 8s-.532.095-.72.284c-.186.19-.28.43-.28.723 0 .287.092.525.275.712.183.187.425.281.725.281zM3.716 7l.027-.415c.048-.444.241-.832.579-1.163l.54-.524c.421-.417.716-.797.885-1.14.169-.342.253-.706.253-1.091 0-.848-.26-1.505-.78-1.97C4.702.232 3.972 0 3.03 0 2.098 0 1.362.245.822.735.283 1.225.01 1.902 0 2.769h1.931c.01-.363.112-.648.31-.854.197-.206.46-.31.789-.31.693 0 1.039.384 1.039 1.15 0 .254-.067.496-.2.725-.133.229-.4.526-.802.89-.402.366-.679.737-.83 1.113-.15.376-.226.882-.226 1.517M3 10c.3 0 .542-.094.725-.281.183-.187.275-.425.275-.712 0-.292-.094-.533-.28-.723C3.531 8.094 3.291 8 3 8s-.532.095-.72.284c-.186.19-.28.43-.28.723 0 .287.092.525.275.712.183.187.425.281.725.281z" transform="translate(21 13)"/>
        </g>
        <path d="M22 58.993v-27h9.758c-.479.715-.758 1.575-.758 2.5 0 2.485 2.015 4.5 4.5 4.5s4.5-2.015 4.5-4.5c0-.925-.28-1.785-.758-2.5H49V40.2c.477-.135.98-.207 1.5-.207 3.038 0 5.5 2.462 5.5 5.5s-2.462 5.5-5.5 5.5c-.52 0-1.023-.072-1.5-.207v8.207H22zm2-2h23.001L47 48.142l2.544.72c.308.086.628.131.956.131 1.933 0 3.5-1.567 3.5-3.5s-1.567-3.5-3.5-3.5c-.246 0-.488.025-.723.074l-.233.058-2.544.72.001-8.852H41.98l.013.2.007.3c0 3.59-2.91 6.5-6.5 6.5s-6.5-2.91-6.5-6.5c0-.1.002-.2.007-.3l.014-.2H24v23z"/>
    </g>
</svg>
