<svg xmlns="http://www.w3.org/2000/svg" width="160" height="160" viewBox="0 0 160 160">
    <g fill="#CA0000" fill-opacity=".4">
        <path d="M80 25.143c30.297 0 54.857 24.56 54.857 54.857S110.297 134.857 80 134.857 25.143 110.297 25.143 80 49.703 25.143 80 25.143zm0 4.571c-27.772 0-50.286 22.514-50.286 50.286 0 27.772 22.514 50.286 50.286 50.286 27.772 0 50.286-22.514 50.286-50.286 0-27.772-22.514-50.286-50.286-50.286z"/>
        <path d="M110.709 52.524L83.232 79.999l27.477 27.477-3.233 3.233L80 83.232l-27.476 27.477-3.233-3.233L76.768 80 49.29 52.524l3.233-3.233L80 76.767l27.476-27.476 3.233 3.233z"/>
    </g>
</svg>
