<svg xmlns="http://www.w3.org/2000/svg" width="32" height="32" viewBox="0 0 32 32">
    <g fill="none" fill-rule="evenodd">
        <!-- <circle cx="16" cy="16" r="15.5" stroke="#9E3398"/> -->
        <path fill="currentColor" fill-rule="nonzero" d="M12.53 10.293v.877c-2.171.846-3.278 1.553-3.265 1.885.016.407 2.31.567 6.992.451l2.256-.062c4.014-.102 5.465-.044 6.296.346.585.275.845.74.421 1.187-.243.256-.739.462-1.531.67l-.211.054c-.43.106-.94.212-1.533.32H26V25H6v-8.98h9.971l.962-.11c3.007-.354 5.162-.697 6.458-1.026l.1-.026a5.93 5.93 0 0 0 .93-.31l.04-.02-.034-.015c-.653-.285-2.09-.342-5.533-.261l-3.397.09c-1.85.043-2.998.04-4.026-.02l-.103-.005c-1.907-.119-2.887-.415-2.919-1.23-.031-.822 1.3-1.728 4.081-2.794zm12.654 6.544H6.816v7.347h18.368v-7.347zM8.449 21.735v.816h-.816v-.816h.816zm1.224 0v.816h-.816v-.816h.816zm1.225 0v.816h-.816v-.816h.816zm1.224 0v.816h-.816v-.816h.816zm7.347 0v.816h-6.938v-.816h6.938zm1.225 0v.816h-.816v-.816h.816zm1.224 0v.816h-.816v-.816h.816zm1.225 0v.816h-.816v-.816h.816zm1.224 0v.816h-.816v-.816h.816zm-2.449-1.633v.816H7.633v-.816h14.285zm2.45-1.633v2.45h-2.041v-.817h1.224v-1.633h.816zm-1.225 0v.817H7.633v-.817h15.51zM16.204 5c1.03 0 1.599.651 1.631 1.783l.002.104-.001.375h1.225v4.49h-5.714v-4.49h1.28v-.359C14.583 5.702 15.138 5 16.205 5zm2.04 3.08h-4.08v2.856h4.08V8.08zm-2.04 1.632a.408.408 0 1 1 0 .816.408.408 0 0 1 0-.816zm8.062-2.899l.203.791-.957.247c-1.299.337-2.511.663-3.635.977v-.85c1.25-.346 2.604-.706 4.066-1.082l.323-.083zm-8.062-.997c-.544 0-.773.264-.762.986l.002.085v.375h1.576v-.375c0-.776-.244-1.07-.816-1.07z"/>
    </g>
</svg>
