<svg xmlns="http://www.w3.org/2000/svg" width="32" height="32" viewBox="0 0 32 32">
    <g fill="none" fill-rule="evenodd">
        <!-- <circle cx="16" cy="16" r="15.5" stroke="#9E3398"/> -->
        <path fill="currentColor" fill-rule="nonzero" d="M13.756 10l3.122 2.522.153 5.263L22 20.468l-1.76 6.42h-6.861L8 18.696h2.934l2.822 1.707V10zm.798 1.69v10.15l-3.837-2.323H9.504l4.298 6.55h5.833l1.42-5.18-4.808-2.597-.156-5.358-1.537-1.242zM21.5 7c1.933 0 3.5 1.567 3.5 3.5S23.433 14 21.5 14H19v-1h2.5c1.38 0 2.5-1.12 2.5-2.5 0-1.325-1.032-2.41-2.336-2.495L21.5 8h-12C8.12 8 7 9.12 7 10.5c0 1.325 1.032 2.41 2.336 2.495L9.5 13H12v1H9.5C7.567 14 6 12.433 6 10.5S7.567 7 9.5 7h12zm0 2c.828 0 1.5.672 1.5 1.5s-.672 1.5-1.5 1.5-1.5-.672-1.5-1.5.672-1.5 1.5-1.5zm0 1c-.276 0-.5.224-.5.5s.224.5.5.5.5-.224.5-.5-.224-.5-.5-.5z"/>
    </g>
</svg>
