<svg xmlns="http://www.w3.org/2000/svg" width="32" height="32" viewBox="0 0 32 32">
    <g fill="none" fill-rule="evenodd">
        <!-- <circle cx="16" cy="16" r="15.5" stroke="#9E3398"/> -->
        <path fill="currentColor" fill-rule="nonzero" d="M25.016 21.656V26H8v-4.344h17.016zm-.725.724H8.724v2.896h15.567V22.38zm-6.906 1.086v.724H11.01v-.724h6.375zm4.073 0c.196 0 .355.162.355.362 0 .2-.16.362-.355.362-.195 0-.354-.162-.354-.362 0-.2.159-.362.354-.362zm-1.062 0c.195 0 .354.162.354.362 0 .2-.159.362-.354.362-.196 0-.354-.162-.354-.362 0-.2.158-.362.354-.362zm-1.063 0c.196 0 .355.162.355.362 0 .2-.16.362-.355.362-.195 0-.354-.162-.354-.362 0-.2.159-.362.354-.362zM16.87 6l-.001 13.661 7.237-7.236.497.496-8.014 8.014-8.192-8.192.486-.485 7.262 7.261V6h.725z"/>
    </g>
</svg>
