<svg xmlns="http://www.w3.org/2000/svg" width="32" height="32" viewBox="0 0 32 32">
    <g fill="none" fill-rule="evenodd">
        <!-- <circle cx="16" cy="16" r="15.5" stroke="#9E3398"/> -->
        <path fill="currentColor" fill-rule="nonzero" d="M11.505 21.16L13.298 26h-.86l-.387-1.127h-1.836L9.831 26h-.856l1.79-4.84h.74zm3.398 0l1.367 3.71 1.364-3.71H18.7V26h-.82v-1.596l.08-2.134-1.4 3.73h-.588l-1.397-3.727.082 2.131V26h-.82v-4.84h1.067zm8.099 0v.678h-1.478V26h-.817v-4.162h-1.465v-.678h3.76zm-11.869 1.027l-.686 2.008h1.373l-.687-2.008zM16 6c5.523 0 10 3.048 10 6.809 0 3.76-4.477 6.808-10 6.808S6 16.569 6 12.809 10.477 6 16 6zm0 .851c-5.117 0-9.167 2.757-9.167 5.958 0 3.2 4.05 5.957 9.167 5.957s9.167-2.757 9.167-5.957c0-3.2-4.05-5.958-9.167-5.958zm.562 4.04v.874h.621v.598h-.621v2.008l.005.096c.01.089.034.156.074.202.053.06.148.091.285.091.091 0 .183-.011.277-.033v.625l-.178.042c-.117.023-.232.034-.343.034-.608 0-.911-.342-.911-1.027v-2.038h-.58v-.598h.58v-.875h.79zm2.685.807c.48 0 .85.156 1.112.469.261.312.392.755.392 1.326v.326H18.45l.018.143c.04.23.13.418.273.562.17.173.385.26.643.26.362 0 .657-.15.885-.45l.427.416-.09.123c-.129.157-.287.282-.475.377-.236.119-.5.178-.793.178-.501 0-.907-.161-1.219-.484-.311-.322-.467-.751-.467-1.288v-.1l.008-.21c.022-.275.087-.526.195-.752.136-.282.327-.502.572-.66.245-.157.518-.236.82-.236zm-8.245.067v3.597h-.791v-3.597H11zm2.643-.067c.733 0 1.107.429 1.12 1.287v2.377h-.791v-2.33l-.006-.13c-.016-.164-.062-.29-.14-.378-.096-.11-.254-.164-.473-.164-.319 0-.556.147-.713.442v2.56h-.79v-3.597h.745l.022.415.102-.113c.246-.246.554-.369.924-.369zm8.561-1.443v5.107h-.791v-5.107h.791zm-2.962 2.091c-.217 0-.392.078-.526.233-.133.155-.219.371-.255.648h1.507v-.06l-.017-.154c-.031-.195-.096-.348-.195-.459-.124-.138-.295-.208-.514-.208zm-8.636-1.948c.143 0 .254.041.332.123.078.082.117.185.117.31 0 .121-.04.223-.117.304-.078.08-.189.121-.332.121-.143 0-.254-.04-.33-.121-.078-.081-.116-.183-.116-.305 0-.124.038-.227.115-.309.077-.082.188-.123.33-.123z"/>
    </g>
</svg>
