<svg xmlns="http://www.w3.org/2000/svg" width="32" height="32" viewBox="0 0 32 32">
    <g fill="none" fill-rule="evenodd" stroke="currentColor">
        <path stroke-width=".909" d="M19.074 6.455c-2.656 0-5.062 1.068-6.803 2.797-1.74 1.727-2.816 4.112-2.816 6.748s1.076 5.021 2.816 6.748c1.741 1.729 4.147 2.797 6.803 2.797 1.424 0 2.776-.306 3.992-.857-1.319-.879-2.426-2.046-3.231-3.41-.915-1.55-1.439-3.353-1.439-5.278 0-1.925.524-3.729 1.439-5.278.804-1.364 1.912-2.531 3.23-3.41-1.215-.55-2.567-.857-3.99-.857z"/>
        <!-- <circle cx="16" cy="16" r="15.5"/> -->
    </g>
</svg>
