<svg xmlns="http://www.w3.org/2000/svg" width="32" height="32" viewBox="0 0 32 32">
    <g fill="none" fill-rule="evenodd">
        <g>
            <g>
                <g>
                    <g transform="translate(-2666 -1261) translate(1798 139) translate(736 1115) translate(132 7)">
                        <path d="M0 0H32V32H0z"/>
                        
                        <path fill="currentColor" fill-rule="nonzero" d="M5.655 14.082c.238 0 .43-.068.574-.205.145-.137.217-.313.217-.527 0-.212-.071-.386-.215-.523-.143-.137-.335-.205-.576-.205-.244 0-.437.068-.578.205-.142.137-.213.311-.213.523 0 .214.073.39.218.527.144.137.336.205.573.205zM6.363 20v-5.283H4.947V20h1.416zm4.019 0c.807-.007 1.429-.186 1.865-.537.436-.352.654-.87.654-1.553 0-.4-.105-.739-.315-1.015-.21-.277-.497-.461-.861-.552.319-.124.568-.318.747-.584.179-.265.268-.572.268-.92 0-.638-.223-1.122-.669-1.453-.446-.33-1.1-.495-1.963-.495h-2.49V20h2.764zm-.215-4.13H9.083v-1.793h1.025c.404 0 .7.07.887.213.187.141.28.373.28.695 0 .577-.37.871-1.108.884zm.17 2.953H9.084v-1.919h1.343c.674.01 1.01.34 1.01.992 0 .29-.096.516-.29.68-.194.165-.463.247-.808.247zM15.466 20v-1.943l-.147-3.35L17.232 20h1.006l1.92-5.298-.147 3.355V20h1.47v-7.11h-1.924l-1.817 5.157-1.826-5.156H14V20h1.465zm10.014.098c.834 0 1.505-.22 2.015-.66.51-.439.791-1.041.847-1.806h-1.465c-.033.433-.16.753-.383.96-.223.206-.561.31-1.014.31-.5 0-.868-.178-1.1-.533-.233-.355-.35-.916-.35-1.684v-.538c.007-.735.131-1.278.374-1.628.242-.35.608-.525 1.096-.525.45 0 .784.103 1.003.31.22.207.348.54.384.999h1.465c-.079-.795-.368-1.411-.87-1.85-.5-.44-1.162-.66-1.982-.66-.592 0-1.112.14-1.56.417-.448.279-.792.678-1.033 1.2-.24.52-.361 1.122-.361 1.806v.434c0 1.071.261 1.914.784 2.527.522.614 1.239.92 2.15.92z"/>
                    </g>
                </g>
            </g>
        </g>
    </g>
</svg>
