<svg xmlns="http://www.w3.org/2000/svg" width="32" height="32" viewBox="0 0 32 32">
    <g fill="none" fill-rule="evenodd">
        <circle cx="16" cy="16" r="15.5" stroke="currentColor"/>
        <path fill="currentColor" fill-rule="nonzero" d="M26 8v17H6V8h20zm-.852 4.358H6.851v11.77H25.15l-.001-11.77zm-5.978 6.518v.871h-4.255v-.871h4.255zm-6.783-3.44l2.107 2.106-2.158 2.158-.602-.602 1.541-1.541-1.504-1.505.616-.616zM25.15 8.872H6.85v2.615h18.297V8.872zm-17.021.872c.235 0 .425.195.425.435 0 .241-.19.436-.425.436s-.426-.195-.426-.436c0-.24.19-.435.426-.435zm1.276 0c.235 0 .426.195.426.435 0 .241-.19.436-.426.436-.235 0-.425-.195-.425-.436 0-.24.19-.435.425-.435z"/>
    </g>
</svg>
