<svg xmlns="http://www.w3.org/2000/svg" width="32" height="32" viewBox="0 0 32 32">
    <g fill="none" fill-rule="evenodd">
        <path d="M0 0H32V32H0z"/>
        <path fill="currentColor" fill-rule="nonzero" d="M9.09 9.09c2.765-2.765 7.222-2.79 9.956-.056 2.623 2.623 2.706 6.833.266 9.612l5.01 5.009-.94.939-5.034-5.034c-2.775 2.183-6.783 2.017-9.314-.514-2.734-2.734-2.709-7.191.056-9.956zm9.017.883c-2.22-2.222-5.842-2.201-8.089.045-2.246 2.247-2.267 5.868-.045 8.09 2.22 2.22 5.842 2.2 8.089-.046 2.246-2.247 2.266-5.868.045-8.09z"/>
    </g>
</svg>
