<svg xmlns="http://www.w3.org/2000/svg" width="32" height="32" viewBox="0 0 32 32">
    <g fill="none" fill-rule="evenodd">
        <path d="M0 0H32V32H0z"/>
        <path fill="currentColor" fill-rule="nonzero" d="M16 6c2.761 0 5 2.239 5 5 0 1.88-1.038 3.518-2.572 4.372.673.206 1.319.497 1.93.856-.628.178-1.213.455-1.739.814-.764-.319-1.567-.507-2.385-.538L16 16.5c-3.977 0-7.642 3.779-8.37 8.132l-.008.055h9.012c.278.555.64 1.06 1.07 1.501L6 26.187c0-4.685 3.222-9.472 7.571-10.816C12.037 14.517 11 12.88 11 11c0-2.761 2.239-5 5-5zm5 12c1.657 0 3 1.343 3 3 0 .49-.118.953-.326 1.362l2.563 2.565-1.06 1.06-2.5-2.499C22.198 23.811 21.62 24 21 24c-1.657 0-3-1.343-3-3s1.343-3 3-3zm0 1.5c-.828 0-1.5.672-1.5 1.5s.672 1.5 1.5 1.5 1.5-.672 1.5-1.5-.672-1.5-1.5-1.5zm-5-12c-1.933 0-3.5 1.567-3.5 3.5s1.567 3.5 3.5 3.5 3.5-1.567 3.5-3.5-1.567-3.5-3.5-3.5z"/>
    </g>
</svg>
