<svg xmlns="http://www.w3.org/2000/svg" width="100" height="100" viewBox="0 0 100 100">
    <g fill="none" fill-rule="evenodd">
        <circle cx="50" cy="50" r="49" fill="currentColor" stroke="currentColor" stroke-width="2"/>
        <path fill="#FFF" fill-rule="nonzero" d="M52.5 28c3.996 0 7.748 1.018 11 2.804C56.638 34.572 52 41.756 52 50c0 1.126.086 2.232.253 3.312-.633.492-1.21 1.052-1.722 1.668-.32-1.477-.499-2.999-.527-4.549L50 50c0-7.344 3.396-14.102 8.993-18.583l.35-.276-.434-.145c-1.886-.605-3.869-.942-5.9-.99L52.5 30C41.168 30 32 38.964 32 50c0 10.683 8.592 19.426 19.422 19.973.834.794 1.794 1.458 2.845 1.96-.582.044-1.172.067-1.767.067C40.074 72 30 62.15 30 50s10.074-22 22.5-22zM60 52c5.523 0 10 4.477 10 10s-4.477 10-10 10-10-4.477-10-10 4.477-10 10-10zm0 2c-4.418 0-8 3.582-8 8s3.582 8 8 8 8-3.582 8-8-3.582-8-8-8zm1 4v3h3v2h-5v-5h2z"/>
    </g>
</svg>
