<svg xmlns="http://www.w3.org/2000/svg" width="100" height="100" viewBox="0 0 100 100">
    <g fill="none" fill-rule="evenodd">
        <circle cx="50" cy="50" r="49" fill="#FFF" stroke="#9E3398" stroke-width="2"/>
        <path fill="#9E3398" fill-rule="nonzero" d="M50.133 33c-6.564 0-9.916 3.478-11.018 9.346l-.086.481c-.2 1.18-.29 2.227-.352 3.86l-.078 2.42c-.013.308-.028.532-.049.73l-.025.207-.015.098-.036.168.133-.103c-2.886 2.19-4.013 6.061-3.478 11.504l.144 1.31H65.13l-.03-1.03-.018-.481c-.216-5.245-1.375-8.938-3.558-11.06l-.073-.068-.013-.082a3.451 3.451 0 0 1-.02-.185l-.023-.354c-.005-.114-.008-.24-.01-.392l-.001-1.975c-.007-2.134-.086-3.463-.352-5.03C60.036 36.5 56.709 33 50.133 33zm0 2c5.496 0 8.081 2.72 8.927 7.698.26 1.526.326 2.84.324 5.116v1.57c.01 1.509.093 1.866.488 2.258l.28.264c1.618 1.591 2.602 4.512 2.883 8.778l.02.336h-25.98l-.025-.334c-.283-4.22.599-7.102 2.571-8.732l.195-.154c.64-.486.733-.94.8-3.103l.047-1.577c.068-1.974.163-3.05.417-4.404.94-5 3.557-7.716 9.053-7.716z"/>
        <path fill="#9E3398" fill-rule="nonzero" d="M56 61.127C56 64.44 53.314 67 50 67a6 6 0 0 1-5.996-5.775L44 61.127h12zM53.463 63h-6.928l.094.155a4 4 0 0 0 3.17 1.84L50 65a3.996 3.996 0 0 0 3.34-1.797l.123-.203zM51 30v4h-2v-4zM66.75 30.336l1.414 1.414L30.25 69.664l-1.414-1.414z"/>
    </g>
</svg>
