<svg xmlns="http://www.w3.org/2000/svg" width="100" height="100" viewBox="0 0 100 100">
    <g fill="none" fill-rule="evenodd">
        <circle cx="50" cy="50" r="49" fill="currentColor" stroke="currentColor" stroke-width="2"/>
        <path fill="#FFF" fill-rule="nonzero" d="M30.25 69.664l-1.414-1.414 6.317-6.318-.024-.221c-.521-5.3.533-9.11 3.254-11.328l.215-.17-.124.097.036-.168.015-.098.025-.208c.02-.197.036-.42.05-.728l.077-2.42c.063-1.634.152-2.681.352-3.861l.086-.48c1.037-5.521 4.064-8.926 9.884-9.31L49 30h2l.001 3.021c4.07.203 6.796 1.852 8.425 4.639l7.324-7.324 1.414 1.414-7.844 7.843c.307.852.543 1.777.712 2.77.266 1.568.345 2.897.352 5.03l.001 1.976c.002.153.005.278.01.392l.022.354c.006.07.013.132.021.185l.013.082.073.068c2.183 2.122 3.342 5.815 3.558 11.06l.017.481.031 1.03h-9.44C54.893 65.367 52.647 67 50 67a6.002 6.002 0 0 1-5.651-3.98h-7.455l-6.644 6.644zm23.2-6.644h-6.902l.081.135a4 4 0 0 0 3.17 1.84L50 65a3.996 3.996 0 0 0 3.34-1.797l.11-.183zm5.28-21.835L38.893 61.02h24.161l-.02-.336c-.281-4.266-1.265-7.187-2.883-8.778l-.28-.264c-.395-.392-.477-.75-.489-2.257l.001-1.571c.002-2.276-.065-3.59-.324-5.116-.09-.53-.2-1.034-.33-1.513zM50.132 35c-5.496 0-8.114 2.716-9.053 7.716-.254 1.354-.35 2.43-.417 4.404l-.047 1.577c-.067 2.162-.16 2.617-.8 3.103l-.195.154c-1.874 1.55-2.763 4.23-2.604 8.113l20.936-20.935C56.584 36.436 54.127 35 50.133 35z"/>
    </g>
</svg>
