<svg xmlns="http://www.w3.org/2000/svg" width="32" height="32" viewBox="0 0 32 32">
    <g fill="none" fill-rule="evenodd">
        <circle cx="16" cy="16" r="15.5" fill="none" stroke="none"/>
        <path fill="#FFF" fill-rule="nonzero" d="M16.56 6v1.682c3.146.183 4.762 2.04 5.264 5.047.14.847.183 1.565.187 2.719v1.067c.001.083.003.15.006.212l.011.192.011.1.007.044.039.037c1.16 1.147 1.775 3.143 1.89 5.978l.009.26.016.557h-4.965A3.162 3.162 0 0 1 16.03 26c-1.366 0-2.531-.875-2.984-2.105h-4.9l-.077-.708c-.284-2.942.315-5.035 1.847-6.219l-.035.028-.035.028.02-.09.007-.054.013-.112c.011-.106.02-.228.026-.394l.042-1.308c.033-.883.08-1.449.186-2.087l.046-.26c.555-3.004 2.18-4.85 5.314-5.036V6h1.061zm1.274 17.894h-3.611l.016.028c.36.571.978.959 1.684.994l.106.003c.741 0 1.393-.386 1.774-.972l.031-.053zM16.036 8.748c-2.919 0-4.308 1.468-4.807 4.171-.135.732-.186 1.314-.222 2.38l-.025.853c-.035 1.17-.085 1.415-.425 1.678l-.103.083c-1.047.881-1.515 2.44-1.365 4.72l.013.18h13.796l-.01-.181c-.15-2.306-.672-3.885-1.532-4.745l-.148-.143c-.21-.212-.254-.405-.26-1.22v-1.172c-.006-1.037-.046-1.692-.171-2.442-.45-2.691-1.822-4.162-4.74-4.162z"/>
    </g>
</svg>
