<svg xmlns="http://www.w3.org/2000/svg" width="100" height="100" viewBox="0 0 100 100">
    <g fill="none" fill-rule="evenodd">
        <circle cx="50" cy="50" r="49" fill="currentColor" stroke="currentColor" stroke-width="2"/>
        <path fill="#FFF" fill-rule="nonzero" d="M51.25 64.5v7h-2v-7h2zm9.783-4.88l4.95 4.949-1.414 1.414-4.95-4.95 1.414-1.414zm-21.566 0l1.414 1.413-4.95 4.95-1.414-1.414 4.95-4.95zM50.25 37.5c6.904 0 12.5 5.596 12.5 12.5s-5.596 12.5-12.5 12.5-12.5-5.596-12.5-12.5 5.596-12.5 12.5-12.5zm0 2c-5.799 0-10.5 4.701-10.5 10.5s4.701 10.5 10.5 10.5 10.5-4.701 10.5-10.5-4.701-10.5-10.5-10.5zm21.25 9.75v2h-7v-2h7zm-35.5 0v2h-7v-2h7zm-.069-14.733l4.95 4.95-1.414 1.414-4.95-4.95 1.414-1.414zm28.638 0l1.414 1.414-4.95 4.95-1.414-1.414 4.95-4.95zM51.25 29v7h-2v-7h2z"/>
    </g>
</svg>
