<svg xmlns="http://www.w3.org/2000/svg" width="100" height="100" viewBox="0 0 100 100">
    <g fill="none" fill-rule="evenodd">
        <circle cx="50" cy="50" r="49" fill="currentColor" stroke="currentColor" stroke-width="2"/>
        <path fill="#FFF" fill-rule="nonzero" d="M47.157 40v23.405l-6.45-3.842H34L46.294 78h15.681L66 63.554l-11.358-6.038-.349-11.84L47.157 40zm1.825 3.803l3.512 2.794.357 12.057 10.99 5.84-3.247 11.655H47.262l-9.824-14.735h2.773l8.77 5.226V43.803zM50 22c2.522 0 3.917 1.595 3.996 4.369l.004.255-.001.919H57v11H43v-11h3.137l.001-.88C46.027 23.718 47.384 22 50 22zm5 7.544H45v7h10v-7zm-5 4a1 1 0 1 1 0 2 1 1 0 0 1 0-2zM50 24c-1.333 0-1.893.647-1.868 2.415l.006.21-.001.918h3.862l.001-.919C52 24.723 51.402 24 50 24z"/>
    </g>
</svg>
