<svg xmlns="http://www.w3.org/2000/svg" width="100" height="100" viewBox="0 0 100 100">
    <g fill="none" fill-rule="evenodd">
        <circle cx="50" cy="50" r="49" fill="#FFF" stroke="#9E3398" stroke-width="2"/>
        <path fill="#9E3398" fill-rule="nonzero" d="M70.557 26.929l1.414 1.414L69.026 31 71.97 31v32.018L58 63.017V66h6v2H36v-2h6v-2.983h-8.475L28 68l-1.414-1.414 3.956-3.569H28V31l38.044-.001 4.513-4.07zM56 63.017H44V66h12v-2.983zm7.828-30.019L30 32.999v28.018l2.76-.001 4.455-4.017L32 57V35l29.609-.001 2.219-2.001zm6.143.001l-3.162-.001-2.218 2.001L68 35v22l-27.803-.001-4.454 4.017 6.257.001v-.008h2v.008h12v-.008h2v.008h11.971V32.999zm-10.58 4L34 37v18l5.433-.001 5.439-4.904A7.162 7.162 0 0 1 43.592 46c0-.884.16-1.745.466-2.552l.122-.3.02-.044-2.995.974-.52-1.429 5.895-1.914 2.12 5.824-1.446.47-1.379-3.787-.026.045a5.71 5.71 0 0 0-.647 2.105l-.024.32-.007.288c0 1.116.318 2.159.869 3.041l8.408-7.583a5.718 5.718 0 0 0-3.1-1.193l-.225-.012-.241-.008V38.75h.039l.46.014.265.021a7.338 7.338 0 0 1 3.953 1.634l3.792-3.42zM66 37l-3.627-.001-5.417 4.886a7.16 7.16 0 0 1 1.278 3.628l.012.248.004.239c0 4.005-3.282 7.25-7.33 7.25a7.348 7.348 0 0 1-4.697-1.685L42.415 55 66 55V37zm-10.211 5.939l-8.415 7.587a5.75 5.75 0 0 0 8.414-7.588z"/>
    </g>
</svg>
