<svg xmlns="http://www.w3.org/2000/svg" width="100" height="100" viewBox="0 0 100 100">
    <g fill="none" fill-rule="evenodd">
        <circle cx="50" cy="50" r="49" fill="currentColor" stroke="currentColor" stroke-width="2"/>
        <path fill="#FFF" fill-rule="nonzero" d="M50.5 32C60.165 32 68 39.835 68 49.5S60.165 67 50.5 67 33 59.165 33 49.5 40.835 32 50.5 32zm0 2C41.94 34 35 40.94 35 49.5 35 58.06 41.94 65 50.5 65 59.06 65 66 58.06 66 49.5 66 40.94 59.06 34 50.5 34zm1 10v5.5H57v2h-5.5V57h-2v-5.5H44v-2h5.5V44h2z"/>
    </g>
</svg>
