<svg xmlns="http://www.w3.org/2000/svg" width="32" height="32" viewBox="0 0 32 32">
    <g fill="none" fill-rule="evenodd">
        <path d="M0 0H32V32H0z"/>
        <circle cx="16" cy="16" r="15.5" stroke="currentColor"/>
        <path fill="currentColor" fill-rule="nonzero" d="M6.852 22.369v1.788h1.805V25H6v-2.631h.852zm19.06 0V25h-2.657v-.844h1.805V22.37h.852zM16.196 8c.65 0 1.177.522 1.177 1.165 0 .507-.328.939-.785 1.099v2.415c.968.095 1.832.539 2.463 1.202l1.081-.619c-.01-.07-.014-.141-.014-.214 0-.857.702-1.553 1.568-1.553.867 0 1.569.696 1.569 1.553 0 .858-.702 1.554-1.569 1.554-.51 0-.964-.242-1.25-.616l-.903.516c.306.49.505 1.051.565 1.653H26v.784l-5.903.001c-.026.258-.078.507-.152.747l.013-.024 2.563 1.465c.202-.16.456-.254.734-.254.65 0 1.176.521 1.176 1.165 0 .643-.526 1.165-1.176 1.165-.65 0-1.177-.522-1.177-1.165 0-.086.01-.17.028-.25l-2.456-1.404c-.604 1.108-1.736 1.892-3.062 2.023v1.233c.677.172 1.177.78 1.177 1.504 0 .858-.703 1.554-1.569 1.554s-1.569-.696-1.569-1.554c0-.723.5-1.332 1.177-1.504v-1.233c-1.326-.13-2.458-.915-3.062-2.023l-2.455 1.404c.017.08.027.164.027.25 0 .643-.527 1.165-1.177 1.165s-1.176-.522-1.176-1.165c0-.644.527-1.165 1.176-1.165.278 0 .533.095.734.254l2.563-1.465.013.024c-.074-.24-.126-.49-.152-.747H6v-.785h6.294c.06-.602.26-1.163.565-1.653l-.902-.516c-.287.374-.74.616-1.251.616-.866 0-1.569-.696-1.569-1.554 0-.857.703-1.553 1.569-1.553s1.569.696 1.569 1.553c0 .073-.006.144-.015.214l1.082.619c.63-.663 1.495-1.107 2.462-1.202v-2.415c-.457-.16-.784-.592-.784-1.099 0-.643.526-1.165 1.176-1.165zm0 14.369c-.433 0-.784.347-.784.776 0 .43.35.777.784.777.433 0 .784-.348.784-.777 0-.429-.35-.776-.784-.776zm7.059-2.719c-.217 0-.392.174-.392.389 0 .214.175.388.392.388.216 0 .392-.174.392-.388 0-.215-.176-.389-.392-.389zm-14.118 0c-.216 0-.392.174-.392.389 0 .214.176.388.392.388.217 0 .392-.174.392-.388 0-.215-.175-.389-.392-.389zm10.171-2.71h-6.224c.197 1.528 1.515 2.71 3.112 2.71 1.597 0 2.916-1.182 3.112-2.71zm-3.112-3.503c-1.6 0-2.92 1.186-3.113 2.718h6.226c-.193-1.532-1.513-2.718-3.113-2.718zm5.49-1.165c-.433 0-.784.347-.784.776 0 .43.351.777.784.777.433 0 .785-.348.785-.777 0-.429-.352-.776-.785-.776zm-10.98 0c-.433 0-.784.347-.784.776 0 .43.35.777.784.777.433 0 .784-.348.784-.777 0-.429-.351-.776-.784-.776zM8.657 8v.844H6.852v1.787H6V8h2.657zm17.255 0v2.631h-.852V8.843h-1.805V8h2.657zm-9.716.777c-.217 0-.392.174-.392.388 0 .214.175.388.392.388.217 0 .392-.174.392-.388 0-.214-.175-.388-.392-.388z"/>
    </g>
</svg>
