<svg xmlns="http://www.w3.org/2000/svg" width="100" height="100" viewBox="0 0 100 100">
    <g fill="none" fill-rule="evenodd">
        <circle cx="50" cy="50" r="49" fill="#FFF" stroke="#9E3398" stroke-width="2"/>
        <path fill="#9E3398" fill-rule="nonzero" d="M53.328 33c9.434.264 17 7.995 17 17.493 0 9.665-7.834 17.5-17.5 17.5-9.664 0-17.5-7.835-17.5-17.5 0-2.89.701-5.616 1.942-8.018l-6.619 2.28L30 42.862l10.56-3.636 3.636 10.56-1.891.65-2.744-7.962a15.428 15.428 0 0 0-2.232 8.018c0 8.56 6.94 15.5 15.5 15.5 8.56 0 15.5-6.94 15.5-15.5 0-8.393-6.672-15.228-15-15.492V33z"/>
    </g>
</svg>
