<svg xmlns="http://www.w3.org/2000/svg" viewBox="0 0 150 150"><title>03</title><path d="M96.51,48.1l22,24.33S121.29,89,100.92,79L81.65,59.77V48.1L59.07,28.38s-2.2,2.2-10.74-7.43c0,0-3-4.13,0-7.71a6.59,6.59,0,0,1,9.09,0s8.87,6.18,6.6,11.84L82.82,43.8Z" class="cls-3"/><path d="M97.55,23.29S94.25,12.13,102.1,8c0,0,11.15-6.2,16.1,0,0,0,3.17,6.47-3.44,6.26,0,0-14-3.51-8.53,9,0,0,7.16,5.36,11.29,0,0,0,9.63-1.52,6,6.74,0,0-3.85,4.13-15.69,4.68H104.3L96.51,47.33,83.65,43l-4.07-3.58Z" class="cls-3"/><path d="M75.29,43.3l-5.72,5.34L58.87,62c-9.08-.83-13.77,2.75-13.77,2.75-5.23,3.58-3.57,17.07-3.57,17.07h9.6a6.57,6.57,0,1,1,4.85,0H68.51V72.43L80.52,60V48.55Z" class="cls-3"/><path d="M128.14,48.1H98.41l9.27,10h10l10.46,22.58H22.41l9.36-23.4H60.9l7.77-9.09-44.06-.1L8.1,87.3v58.92H141.9V87.3Zm1.93,88.76H19.93V92.26H130.07Z" class="cls-1"/></svg>