<svg xmlns="http://www.w3.org/2000/svg" viewBox="0 0 150 150"><title>04</title><path d="M84.89,114l-15.6-7.31c-1.61-.76-3.19-1.57-4.82-2.28-.81-.35-.93-.64-.38-1.4,4.34-6,8.64-11.94,13.08-18.1a20.58,20.58,0,0,1,1.41,4.8c.25,1,.56,1.35,1.73,1a15.17,15.17,0,0,0,9.63-9c.54-1.34,1.11-1.38,2.29-.94,4,1.49,8,2.87,12.08,4.29,2.46.87,2.5.88,1.39,3.37A32.77,32.77,0,0,1,85,107.08c-1.4.45-1.92.93-1.37,2.4S84.41,112.22,84.89,114Z" class="cls-1"/><path d="M44.36,13.7c2.92,0,4.64.93,5.75,2.84,2.72,4.73,5.44,9.46,8,14.25a5.75,5.75,0,0,1-10,5.6c-2.74-4.71-5.46-9.44-8-14.26C38,18.19,40.67,13.71,44.36,13.7Z" class="cls-1"/><path d="M21.36,111.45a5.62,5.62,0,0,1-5.56-4.07A5.44,5.44,0,0,1,18,101c4.95-2.88,10-5.66,15-8.29a5.62,5.62,0,0,1,7.42,2.59,5.56,5.56,0,0,1-1.92,7.48c-4.88,2.86-9.87,5.52-14.84,8.23A4,4,0,0,1,21.36,111.45Z" class="cls-1"/><path d="M107.46,135.19a5.4,5.4,0,0,1-5-2.88c-2.72-4.73-5.45-9.46-8.07-14.25a5.75,5.75,0,0,1,2.19-7.73,5.64,5.64,0,0,1,7.76,2c2.8,4.76,5.55,9.56,8.14,14.43A5.62,5.62,0,0,1,107.46,135.19Z" class="cls-1"/><path d="M32.08,66a5.56,5.56,0,0,1-6.54,5.63C19.9,70.34,14.3,68.9,8.75,67.33a5.74,5.74,0,0,1,3.28-11q7.85,1.92,15.65,4A5.7,5.7,0,0,1,32.08,66Z" class="cls-1"/><path d="M55.83,141.52A5.67,5.67,0,0,1,50.4,134c1.75-5.3,3.7-10.53,5.73-15.73a5.55,5.55,0,0,1,7-3.15,5.49,5.49,0,0,1,3.75,6.71c-1.8,5.61-3.82,11.17-6,16.66C60.11,140.58,58.12,141.5,55.83,141.52Z" class="cls-1"/><path d="M117.32,58.56a5.73,5.73,0,0,1-5.54-4A5.59,5.59,0,0,1,114.1,48c4.89-2.83,9.84-5.57,14.85-8.18a5.65,5.65,0,0,1,7.48,2.44A5.72,5.72,0,0,1,134.32,50c-4.74,2.71-9.55,5.28-14.33,7.91A5.38,5.38,0,0,1,117.32,58.56Z" class="cls-1"/><path d="M118,84.68a5.62,5.62,0,0,1,7-5.54c5.31,1.21,10.58,2.59,15.84,4a5.79,5.79,0,1,1-3.07,11.17c-3.76-.91-7.5-1.93-11.25-2.9-1.46-.38-2.94-.69-4.38-1.14A5.69,5.69,0,0,1,118,84.68Z" class="cls-1"/><path d="M92.25,35.18c-4.38,0-7.29-3.62-6.1-7.29,1.77-5.42,3.74-10.78,5.81-16.1a5.75,5.75,0,0,1,10.75,4c-1.8,5.35-3.75,10.65-5.77,15.92A5.13,5.13,0,0,1,92.25,35.18Z" class="cls-1"/><path d="M108.48,75a34.87,34.87,0,0,1-.68,6.45c-.16.89-.41,1.25-1.4,1Q99.23,80.68,92,79.05c-.87-.19-1.07-.59-.9-1.36a13.71,13.71,0,0,0-.35-7.19c-.23-.77.09-1.08.75-1.29,4.72-1.57,9.45-3.13,14.16-4.74,1.21-.41,1.32.43,1.52,1.18A34.93,34.93,0,0,1,108.48,75Z" class="cls-1"/><path d="M105.56,61.14c.13.63-.5.64-.85.8-4.52,2-9,3.89-13.56,5.86-.8.35-1.25.36-1.67-.55a12.29,12.29,0,0,0-3-4.11c-.76-.67-.55-1.14,0-1.79q4.84-5.46,9.62-11c.6-.7,1-.83,1.74-.17a33.42,33.42,0,0,1,7.51,10.53C105.43,60.84,105.48,61,105.56,61.14Z" class="cls-1"/><path d="M79.19,57.91c1.24-5,2.45-9.94,3.64-14.85.19-.75.58-.92,1.3-.7a37.31,37.31,0,0,1,10.08,4.83c.65.44.61.82.15,1.43-3,4-6,8.11-9.06,12.17-.35.47-.66.77-1.27.31A14.72,14.72,0,0,0,79.83,59C79.19,58.76,79,58.39,79.19,57.91Z" class="cls-1"/><path d="M74.73,41.1a29.74,29.74,0,0,1,4.52.28c1.12.1,1.28.59,1.12,1.53Q79.14,50.1,78,57.28c-.14.89-.48,1.15-1.43,1.08-3.73-.32-3.77-.27-4.27-4S71.42,47,70.88,43.25c-.23-1.62.19-2.34,1.88-2.16A18.48,18.48,0,0,0,74.73,41.1Z" class="cls-1"/><path d="M67.07,41.91c.84-.13.87.51,1,1,1,4.87,2.07,9.74,3.12,14.61.14.66.11,1-.67,1.31-2.8,1-2.79,1.07-4.09-1.67-1.77-3.72-3.47-7.49-5.34-11.16-.72-1.4-.37-2,1-2.4C63.73,43.07,65.39,42.47,67.07,41.91Z" class="cls-1"/><path d="M57.74,45.84c.5,0,.58.5.76.81C61,50.9,63.38,55.2,65.92,59.41c1,1.65-.66,1.62-1.2,2.28s-1.17.74-1.88-.07c-3.24-3.7-6.56-7.35-9.84-11-.32-.35-.92-.67-.24-1.25A34.37,34.37,0,0,1,57.37,46,2,2,0,0,1,57.74,45.84Z" class="cls-1"/><path d="M50.2,51.78c.49.38.82.6,1.1.86L61.65,62.4c.64.61,1.19,1,.34,2.06s-1.41.41-2.07-.06c-3.77-2.66-7.49-5.37-11.3-8-1.21-.82-1.21-1.48-.29-2.45C49,53.3,49.56,52.54,50.2,51.78Z" class="cls-3"/><path d="M58.17,77.63c.7-.16.4.93.65,1.48.41.88-.28,1-.86,1.1-4.82,1.24-9.65,2.44-14.45,3.76-1.34.37-1.39-.57-1.37-1.21s-1.4-2,.4-2.36C47.56,79.45,52.6,78.61,58.17,77.63Z" class="cls-4"/><path d="M54.91,73.14c-4.12-.39-8.23-.81-12.35-1.13-1.1-.08-1.39-.45-1.07-1.45.26-.82-.21-2.15,1.51-1.81,4.83.94,9.67,1.84,14.51,2.73.73.13,1,.4.88,1.18s-.51.78-1.13.68-1.56-.19-2.34-.28Z" class="cls-4"/><path d="M46.15,57.56c.44.24.78.42,1.12.62,4,2.43,8.11,4.86,12.14,7.31.48.29,1.34.37.87,1.39s-1.14.56-1.76.26Q52,64.05,45.58,60.92c-.43-.21-1.38-.18-.88-1.11A5.74,5.74,0,0,1,46.15,57.56Z" class="cls-4"/><path d="M59.22,69c-.18.9-.34,1.52-1.29,1.27-4.94-1.35-9.9-2.6-14.8-4.06-1.41-.42-.19-1.54-.11-2.32s.34-1.13,1.29-.76c4.64,1.8,9.32,3.51,14,5.29C58.64,68.57,59.25,68.58,59.22,69Z" class="cls-4"/><path d="M49.65,74.63c2.43,0,4.87,0,7.3,0,.48,0,1.24-.29,1.31.72s-.5,1.08-1.21,1.14c-4.85.44-9.69.86-14.53,1.34-1.12.11-1.39-.35-1.29-1.33s-.42-2,1.32-1.94c2.36.12,4.73,0,7.1,0Z" class="cls-4"/></svg>