<svg xmlns="http://www.w3.org/2000/svg" viewBox="0 0 240 240"><title>01</title>
<g transform="translate(0.000000,240.000000) scale(0.100000,-0.100000)"
fill="#000000">
<path d="M1110 2150 c-16 -16 -20 -33 -20 -87 0 -63 -1 -65 -18 -50 -25 22
-75 21 -95 -1 -34 -37 -22 -73 48 -142 63 -62 65 -66 65 -115 l0 -50 -72 73
c-39 40 -82 75 -95 78 -36 9 -73 -20 -73 -57 0 -26 20 -53 120 -159 l121 -128
-3 -85 -3 -84 -84 51 -85 51 -42 153 c-44 160 -61 192 -101 192 -28 0 -63 -33
-63 -60 0 -17 25 -117 45 -180 6 -18 3 -17 -34 3 -37 20 -41 27 -64 107 -20
72 -28 86 -49 94 -18 6 -36 5 -57 -4 -26 -10 -31 -18 -31 -46 l0 -33 -46 24
c-85 45 -154 24 -154 -48 0 -43 22 -72 73 -99 l42 -21 -27 -9 c-44 -15 -47
-108 -3 -124 8 -4 55 4 104 16 l90 22 42 -26 c48 -28 51 -25 -66 -57 -44 -12
-86 -26 -92 -31 -18 -15 -16 -74 3 -92 22 -23 42 -21 210 23 l151 39 72 -41
c39 -23 67 -45 62 -50 -4 -4 -45 -30 -91 -56 l-82 -48 -159 40 c-151 37 -160
39 -184 23 -19 -12 -25 -25 -25 -51 0 -43 21 -58 115 -81 39 -9 73 -20 78 -23
4 -4 -12 -18 -35 -31 l-41 -23 -71 17 c-39 10 -82 16 -96 15 -53 -8 -63 -110
-11 -117 20 -3 19 -5 -11 -26 -43 -29 -59 -83 -34 -120 22 -35 61 -43 113 -24
l43 16 0 -34 c0 -37 21 -54 67 -54 41 0 49 12 74 107 21 80 24 85 62 105 28
14 38 16 35 6 -3 -7 -15 -54 -28 -104 -23 -87 -23 -93 -7 -118 19 -29 61 -35
90 -13 10 7 35 76 62 177 25 90 47 165 48 166 1 1 45 27 97 58 l95 56 3 -112
3 -111 -116 -117 c-97 -98 -115 -122 -115 -148 0 -39 23 -62 63 -62 25 0 44
13 99 67 l68 67 0 -50 c0 -47 -3 -52 -60 -109 -66 -65 -76 -99 -40 -135 21
-21 69 -27 87 -9 7 7 12 -2 16 -31 6 -47 22 -70 48 -70 18 0 19 28 19 965 0
851 -2 965 -15 965 -8 0 -24 -9 -35 -20z" class="cls-1"/>
<path d="M1290 2159 c0 -6 8 -33 17 -59 22 -62 10 -106 -54 -191 -41 -54 -47
-69 -51 -121 -4 -54 -2 -62 22 -87 l27 -28 -25 -7 -26 -6 0 -465 0 -465 74 0
c133 0 242 47 334 144 140 148 170 354 77 542 -38 79 -122 166 -193 200 l-39
20 52 28 c58 30 129 96 153 141 23 45 28 170 8 238 -21 72 -46 78 -46 12 0
-80 -36 -131 -138 -195 -29 -18 -59 -45 -67 -61 -18 -33 -20 -102 -4 -131 10
-18 8 -20 -18 -14 -15 3 -45 8 -65 12 l-37 6 38 47 c68 81 85 125 85 216 0 89
-15 133 -65 196 -29 37 -59 51 -59 28z" class="cls-1"/>
<path d="M1896 1885 c-16 -65 -103 -126 -196 -139 -95 -14 -147 -80 -123 -158
9 -32 11 -33 59 -30 182 11 285 107 293 274 2 64 0 78 -12 78 -8 0 -18 -11
-21 -25z" class="cls-1"/>
<path d="M2086 1624 c-52 -62 -91 -73 -217 -59 -117 13 -174 -26 -167 -112 3
-31 8 -38 33 -46 50 -15 196 -12 236 5 57 25 110 78 141 143 46 99 32 138 -26
69z" class="cls-1"/>
<path d="M1809 1356 c-29 -17 -53 -64 -47 -93 2 -11 34 -33 82 -58 70 -36 86
-40 150 -40 87 1 147 25 205 85 37 39 54 80 32 80 -5 0 -28 -9 -52 -20 -64
-29 -105 -25 -189 16 -84 42 -143 51 -181 30z" class="cls-1"/>
<path d="M1793 1140 c-43 -26 -42 -50 2 -110 93 -126 243 -163 381 -94 33 16
60 37 62 46 3 16 -3 17 -56 12 -76 -8 -136 18 -190 83 -69 83 -134 103 -199
63z" class="cls-1"/>
<path d="M1721 958 c-20 -10 -22 -18 -18 -49 7 -54 53 -148 90 -188 65 -68
175 -97 286 -75 40 8 45 44 6 44 -69 0 -151 71 -179 157 -25 77 -62 114 -116
119 -25 2 -56 -2 -69 -8z" class="cls-1"/>
<path d="M1594 803 c-14 -15 -16 -31 -11 -106 12 -179 90 -266 265 -293 38 -6
42 -5 42 15 0 12 -6 21 -15 21 -24 0 -87 62 -106 105 -12 25 -19 64 -19 105
-1 92 -26 145 -77 159 -51 14 -59 14 -79 -6z" class="cls-1"/>
<path d="M1410 663 c-62 -165 -21 -312 109 -394 72 -46 112 -31 57 20 -54 51
-71 136 -42 206 51 121 15 225 -78 225 -21 0 -28 -9 -46 -57z" class="cls-1"/>
<path d="M1232 657 l-32 -33 0 -195 0 -196 25 -23 c31 -29 43 -19 26 23 -34
80 -22 141 43 220 64 78 75 153 30 206 -33 39 -52 39 -92 -2z" class="cls-1"/>
</g>
</svg>
