<svg id="圖層_1" data-name="圖層 1" xmlns="http://www.w3.org/2000/svg" viewBox="0 0 150 150"><defs><style>.cls-1{fill:#0e6eb7;}</style></defs><title>02</title><path class="cls-1" d="M145.06,72.1V26.27c0-6.19,0-6.08-6.25-5.53Q102.42,23.92,66,27,37.19,29.44,8.38,31.87c-2.25.18-3.55.58-3.54,3.48q.21,36.59,0,73.16c0,2.52.9,3.24,3.17,3.38,5.21.32,10.42.77,15.62,1.22q58.61,5.08,117.2,10.24c3.2.29,4.36-.2,4.3-3.82C144.93,103.72,145.06,87.91,145.06,72.1Zm-8.62-36.32c-.28,12.19-.1,24.39-.1,36.58s-.1,24.12.07,36.18c0,2.94-.59,3.92-3.71,3.69-21.36-1.56-42.73-2.93-64.09-4.38-17.49-1.19-35-2.48-52.48-3.53-2.87-.17-3.81-.8-3.79-3.87q.24-28.53,0-57.08c0-3.13,1-3.63,3.84-3.82q56.69-3.73,113.36-7.71a19.09,19.09,0,0,0,2.4-.14C135.32,31,136.53,32,136.44,35.78Z"/><path class="cls-1" d="M106.46,47.45c-1.17,5.38-2.27,10.48-3.4,15.56-.17.77-.4,1.64-1.44,1.64s-1.3-.81-1.8-1.42c-3.6-4.51-3.6-4.5-8.62-1.32-14,8.87-28,17.79-42.11,26.53C46.61,90,45.8,91.2,47.92,93.53a11.75,11.75,0,0,1,1.5,2.37c1,1.81.18,2.67-1.62,2.3-5.24-1.07-10.43-2.33-15.65-3.49-1.66-.37-2.07-1.21-1.65-2.91,1.2-4.93,2.22-9.91,3.33-14.87.17-.74.09-1.71,1.09-2,1.18-.27,1.58.73,2.13,1.46C40.52,81,40.53,81,45.27,78,59.18,69.25,73,60.37,87,51.73c3-1.87,4-3.4,1.47-6.31-.81-.92-2.09-2.21-1.09-3.53.83-1.11,2.23-.21,3.37,0q6.48,1.38,12.94,2.78C105.34,45.05,107,45.4,106.46,47.45Z"/></svg>