<svg xmlns="http://www.w3.org/2000/svg" xmlns:xlink="http://www.w3.org/1999/xlink" width="32" height="32" viewBox="0 0 32 32">
    <defs>
        <path id="a" d="M21.746 15.665c2.35 0 4.254 1.866 4.254 4.167C26 22.134 24.095 24 21.746 24c-2.35 0-4.254-1.866-4.254-4.168 0-.715.184-1.388.508-1.976l-1.995.638-.212-.572 3.247-1.038 1.181 3.197-.581.186-.863-2.333a3.406 3.406 0 0 0-.576 1.898c0 1.918 1.587 3.473 3.545 3.473s3.545-1.555 3.545-3.473c0-1.876-1.519-3.405-3.417-3.47l-.002-.694-.126-.003zM21.74 9c.705 0 1.276.56 1.276 1.25v2.917c0 .32-.123.613-.326.835.14.15.242.337.292.543A6.044 6.044 0 0 0 20.464 14c-.782 0-1.528.147-2.212.415l-10.976.002a.422.422 0 0 0-.422.368l-.003.048v2.917c0 .214.164.39.376.414l.05.003h7.478c-.082.27-.145.547-.186.832L7.276 19a.422.422 0 0 0-.422.368l-.003.049v2.916c0 .214.164.39.376.414l.05.003h8.028c.174.295.374.574.597.834H7.276c-.705 0-1.276-.56-1.276-1.25v-2.917c0-.32.123-.613.326-.834A1.225 1.225 0 0 1 6 17.75v-2.917c0-.32.123-.612.326-.834A1.225 1.225 0 0 1 6 13.167V10.25C6 9.56 6.571 9 7.276 9H21.74zm-7.217 11.25c.021.29.063.574.126.85H7.914v-.85h6.61zm1.049-4.583v.84a5.887 5.887 0 0 0-.009.01H7.914v-.85h7.658zm6.168-5.834H7.276a.422.422 0 0 0-.422.368l-.003.049v2.917c0 .213.164.39.376.414l.05.002H21.74c.218 0 .398-.16.423-.368l.003-.048V10.25a.42.42 0 0 0-.376-.414l-.05-.003zm-6.168 1.25v.851H7.914v-.85h7.658zm4.892 0c.235 0 .425.187.425.417 0 .23-.19.417-.425.417a.421.421 0 0 1-.426-.417c0-.23.19-.417.426-.417zm-1.276 0c.235 0 .425.187.425.417 0 .23-.19.417-.425.417a.421.421 0 0 1-.426-.417c0-.23.19-.417.426-.417zm-1.277 0c.235 0 .426.187.426.417 0 .23-.19.417-.426.417a.421.421 0 0 1-.425-.417c0-.23.19-.417.425-.417z"/>
    </defs>
    <g fill="none" fill-rule="evenodd">
        <!-- <circle cx="16" cy="16" r="15.5" stroke="#9E3398"/> -->
        <use fill="currentColor" fill-rule="nonzero" xlink:href="#a"/>
    </g>
</svg>
