<svg xmlns="http://www.w3.org/2000/svg" width="100" height="100" viewBox="0 0 100 100">
    <g fill="none" fill-rule="evenodd">
        <circle cx="50" cy="50" r="49" fill="currentColor" stroke="currentColor" stroke-width="2"/>
        <path fill="#FFF" fill-rule="nonzero" d="M41 34.968v2.148c-5.32 2.073-8.032 3.806-8 4.62.038.997 5.658 1.387 17.13 1.104l5.527-.152c9.835-.25 13.39-.109 15.424.847 1.435.675 2.072 1.816 1.033 2.909-.597.627-1.81 1.132-3.752 1.642l-.517.132c-1.05.259-2.301.52-3.752.782H74v22H25V49h24.44l2.345-.269c7.368-.868 12.649-1.709 15.823-2.516l.246-.063c1.025-.27 1.795-.534 2.28-.76l.096-.047-.083-.038c-1.6-.7-5.122-.837-13.558-.64l-8.32.221c-4.533.105-7.347.099-9.866-.047l-.251-.015c-4.673-.29-7.074-1.017-7.151-3.014-.078-2.013 3.183-4.234 10-6.844zM72 51H27v18h45V51zM31 63v2h-2v-2h2zm3 0v2h-2v-2h2zm3 0v2h-2v-2h2zm3 0v2h-2v-2h2zm18 0v2H41v-2h17zm3 0v2h-2v-2h2zm3 0v2h-2v-2h2zm3 0v2h-2v-2h2zm3 0v2h-2v-2h2zm-6-4v2H29v-2h35zm6-4v6h-5v-2h3v-4h2zm-3 0v2H29v-2h38zM50 22c2.522 0 3.917 1.595 3.996 4.369l.004.255-.001.919H57v11H43v-11h3.137l.001-.88C46.027 23.718 47.384 22 50 22zm5 7.544H45v7h10v-7zm-5 4a1 1 0 1 1 0 2 1 1 0 0 1 0-2zm19.752-7.102l.496 1.938-2.343.604A513.51 513.51 0 0 0 59 31.378v-2.084c3.06-.846 6.379-1.728 9.961-2.649l.791-.203zM50 24c-1.333 0-1.893.647-1.868 2.415l.006.21-.001.918h3.862l.001-.919C52 24.723 51.402 24 50 24z"/>
    </g>
</svg>
