<svg xmlns="http://www.w3.org/2000/svg" width="32" height="32" viewBox="0 0 32 32">
    <g fill="none" fill-rule="evenodd">
        <circle cx="16" cy="16" r="15.5" fill="none" stroke="none"/>
        <path fill="#FFF" fill-rule="nonzero" d="M14.678 12.4l2.537 2.018.124 4.21 4.039 2.147-1.431 5.136H14.37L10 19.356h2.385l2.293 1.366V12.4zm.649 1.352v8.12l-3.119-1.858h-.986l3.494 5.239h4.74l1.154-4.144-3.907-2.077-.127-4.286-1.25-.994zM15.689 6c.897 0 1.392.567 1.42 1.553l.002.091v.327h1.067v3.911H13.2v-3.91l1.115-.001v-.313C14.277 6.61 14.76 6 15.69 6zm1.778 2.682H13.91v2.49h3.556v-2.49zm-1.778 1.423a.356.356 0 1 1 0 .71.356.356 0 0 1 0-.71zm0-3.394c-.474 0-.673.23-.664.859l.002.074-.001.327h1.373l.001-.327c0-.676-.213-.933-.711-.933z"/>
    </g>
</svg>
