<svg xmlns="http://www.w3.org/2000/svg" width="32" height="32" viewBox="0 0 32 32">
    <g fill="none" fill-rule="evenodd">
        <path fill="none" fill-rule="nonzero" d="M17.125 6c1.798 0 3.487.463 4.95 1.275C18.987 8.987 16.9 12.253 16.9 16c0 .512.039 1.015.114 1.506-.284.222-.544.477-.775.757-.144-.671-.225-1.363-.237-2.067L16 16c0-3.338 1.528-6.41 4.047-8.447l.157-.125-.195-.066c-.849-.275-1.74-.428-2.655-.45l-.229-.003C12.025 6.91 7.9 10.984 7.9 16c0 4.856 3.867 8.83 8.74 9.079.375.36.807.662 1.28.89-.261.02-.527.031-.795.031C11.533 26 7 21.523 7 16S11.533 6 17.125 6zM20.5 16.91c2.485 0 4.5 2.034 4.5 4.545C25 23.965 22.985 26 20.5 26S16 23.965 16 21.455s2.015-4.546 4.5-4.546zm0 .908c-1.988 0-3.6 1.628-3.6 3.637 0 2.008 1.612 3.636 3.6 3.636s3.6-1.628 3.6-3.636c0-2.009-1.612-3.637-3.6-3.637zm.45 1.818V21h1.35v.91h-2.25v-2.274h.9z"/>
        <!-- <circle cx="16" cy="16" r="15.5" stroke="#9E3398"/> -->
    </g>
</svg>
