<?xml version="1.0" encoding="utf-8"?>
<!-- Generator: Adobe Illustrator 23.1.0, SVG Export Plug-In . SVG Version: 6.00 Build 0)  -->
<svg version="1.1" id="圖層_1" xmlns="http://www.w3.org/2000/svg" xmlns:xlink="http://www.w3.org/1999/xlink" x="0px" y="0px"
	 viewBox="0 0 792 168" style="enable-background:new 0 0 792 168;" xml:space="preserve">
<style type="text/css">
	.st0{fill:#004280;}
	.st1{fill:#AAB3C2;}
</style>
<g>
	<g>
		<path class="st0" d="M23.05,33.29h32.4c21.6,0,30.84,9.87,30.84,38.34c0,29.73-4.29,43.62-33.05,43.62H23.05V33.29z M44.91,101.01
			h5.86c10.15,0,13.67-3.56,13.67-28.12c0-19.97-1.82-25.37-13.41-25.37h-6.12V101.01z"/>
		<path class="st0" d="M111.04,87.23v3.79c0,9.64,1.56,14.35,7.68,14.35c5.46,0,7.15-3.56,7.68-11.36h19.52
			c-0.39,15.38-9.89,22.84-27.32,22.84c-26.55,0-28.63-16.41-28.63-34.9c0-17.45,5.73-30.41,28.63-30.41
			c26.15,0,27.98,14.57,27.98,35.7H111.04z M126.27,76.45c0-8.72-1.3-13.43-7.16-13.43c-6.89,0-8.07,5.05-8.07,13.43H126.27z"/>
		<path class="st0" d="M145.94,53.14h21.86l8.2,45.8h0.26l8.33-45.8h21.08l-17.44,62.1h-24.99L145.94,53.14z"/>
		<path class="st0" d="M208.94,32.37h21.08V46.6h-21.08V32.37z M208.94,53.14h21.08v62.1h-21.08V53.14z"/>
		<path class="st0" d="M272.33,76.56c0-9.07-2.34-12.85-7.94-12.85c-7.02,0-7.94,7.8-7.94,20.54c0,14.01,0.91,20.43,7.94,20.43
			c6.25,0,7.68-3.79,7.94-14.69h19.52c-0.13,19.16-8.72,26.86-27.85,26.86c-26.55,0-28.63-16.41-28.63-34.9
			c0-17.45,5.73-30.41,28.63-30.41c22.12,0,27.85,10.21,27.85,25.02H272.33z"/>
		<path class="st0" d="M314.51,87.23v3.79c0,9.64,1.56,14.35,7.68,14.35c5.47,0,7.16-3.56,7.68-11.36h19.52
			c-0.39,15.38-9.89,22.84-27.32,22.84c-26.55,0-28.63-16.41-28.63-34.9c0-17.45,5.73-30.41,28.63-30.41
			c26.15,0,27.98,14.57,27.98,35.7H314.51z M329.74,76.45c0-8.72-1.3-13.43-7.16-13.43c-6.89,0-8.07,5.05-8.07,13.43H329.74z"/>
		<path class="st0" d="M385.32,116.85c-28.76,0-32.66-16.53-32.66-42.58s3.9-42.58,32.66-42.58c30.97,0,32.66,19.86,32.66,42.58
			S416.29,116.85,385.32,116.85z M385.19,103.99c8.85,0,10.15-7.23,10.15-29.73s-1.3-29.73-10.15-29.73
			c-8.59,0-9.89,7.23-9.89,29.73S376.6,103.99,385.19,103.99z"/>
		<path class="st0" d="M424,53.14h20.3v7.35h0.26c2.99-5.51,9.11-8.95,16.92-8.95c11.97,0,18.35,5.28,18.35,17.21v46.49h-21.08
			V72.89c0-4.48-2.21-7.12-6.12-7.12c-4.03,0-7.55,2.76-7.55,8.84v40.63H424V53.14z"/>
		<path class="st0" d="M505.88,34.15h15.15l-25.4,82.65h-15.15L505.88,34.15z"/>
		<path class="st1" d="M526,32.27h18.62v14.25H526V32.27z M526,53.07h18.62v62.17H526V53.07z"/>
		<path class="st1" d="M553.34,33.19h47.46v15.63h-28.15v16.43h26.43v15.63h-26.43v18.73h29.42v15.63h-48.72V33.19z"/>
		<path class="st1" d="M638.47,107.65h-0.23c-1.38,4.25-5.17,9.19-13.44,9.19c-12.53,0-19.19-8.96-19.19-32.17
			c0-19.31,2.76-33.21,18.04-33.21c5.17,0,10.8,1.73,13.91,8.39h0.23V33.19h18.62v82.05h-17.93V107.65z M631.34,65.02
			c-6.78,0-7.12,7.47-7.12,18.73c0,10,0.23,19.54,7.24,19.54c5.52,0,6.67-6.67,6.67-18.73C638.12,73.52,637.66,65.02,631.34,65.02z"
			/>
		<path class="st1" d="M695.9,53.07h17.23v59.99c0,14.02-6.2,23.33-25.85,23.33c-18.04,0-23.33-7.93-23.33-17.24h17.24
			c0.34,1.72,0.92,2.99,1.95,3.79c1.15,0.8,2.64,1.26,4.6,1.26c6.2,0,7.47-4.02,7.47-15.86v-3.79h-0.23
			c-2.53,7.12-8.39,9.19-14.71,9.19c-13.44,0-17.47-13.33-17.47-30.45c0-14.71,1.95-31.83,18.16-31.83c8.39,0,12.53,4.37,14.71,10
			h0.23V53.07z M688.2,100.19c5.06,0,7.01-3.68,7.01-17.7c0-11.38-1.38-16.78-6.78-16.78c-6.09,0-7.01,7.13-7.01,17.35
			C681.42,96.05,683.14,100.19,688.2,100.19z"/>
		<path class="st1" d="M737.13,87.2v3.79c0,9.65,1.38,14.36,6.78,14.36c4.83,0,6.32-3.56,6.78-11.38h17.24
			c-0.34,15.4-8.73,22.87-24.13,22.87c-23.44,0-25.28-16.43-25.28-34.93c0-17.47,5.06-30.45,25.28-30.45
			c23.1,0,24.71,14.6,24.71,35.74H737.13z M750.57,76.4c0-8.73-1.15-13.44-6.32-13.44c-6.09,0-7.12,5.06-7.12,13.44H750.57z"/>
	</g>
</g>
</svg>
