<?xml version="1.0" encoding="UTF-8"?>
<svg width="252px" height="55px" viewBox="0 0 252 55" version="1.1" xmlns="http://www.w3.org/2000/svg" xmlns:xlink="http://www.w3.org/1999/xlink">
    <!-- Generator: Sketch 63 (92445) - https://sketch.com -->
    <title>WISE-DeviceOn</title>
    <desc>Created with Sketch.</desc>
    <g id="WISE-DeviceOn" stroke="none" stroke-width="1" fill="none" fill-rule="evenodd">
        <g id="logo/WISE-deviceOn/dark" fill="#004889">
            <g id="Group" transform="translate(14.000000, 15.000000)">
                <polygon id="Path" points="-1.59872116e-14 0.470705 6.413275 0.470705 8.78156 17.557805 8.857155 17.557805 11.683155 0.470705 17.638715 0.470705 20.69505 17.557805 20.770055 17.557805 23.06097 0.470705 29.246275 0.470705 24.512065 24.48667 17.41075 24.48667 14.62314 7.43323 14.54577 7.43323 11.911125 24.48667 4.8104 24.48667"></polygon>
                <polygon id="Path" points="30.229025 0.470705 36.644665 0.470705 36.644665 24.48667 30.229025 24.48667"></polygon>
                <path d="M44.69743,17.153835 L44.69743,17.995435 C44.69743,19.811515 45.271485,21.190555 47.48504,21.190555 C49.73757,21.190555 50.386635,19.710525 50.386635,18.332075 C50.386635,13.151965 38.66509,16.04411 38.66509,7.06411 C38.66509,3.228785 40.994395,7.10542736e-13 47.599025,7.10542736e-13 C54.01407,7.10542736e-13 56.30558,2.85966 56.30558,6.55974 L56.30558,7.131435 L50.119685,7.131435 C50.119685,5.988045 49.96731,5.146445 49.584605,4.608415 C49.20426,4.036715 48.591815,3.767995 47.63741,3.767995 C46.034535,3.767995 45.080135,4.608415 45.080135,6.357165 C45.080135,11.369545 56.80168,8.846525 56.80168,17.322745 C56.80168,22.77158 53.365005,24.957965 47.48504,24.957965 C42.827605,24.957965 38.512125,23.71358 38.512125,18.701195 L38.512125,17.153835 L44.69743,17.153835 Z" id="Path"></path>
                <polygon id="Path" points="58.55161 0.470705 74.319915 0.470705 74.319915 5.046045 64.964885 5.046045 64.964885 9.85585 73.74822 9.85585 73.74822 14.42942 64.964885 14.42942 64.964885 19.9131 74.739235 19.9131 74.739235 24.48667 58.55161 24.48667"></polygon>
                <polygon id="Path" points="75.6145 12.479275 87.14469 12.479275 87.14469 17.053435 75.6145 17.053435"></polygon>
            </g>
            <g id="Group-2" transform="translate(103.087750, 15.000000)">
                <path d="M-3.73034936e-14,0.470705 L9.50563,0.470705 C15.84567,0.470705 18.55591,3.36403 18.55591,11.705005 C18.55591,20.416875 17.29676,24.48667 8.856565,24.48667 L-3.73034936e-14,24.48667 L-3.73034936e-14,0.470705 Z M6.41327,20.315885 L6.41327,20.315885 L8.132495,20.315885 C11.111455,20.315885 12.140865,19.272895 12.140865,12.07531 C12.140865,6.2231 11.607555,4.642075 8.2075,4.642075 L6.41327,4.642075 L6.41327,20.315885 Z" id="Shape"></path>
                <path d="M25.803695,16.280345 L25.803695,17.390075 C25.803695,20.21489 26.261405,21.594525 28.055635,21.594525 C29.6591,21.594525 30.15579,20.55212 30.308165,18.264155 L36.035755,18.264155 C35.92177,22.77158 33.134165,24.957965 28.017245,24.957965 C20.228475,24.957965 19.61839,20.148155 19.61839,14.732985 C19.61839,9.619615 21.29686,5.819135 28.017245,5.819135 C35.69203,5.819135 36.22711,10.09091 36.22711,16.280345 L25.803695,16.280345 Z M30.269775,13.1183 L30.269775,13.1183 C30.269775,10.561615 29.88884,9.183165 28.16962,9.183165 C26.14742,9.183165 25.803695,10.662605 25.803695,13.1183 L30.269775,13.1183 Z" id="Shape"></path>
                <polygon id="Path" points="36.02985 6.28984 42.444895 6.28984 44.8498 19.710525 44.92717 19.710525 47.37105 6.28984 53.556355 6.28984 48.43885 24.48667 41.10838 24.48667"></polygon>
                <path d="M54.50426,0.202575 L60.689565,0.202575 L60.689565,4.373355 L54.50426,4.373355 L54.50426,0.202575 Z M54.50426,6.28984 L54.50426,6.28984 L60.689565,6.28984 L60.689565,24.48667 L54.50426,24.48667 L54.50426,6.28984 Z" id="Shape"></path>
                <path d="M73.09502,13.151965 C73.09502,10.494875 72.407565,9.384555 70.76512,9.384555 C68.70394,9.384555 68.437585,11.67193 68.437585,15.405085 C68.437585,19.50913 68.70394,21.39195 70.76512,21.39195 C72.598325,21.39195 73.02001,20.28222 73.09502,17.0871 L78.82261,17.0871 C78.78363,22.70484 76.26474,24.957965 70.651135,24.957965 C62.862955,24.957965 62.25228,20.148155 62.25228,14.732985 C62.25228,9.619615 63.93075,5.819135 70.651135,5.819135 C77.141775,5.819135 78.82261,8.81286 78.82261,13.151965 L73.09502,13.151965 Z" id="Path"></path>
                <path d="M85.45972,16.280345 L85.45972,17.390075 C85.45972,20.21489 85.91743,21.594525 87.71225,21.594525 C89.315125,21.594525 89.811815,20.55212 89.96419,18.264155 L95.69178,18.264155 C95.577795,22.77158 92.79078,24.957965 87.67327,24.957965 C79.8845,24.957965 79.274415,20.148155 79.274415,14.732985 C79.274415,9.619615 80.952885,5.819135 87.67327,5.819135 C95.348055,5.819135 95.883135,10.09091 95.883135,16.280345 L85.45972,16.280345 Z M89.9258,13.1183 L89.9258,13.1183 C89.9258,10.561615 89.545455,9.183165 87.825645,9.183165 C85.803445,9.183165 85.45972,10.662605 85.45972,13.1183 L89.9258,13.1183 Z" id="Shape"></path>
                <path d="M106.223275,24.957965 C97.78544,24.957965 96.64028,20.11449 96.64028,12.479275 C96.64028,4.84465 97.78544,7.10542736e-13 106.223275,7.10542736e-13 C115.310175,7.10542736e-13 115.806275,5.819135 115.806275,12.479275 C115.806275,19.13883 115.310175,24.957965 106.223275,24.957965 Z M106.18489,21.190555 L106.18489,21.190555 C108.781145,21.190555 109.16326,19.0715 109.16326,12.479275 C109.16326,5.88587 108.781145,3.767995 106.18489,3.767995 C103.663635,3.767995 103.283295,5.88587 103.283295,12.479275 C103.283295,19.0715 103.663635,21.190555 106.18489,21.190555 Z" id="Shape"></path>
                <path d="M117.55621,6.28984 L123.513545,6.28984 L123.513545,8.442555 L123.58914,8.442555 C124.467945,6.82787 126.262765,5.819135 128.55368,5.819135 C132.06536,5.819135 133.93755,7.366495 133.93755,10.86518 L133.93755,24.48667 L127.752245,24.48667 L127.752245,12.07531 C127.752245,10.763005 127.10318,9.989915 125.957425,9.989915 C124.77328,9.989915 123.74151,10.79785 123.74151,12.58027 L123.74151,24.48667 L117.55621,24.48667 L117.55621,6.28984 Z" id="Path"></path>
            </g>
        </g>
    </g>
</svg>