<svg xmlns="http://www.w3.org/2000/svg" width="100" height="100" viewBox="0 0 100 100">
    <g fill="none" fill-rule="evenodd">
        <circle cx="50" cy="50" r="49" fill="#FFF" stroke="#9E3398" stroke-width="2"/>
        <path fill="#9E3398" fill-rule="nonzero" d="M67.313 49c5.384.158 9.7 4.574 9.7 9.998 0 5.524-4.477 10.002-10 10.002-5.522 0-10-4.478-10-10.002 0-1.71.43-3.32 1.186-4.729l-4.71 1.56L53 54.466l7.683-2.544 2.726 7.62-1.376.456-1.992-5.565a8.298 8.298 0 0 0-1.36 4.565 8.334 8.334 0 1 0 16.666 0 8.334 8.334 0 0 0-8.034-8.33V49zM67 33a3 3 0 0 1 3 3v7c0 .769-.29 1.47-.765 2 .329.367.568.814.685 1.31A13.953 13.953 0 0 0 64 45c-1.84 0-3.597.355-5.206 1H33a1 1 0 0 0-.993.883L32 47v7a1 1 0 0 0 .883.993L33 55h17.58c-.193.648-.34 1.316-.438 2H33a1 1 0 0 0-.993.883L32 58v7a1 1 0 0 0 .883.993L33 66h18.873c.41.71.88 1.378 1.404 2.001L33 68a3 3 0 0 1-3-3v-7c0-.768.289-1.47.764-2A2.989 2.989 0 0 1 30 54v-7c0-.768.289-1.47.764-2A2.989 2.989 0 0 1 30 43v-7a3 3 0 0 1 3-3h34zM50.035 60c.048.682.145 1.35.287 2H34.5v-2h15.535zM52.5 49v2h-18v-2h18zM67 35H33a1 1 0 0 0-.993.883L32 36v7a1 1 0 0 0 .883.993L33 44h34a1 1 0 0 0 .993-.883L68 43v-7a1 1 0 0 0-.883-.993L67 35zm-14.5 3v2h-18v-2h18zM64 38a1 1 0 1 1 0 2 1 1 0 0 1 0-2zm-3 0a1 1 0 1 1 0 2 1 1 0 0 1 0-2zm-3 0a1 1 0 1 1 0 2 1 1 0 0 1 0-2z"/>
    </g>
</svg>
