<svg xmlns="http://www.w3.org/2000/svg" width="32" height="32" viewBox="0 0 32 32">
    <g fill="none" fill-rule="evenodd">
        <circle cx="16" cy="16" r="15.5" fill="none" stroke="none"/>
        <path fill="#FFF" fill-rule="nonzero" d="M16.47 22.706V26h-.94v-3.294h.94zm4.605-2.297l2.329 2.33-.666.665-2.329-2.33.666-.665zm-10.15 0l.666.666-2.33 2.329-.665-.666 2.33-2.329zM16 10a5.882 5.882 0 1 1 0 11.765A5.882 5.882 0 0 1 16 10zm0 .941a4.941 4.941 0 1 0 0 9.883 4.941 4.941 0 0 0 0-9.883zm10 4.588v.942h-3.294v-.942H26zm-16.706 0v.942H6v-.942h3.294zm-.032-6.933l2.329 2.33-.666.665-2.329-2.33.666-.665zm13.476 0l.666.666-2.33 2.329-.665-.666 2.33-2.329zM16.471 6v3.294h-.942V6h.942z"/>
    </g>
</svg>
