<svg xmlns="http://www.w3.org/2000/svg" width="100" height="100" viewBox="0 0 100 100">
    <g fill="none" fill-rule="evenodd">
        <circle cx="50" cy="50" r="49" fill="#FFF" stroke="#9E3398" stroke-width="2"/>
        <path fill="#9E3398" fill-rule="nonzero" d="M34 25a3 3 0 0 1 1 5.829v35.342a3.001 3.001 0 1 1-2 0V30.829A3.001 3.001 0 0 1 34 25zm0 42.714a1.286 1.286 0 1 0 0 2.572 1.286 1.286 0 0 0 0-2.572zm12.951-30.606l7.723 8.982L67.3 43.635l5.963 13.76-12.186 9.868-21.157-6.591 5.213-4.221 7.43-1.073-14.73-18.19 9.118-.08zm-.818 1.849l-4.488.039 14.372 17.747-10.105 1.459-2.155 1.745 16.908 5.268 10.36-8.39-4.81-11.1-12.217 2.377-7.865-9.145zM34 26.714a1.286 1.286 0 1 0 0 2.572 1.286 1.286 0 0 0 0-2.572z"/>
    </g>
</svg>
