<svg xmlns="http://www.w3.org/2000/svg" width="32" height="32" viewBox="0 0 32 32">
    <g fill="none" fill-rule="evenodd">
        <circle cx="16" cy="16" r="15.5" fill="currentColor" stroke="currentColor"/>
        <path fill="#FFF" fill-rule="nonzero" d="M26 16.152v.678h-5.68c-.044.6-.206 1.164-.463 1.672l3.135 1.848c.244-.287.605-.469 1.008-.469.736 0 1.333.607 1.333 1.356 0 .75-.597 1.356-1.333 1.356s-1.333-.607-1.333-1.356c0-.056.003-.112.01-.167l-3.232-1.905c-.729.97-1.844 1.622-3.111 1.72v1.393c1.13.165 2 1.154 2 2.35C18.333 25.937 17.288 27 16 27c-1.289 0-2.333-1.062-2.333-2.373 0-1.195.869-2.184 2-2.349v-1.393c-1.268-.098-2.383-.75-3.112-1.72l-2.932 1.728c.029.11.044.225.044.344 0 .75-.597 1.356-1.334 1.356-.736 0-1.333-.607-1.333-1.356 0-.749.597-1.356 1.333-1.356.341 0 .652.13.888.344l2.922-1.723c-.257-.508-.419-1.073-.464-1.671H6v-.679h20zm-10 6.78c-.92 0-1.667.759-1.667 1.695s.747 1.695 1.667 1.695 1.667-.759 1.667-1.695-.747-1.695-1.667-1.695zm8-2.373c-.368 0-.667.304-.667.678 0 .375.299.678.667.678.368 0 .667-.303.667-.678 0-.374-.299-.678-.667-.678zm-15.667 0c-.368 0-.666.304-.666.678 0 .375.298.678.666.678.369 0 .667-.303.667-.678 0-.374-.298-.678-.667-.678zm11.319-3.728h-7.304c.169 1.9 1.74 3.39 3.652 3.39 1.912 0 3.483-1.49 3.652-3.39zm3.015-2.712v.678H9.333v-.678h13.334zm-6.695-9.091l3.356 3.356-.508.507-2.487-2.487v5.68h3v.679h-6.666v-.678h3l-.001-5.72-2.478 2.48-.516-.517 3.3-3.3z"/>
    </g>
</svg>
