<svg xmlns="http://www.w3.org/2000/svg" width="32" height="32" viewBox="0 0 32 32">
    <g fill="none" fill-rule="evenodd">
        <circle cx="16" cy="16" r="15.5" fill="currentColor" stroke="currentColor"/>
        <path fill="#FFF" fill-rule="nonzero" d="M9.278 6a1.277 1.277 0 0 1 .426 2.48v15.04a1.277 1.277 0 1 1-.853 0V8.48A1.277 1.277 0 0 1 9.278 6zm0 18.176a.547.547 0 1 0 0 1.095.547.547 0 0 0 0-1.095zm5.519-13.025l3.286 3.822 5.376-1.047 2.537 5.856-5.19 4.203-9.007-2.802 2.22-1.797 3.163-.458-6.267-7.74 3.882-.037zm-.349.788l-1.91.017 6.115 7.552-4.303.623-.917.743 7.197 2.24 4.413-3.574-2.047-4.724-5.201 1.014-3.347-3.891zm-5.17-5.21a.547.547 0 1 0 0 1.095.547.547 0 0 0 0-1.095z"/>
    </g>
</svg>
