<svg xmlns="http://www.w3.org/2000/svg" width="32" height="32" viewBox="0 0 32 32">
    <g fill="none" fill-rule="evenodd">
        <circle cx="16" cy="16" r="15.5" fill="currentColor" stroke="currentColor"/>
        <path fill="#FFF" fill-rule="nonzero" d="M20.667 6l-.001 5.714H23V26H9V11.714h2.333V6h9.334zm1.4 6.667H9.933v12.38h12.134v-12.38zm-5.581 1.542v5.27l.914-.933V16h.933v2.941l-1.847 1.885v2.834h-.953v-1.242l-1.866-1.796v-5.136h.933v4.74l.933.89v-6.907h.953zm3.247-7.257h-7.466v4.762h7.466V6.952zm-4.88.953v2.857H13.9V7.905h.952zm3.033 0v2.857h-.953V7.905h.953z"/>
    </g>
</svg>
