<svg xmlns="http://www.w3.org/2000/svg" width="100" height="100" viewBox="0 0 100 100">
    <g fill="none" fill-rule="evenodd">
        <circle cx="50" cy="50" r="49" fill="currentColor" stroke="currentColor" stroke-width="2"/>
        <path fill="#FFF" fill-rule="nonzero" d="M49.714 29c5.779 0 14.243 4.714 25.59 14.105L77 44.517l-2.934 2.351c-3.452 2.748-6.007 4.697-7.675 5.853a74.496 74.496 0 0 1-4.881 3.132L69.657 64l-1.414 1.414-8.55-8.548c-3.558 1.89-6.615 2.928-9.194 3.106L50.5 71.5h-2V59.935c-2.557-.267-5.554-1.355-9.004-3.26l-8.739 8.74L29.343 64l8.363-8.361c-3.84-2.324-8.196-5.574-13.086-9.747L23 44.5l1.048-.902C35.343 33.88 43.83 29 49.714 29zm0 2.385l-.263.004c-4.868.147-12.322 4.342-22.2 12.622l-.58.49.04.033c9.515 8.05 16.826 12.374 21.789 13.001V57.5h2v.08c2.44-.208 5.532-1.36 9.247-3.468l.01-.011a65.858 65.858 0 0 0 4.733-2.97l.74-.51.965-.694c1.396-1.02 3.23-2.428 5.496-4.223l1.532-1.218c-10.66-8.748-18.555-13.101-23.51-13.101zm13.58 13.517l1.412 1.416C58.865 52.148 53.822 54.1 49.5 54.1c-4.228 0-9.146-1.826-14.827-7.407l-.38-.376 1.413-1.416c5.502 5.49 10.126 7.199 13.794 7.199 3.586 0 8.087-1.59 13.428-6.837l.366-.362z"/>
    </g>
</svg>
