<svg xmlns="http://www.w3.org/2000/svg" width="32" height="32" viewBox="0 0 32 32">
    <g fill="none" fill-rule="evenodd">
        <!-- <circle cx="16" cy="16" r="15.5" stroke="#9E3398"/> -->
        <path fill="#9E3398" fill-rule="nonzero" d="M20.667 6l-.001 5.714H23V26H9V11.714h2.333V6h9.334zm1.4 6.667H9.933v12.38h12.134v-12.38zM16 15.265c1.177 0 1.828.76 1.865 2.08l.002.122v.437h1.4v5.239h-6.534v-5.238l1.464-.001v-.42c-.051-1.4.582-2.22 1.803-2.22zm2.333 3.592h-4.666v3.333h4.666v-3.333zm-2.323 1.905a.476.476 0 1 1 0 .952.476.476 0 0 1 0-.952zM16 16.217c-.622 0-.883.308-.872 1.15l.003.1v.437h1.801l.001-.437c0-.906-.279-1.25-.933-1.25zm3.733-9.265h-7.466v4.762h7.466V6.952zm-4.88.953v2.857H13.9V7.905h.952zm3.033 0v2.857h-.953V7.905h.953z"/>
    </g>
</svg>
